{
.appVersion = "1181";
copyright = "Copyright (c) 2018 by Artur Schmal. All rights reserved.";
customParameters = (
{
name = glyphOrder;
value = (
.notdef,
space,
at,
A,
B,
C,
D,
E,
F,
G,
H,
I,
J,
K,
L,
M,
N,
O,
P,
Q,
R,
S,
T,
U,
V,
W,
X,
Y,
Z,
ampersand,
at.sc,
a.sc,
b.sc,
c.sc,
d.sc,
e.sc,
f.sc,
g.sc,
h.sc,
i.sc,
j.sc,
k.sc,
l.sc,
m.sc,
n.sc,
o.sc,
p.sc,
q.sc,
r.sc,
s.sc,
t.sc,
u.sc,
v.sc,
w.sc,
x.sc,
y.sc,
z.sc,
ampersand.sc,
fi.sc,
fl.sc,
germandbls.sc,
a,
b,
c,
d,
e,
f,
g,
h,
i,
j,
k,
l,
m,
n,
o,
p,
q,
r,
s,
t,
u,
v,
w,
x,
y,
z,
germandbls,
f_b,
ff,
f_h,
fi,
f_j,
f_k,
fl,
f_t,
t_f,
t_t,
f_f_b,
f_f_h,
ffi,
f_f_j,
f_f_k,
ffl,
f_f_t,
zero,
one,
two,
three,
four,
five,
six,
seven,
eight,
nine,
slashedzero,
zero.PPF,
one.PPF,
two.PPF,
three.PPF,
four.PPF,
five.PPF,
six.PPF,
seven.PPF,
eight.PPF,
nine.PPF,
slashedzero.PPF,
zero.sc,
one.sc,
two.sc,
three.sc,
four.sc,
five.sc,
six.sc,
seven.sc,
eight.sc,
nine.sc,
slashedzero.sc,
zero.scppf,
one.scppf,
two.scppf,
three.scppf,
four.scppf,
five.scppf,
six.scppf,
seven.scppf,
eight.scppf,
nine.scppf,
slashedzero.scppf,
zero.TOSF,
one.TOSF,
two.TOSF,
three.TOSF,
four.TOSF,
five.TOSF,
six.TOSF,
seven.TOSF,
eight.TOSF,
nine.TOSF,
slashedzero.TOSF,
zero.oldstyle,
one.oldstyle,
two.oldstyle,
three.oldstyle,
four.oldstyle,
five.oldstyle,
six.oldstyle,
seven.oldstyle,
eight.oldstyle,
nine.oldstyle,
slashedzero.oldstyle,
percent,
perthousand,
onehalf,
uni2153,
uni2154,
onequarter,
threequarters,
uni2155,
uni2156,
uni2157,
uni2158,
uni2159,
uni215A,
uni215B,
uni215C,
uni215D,
uni215E,
fraction,
percent.sc,
perthousand.sc,
a.inferior,
b.inferior,
c.inferior,
d.inferior,
e.inferior,
f.inferior,
g.inferior,
h.inferior,
i.inferior,
j.inferior,
k.inferior,
l.inferior,
m.inferior,
n.inferior,
o.inferior,
p.inferior,
q.inferior,
r.inferior,
s.inferior,
t.inferior,
u.inferior,
v.inferior,
w.inferior,
x.inferior,
y.inferior,
z.inferior,
uni2080,
uni2081,
uni2082,
uni2083,
uni2084,
uni2085,
uni2086,
uni2087,
uni2088,
uni2089,

glyphs = (
{
glyphname = .notdef;
lastChange = "2018-11-26 15:58:55 +0000";
layers = (
{
hints = (
{
horizontal = 1;
place = "{0, 64}";
type = Stem;
},
{
horizontal = 1;
place = "{656, 64}";
type = Stem;
},
{
place = "{96, 72}";
type = Stem;
},
{
place = "{688, 72}";
type = Stem;
}
);
layerId = "5B01CDE3-ACDA-4D2B-9E53-A993574CFD15";
paths = (
{
closed = 1;
nodes = (
"96 0 LINE",
"760 0 LINE",
"760 720 LINE",
"96 720 LINE"
);
},
{
closed = 1;
nodes = (
"168 656 LINE",
"688 656 LINE",
"688 64 LINE",
"168 64 LINE"
);
},
{
closed = 1;
nodes = (
"254 481 LINE",
"387 348 LINE",
"254 215 LINE",
"299 170 LINE",
"432 303 LINE",
"565 170 LINE",
"610 215 LINE",
"477 348 LINE",
"610 481 LINE",
"565 526 LINE",
"432 393 LINE",
"299 526 LINE"
);
}
);
width = 856;
},
{
hints = (
{
horizontal = 1;
place = "{0, 64}";
type = Stem;
},
{
horizontal = 1;
place = "{656, 64}";
type = Stem;
},
{
place = "{116, 72}";
type = Stem;
},
{
place = "{708, 72}";
type = Stem;
}
);
layerId = "FA792B6B-505C-4DC3-9C40-F9BEDA01661E";
paths = (
{
closed = 1;
nodes = (
"116 0 LINE",
"780 0 LINE",
"780 720 LINE",
"116 720 LINE"
);
},
{
closed = 1;
nodes = (
"188 656 LINE",
"708 656 LINE",
"708 64 LINE",
"188 64 LINE"
);
},
{
closed = 1;
nodes = (
"274 481 LINE",
"407 348 LINE",
"274 215 LINE",
"319 170 LINE",
"452 303 LINE",
"585 170 LINE",
"630 215 LINE",
"497 348 LINE",
"630 481 LINE",
"585 526 LINE",
"452 393 LINE",
"319 526 LINE"
);
}
);
width = 856;
}
);
note = .notdef;
},
{
glyphname = at;
lastChange = "2018-11-26 15:58:55 +0000";
layers = (
{
hints = (
{
horizontal = 1;
place = "{-156, 80}";
type = Stem;
},
{
horizontal = 1;
place = "{36, 72}";
type = Stem;
},
{
horizontal = 1;
place = "{260, 68}";
type = Stem;
},
{
horizontal = 1;
place = "{432, 76}";
type = Stem;
},
{
horizontal = 1;
place = "{648, 84}";
type = Stem;
},
{
place = "{48, 92}";
type = Stem;
},
{
place = "{292, 80}";
type = Stem;
},
{
place = "{604, 81}";
type = Stem;
},
{
place = "{856, 88}";
type = Stem;
},
{
place = "{572, 71}";
type = Stem;
}
);
layerId = "5B01CDE3-ACDA-4D2B-9E53-A993574CFD15";
paths = (
{
closed = 1;
nodes = (
"372 404 LINE",
"380 404 LINE",
"408 416 OFFCURVE",
"452 432 OFFCURVE",
"500 432 CURVE SMOOTH",
"585 432 OFFCURVE",
"616 399 OFFCURVE",
"600 320 CURVE",
"599 316 LINE",
"581 322 OFFCURVE",
"555 328 OFFCURVE",
"508 328 CURVE SMOOTH",
"374 328 OFFCURVE",
"292 268 OFFCURVE",
"292 172 CURVE SMOOTH",
"292 76 OFFCURVE",
"374 36 OFFCURVE",
"504 36 CURVE SMOOTH",
"764 36 OFFCURVE",
"944 160 OFFCURVE",
"944 408 CURVE SMOOTH",
"944 604 OFFCURVE",
"792 732 OFFCURVE",
"556 732 CURVE SMOOTH",
"264 732 OFFCURVE",
"48 536 OFFCURVE",
"48 224 CURVE SMOOTH",
"48 -32 OFFCURVE",
"228 -156 OFFCURVE",
"476 -156 CURVE SMOOTH",
"544 -156 OFFCURVE",
"610 -144 OFFCURVE",
"650 -128 CURVE",
"664 -42 LINE",
"656 -42 LINE",
"612 -62 OFFCURVE",
"544 -76 OFFCURVE",
"480 -76 CURVE SMOOTH",
"284 -76 OFFCURVE",
"140 16 OFFCURVE",
"140 224 CURVE SMOOTH",
"140 492 OFFCURVE",
"320 648 OFFCURVE",
"552 648 CURVE SMOOTH",
"732 648 OFFCURVE",
"856 556 OFFCURVE",
"856 404 CURVE SMOOTH",
"856 237 OFFCURVE",
"771 153 OFFCURVE",
"643 122 CURVE",
"648 153 OFFCURVE",
"656 190 OFFCURVE",
"660 212 CURVE SMOOTH",
"680 320 LINE SMOOTH",
"703 445 OFFCURVE",
"647 508 OFFCURVE",
"520 508 CURVE SMOOTH",
"468 508 OFFCURVE",
"424 496 OFFCURVE",
"386 480 CURVE"
);
},
{
closed = 1;
nodes = (
"420 108 OFFCURVE",
"372 124 OFFCURVE",
"372 176 CURVE SMOOTH",
"372 230 OFFCURVE",
"416 260 OFFCURVE",
"504 260 CURVE SMOOTH",
"538 260 OFFCURVE",
"565 255 OFFCURVE",
"586 248 CURVE",
"572 172 LINE SMOOTH",
"568 149 OFFCURVE",
"567 128 OFFCURVE",
"569 110 CURVE",
"549 109 OFFCURVE",
"529 108 OFFCURVE",
"508 108 CURVE SMOOTH"
);
}
);
width = 966;
},
{
hints = (
{
horizontal = 1;
place = "{-188, 120}";
type = Stem;
},
{
horizontal = 1;
place = "{32, 112}";
type = Stem;
},
{
horizontal = 1;
place = "{224, 92}";
type = Stem;
},
{
horizontal = 1;
place = "{380, 124}";
type = Stem;
},
{
horizontal = 1;
place = "{620, 120}";
type = Stem;
},
{
place = "{36, 132}";
type = Stem;
},
{
place = "{288, 156}";
type = Stem;
},
{
place = "{543, 186}";
type = Stem;
},
{
place = "{860, 128}";
type = Stem;
}
);
layerId = "FA792B6B-505C-4DC3-9C40-F9BEDA01661E";
paths = (
{
closed = 1;
nodes = (
"364 360 LINE",
"372 360 LINE",
"400 370 OFFCURVE",
"436 380 OFFCURVE",
"476 380 CURVE SMOOTH",
"543 380 OFFCURVE",
"571 364 OFFCURVE",
"560 308 CURVE",
"559 306 LINE",
"546 311 OFFCURVE",
"524 316 OFFCURVE",
"492 316 CURVE SMOOTH",
"392 316 OFFCURVE",
"288 287 OFFCURVE",
"288 172 CURVE SMOOTH",
"288 80 OFFCURVE",
"368 32 OFFCURVE",
"512 32 CURVE SMOOTH",
"782 32 OFFCURVE",
"988 144 OFFCURVE",
"988 400 CURVE SMOOTH",
"988 592 OFFCURVE",
"828 740 OFFCURVE",
"564 740 CURVE SMOOTH",
"250 740 OFFCURVE",
"36 560 OFFCURVE",
"36 224 CURVE SMOOTH",
"36 -20 OFFCURVE",
"202 -188 OFFCURVE",
"470 -188 CURVE SMOOTH",
"540 -188 OFFCURVE",
"604 -180 OFFCURVE",
"656 -160 CURVE",
"676 -40 LINE",
"664 -40 LINE",
"616 -60 OFFCURVE",
"544 -68 OFFCURVE",
"478 -68 CURVE SMOOTH",
"300 -68 OFFCURVE",
"168 32 OFFCURVE",
"168 228 CURVE SMOOTH",
"168 496 OFFCURVE",
"332 620 OFFCURVE",
"560 620 CURVE SMOOTH",
"748 620 OFFCURVE",
"860 536 OFFCURVE",
"860 396 CURVE SMOOTH",
"860 263 OFFCURVE",
"794 198 OFFCURVE",
"702 168 CURVE",
"703 180 OFFCURVE",
"705 192 OFFCURVE",
"708 204 CURVE",
"724 288 LINE SMOOTH",
"753 441 OFFCURVE",
"660 504 OFFCURVE",
"526 504 CURVE SMOOTH",
"476 504 OFFCURVE",
"420 494 OFFCURVE",
"386 484 CURVE"
);
},
{
closed = 1;
nodes = (
"516 144 LINE SMOOTH",
"474 144 OFFCURVE",
"444 152 OFFCURVE",
"444 182 CURVE SMOOTH",
"444 212 OFFCURVE",
"474 224 OFFCURVE",
"512 224 CURVE SMOOTH",
"527 224 OFFCURVE",
"537 222 OFFCURVE",
"543 221 CURVE",
"539 196 OFFCURVE",
"533 167 OFFCURVE",
"539 144 CURVE"
);
}
);
width = 994;
}
);
note = at;
unicode = 0040;
},
{
glyphname = A;
lastChange = "2018-11-26 15:58:55 +0000";
layers = (
{
hints = (
{
horizontal = 1;
place = "{0, 21}";
target = up;
type = BottomGhost;
},
{
horizontal = 1;
place = "{220, 84}";
type = Stem;
},
{
horizontal = 1;
place = "{644, 84}";
type = Stem;
},
{
place = "{-2, 660}";
type = Stem;
}
);
layerId = "5B01CDE3-ACDA-4D2B-9E53-A993574CFD15";
paths = (
{
closed = 1;
nodes = (
"422 0 LINE",
"518 0 LINE",
"626 556 LINE SMOOTH",
"634 596 OFFCURVE",
"644 660 OFFCURVE",
"658 700 CURVE",
"658 712 LINE",
"608 724 OFFCURVE",
"562 728 OFFCURVE",
"514 728 CURVE SMOOTH",
"314 728 OFFCURVE",
"229 648 OFFCURVE",
"172 488 CURVE SMOOTH",
"-2 0 LINE",
"98 0 LINE",
"176 220 LINE",
"465 220 LINE"
);
},
{
closed = 1;
nodes = (
"268 480 LINE SMOOTH",
"305 584 OFFCURVE",
"362 644 OFFCURVE",
"494 644 CURVE SMOOTH",
"516 644 OFFCURVE",
"534 642 OFFCURVE",
"549 639 CURVE",
"544 626 OFFCURVE",
"541 611 OFFCURVE",
"538 596 CURVE SMOOTH",
"481 304 LINE",
"205 304 LINE"
);
}
);
width = 662;
},
{
hints = (
{
horizontal = 1;
place = "{0, 21}";
target = up;
type = BottomGhost;
},
{
horizontal = 1;
place = "{168, 168}";
type = Stem;
},
{
horizontal = 1;
place = "{552, 176}";
type = Stem;
},
{
place = "{-21, 787}";
type = Stem;
}
);
layerId = "FA792B6B-505C-4DC3-9C40-F9BEDA01661E";
paths = (
{
closed = 1;
nodes = (
"407 0 LINE",
"619 0 LINE",
"727 552 LINE SMOOTH",
"735 592 OFFCURVE",
"750 652 OFFCURVE",
"766 688 CURVE",
"758 700 LINE",
"703 716 OFFCURVE",
"639 728 OFFCURVE",
"563 728 CURVE SMOOTH",
"383 728 OFFCURVE",
"229 698 OFFCURVE",
"147 468 CURVE SMOOTH",
"-21 0 LINE",
"195 0 LINE",
"255 168 LINE",
"440 168 LINE"
);
},
{
closed = 1;
nodes = (
"359 460 LINE SMOOTH",
"382 523 OFFCURVE",
"415 552 OFFCURVE",
"491 552 CURVE SMOOTH",
"497 552 OFFCURVE",
"508 551 OFFCURVE",
"519 549 CURVE",
"513 531 OFFCURVE",
"507 510 OFFCURVE",
"503 488 CURVE SMOOTH",
"473 336 LINE",
"315 336 LINE"
);
}
);
width = 736;
}
);
leftKerningGroup = A;
note = A;
unicode = 0041;
},
{
glyphname = B;
lastChange = "2018-11-26 15:58:55 +0000";
layers = (
{
hints = (
{
horizontal = 1;
place = "{0, 84}";
type = Stem;
},
{
horizontal = 1;
place = "{280, 84}";
type = Stem;
},
{
horizontal = 1;
place = "{636, 84}";
type = Stem;
},
{
place = "{532, 96}";
type = Stem;
},
{
place = "{474, 96}";
type = Stem;
}
);
layerId = "5B01CDE3-ACDA-4D2B-9E53-A993574CFD15";
paths = (
{
closed = 1;
nodes = (
"44 0 LINE",
"338 0 LINE SMOOTH",
"493 0 OFFCURVE",
"570 104 OFFCURVE",
"570 200 CURVE SMOOTH",
"570 260 OFFCURVE",
"541 303 OFFCURVE",
"494 325 CURVE",
"583 372 OFFCURVE",
"628 465 OFFCURVE",
"628 548 CURVE SMOOTH",
"628 664 OFFCURVE",
"562 720 OFFCURVE",
"418 720 CURVE SMOOTH",
"184 720 LINE"
);
},
{
closed = 1;
nodes = (
"418 636 LINE SMOOTH",
"490 636 OFFCURVE",
"532 612 OFFCURVE",
"532 544 CURVE SMOOTH",
"532 456 OFFCURVE",
"470 364 OFFCURVE",
"362 364 CURVE SMOOTH",
"210 364 LINE",
"263 636 LINE"
);
},
{
closed = 1;
nodes = (
"376 280 LINE SMOOTH",
"436 280 OFFCURVE",
"474 256 OFFCURVE",
"474 204 CURVE SMOOTH",
"474 124 OFFCURVE",
"410 84 OFFCURVE",
"338 84 CURVE SMOOTH",
"156 84 LINE",
"194 280 LINE"
);
}
);
width = 640;
},
{
hints = (
{
horizontal = 1;
place = "{0, 164}";
type = Stem;
},
{
horizontal = 1;
place = "{256, 148}";
type = Stem;
},
{
horizontal = 1;
place = "{548, 172}";
type = Stem;
},
{
place = "{448, 208}";
type = Stem;
},
{
place = "{488, 208}";
type = Stem;
}
);
layerId = "FA792B6B-505C-4DC3-9C40-F9BEDA01661E";
paths = (
{
closed = 1;
nodes = (
"20 0 LINE",
"368 0 LINE SMOOTH",
"528 0 OFFCURVE",
"656 74 OFFCURVE",
"656 216 CURVE SMOOTH",
"656 273 OFFCURVE",
"630 314 OFFCURVE",
"579 337 CURVE",
"653 381 OFFCURVE",
"696 449 OFFCURVE",
"696 536 CURVE SMOOTH",
"696 632 OFFCURVE",
"624 720 OFFCURVE",
"456 720 CURVE SMOOTH",
"160 720 LINE"
);
},
{
closed = 1;
nodes = (
"424 548 LINE SMOOTH",
"456 548 OFFCURVE",
"488 536 OFFCURVE",
"488 492 CURVE SMOOTH",
"488 444 OFFCURVE",
"452 404 OFFCURVE",
"400 404 CURVE SMOOTH",
"311 404 LINE",
"339 548 LINE"
);
},
{
closed = 1;
nodes = (
"408 256 LINE SMOOTH",
"436 256 OFFCURVE",
"448 240 OFFCURVE",
"448 220 CURVE SMOOTH",
"448 188 OFFCURVE",
"424 164 OFFCURVE",
"392 164 CURVE SMOOTH",
"264 164 LINE",
"282 256 LINE"
);
}
);
width = 704;
}
);
leftKerningGroup = B;
note = B;
rightKerningGroup = B;
unicode = 0042;
},
{
glyphname = C;
lastChange = "2018-11-26 15:58:55 +0000";
layers = (
{
hints = (
{
horizontal = 1;
place = "{-12, 88}";
type = Stem;
},
{
horizontal = 1;
place = "{644, 88}";
type = Stem;
},
{
place = "{68, 100}";
type = Stem;
}
);
layerId = "5B01CDE3-ACDA-4D2B-9E53-A993574CFD15";
paths = (
{
closed = 1;
nodes = (
"68 104 OFFCURVE",
"172 -12 OFFCURVE",
"376 -12 CURVE SMOOTH",
"436 -12 OFFCURVE",
"492 0 OFFCURVE",
"532 20 CURVE",
"552 112 LINE",
"544 112 LINE",
"500 88 OFFCURVE",
"444 76 OFFCURVE",
"384 76 CURVE SMOOTH",
"248 76 OFFCURVE",
"168 140 OFFCURVE",
"168 296 CURVE SMOOTH",
"168 476 OFFCURVE",
"278 644 OFFCURVE",
"472 644 CURVE SMOOTH",
"548 644 OFFCURVE",
"592 632 OFFCURVE",
"630 608 CURVE",
"638 608 LINE",
"656 700 LINE",
"616 720 OFFCURVE",
"544 732 OFFCURVE",
"484 732 CURVE SMOOTH",
"208 732 OFFCURVE",
"68 512 OFFCURVE",
"68 296 CURVE SMOOTH"
);
}
);
width = 648;
},
{
hints = (
{
horizontal = 1;
place = "{-12, 176}";
type = Stem;
},
{
horizontal = 1;
place = "{556, 176}";
type = Stem;
},
{
place = "{48, 216}";
type = Stem;
}
);
layerId = "FA792B6B-505C-4DC3-9C40-F9BEDA01661E";
paths = (
{
closed = 1;
nodes = (
"48 110 OFFCURVE",
"172 -12 OFFCURVE",
"414 -12 CURVE SMOOTH",
"474 -12 OFFCURVE",
"520 0 OFFCURVE",
"556 12 CURVE",
"588 188 LINE",
"576 188 LINE",
"546 174 OFFCURVE",
"496 164 OFFCURVE",
"444 164 CURVE SMOOTH",
"314 164 OFFCURVE",
"264 230 OFFCURVE",
"264 326 CURVE SMOOTH",
"264 451 OFFCURVE",
"344 556 OFFCURVE",
"508 556 CURVE SMOOTH",
"572 556 OFFCURVE",
"614 542 OFFCURVE",
"640 528 CURVE",
"652 528 LINE",
"686 708 LINE",
"660 720 OFFCURVE",
"592 732 OFFCURVE",
"508 732 CURVE SMOOTH",
"224 732 OFFCURVE",
"48 556 OFFCURVE",
"48 314 CURVE SMOOTH"
);
}
);
width = 648;
}
);
leftKerningGroup = C;
note = C;
rightKerningGroup = C;
unicode = 0043;
},
{
glyphname = D;
lastChange = "2018-11-26 15:58:55 +0000";
layers = (
{
hints = (
{
horizontal = 1;
place = "{0, 84}";
type = Stem;
},
{
horizontal = 1;
place = "{636, 84}";
type = Stem;
},
{
place = "{592, 100}";
type = Stem;
}
);
layerId = "5B01CDE3-ACDA-4D2B-9E53-A993574CFD15";
paths = (
{
closed = 1;
nodes = (
"44 0 LINE",
"278 0 LINE SMOOTH",
"554 0 OFFCURVE",
"692 256 OFFCURVE",
"692 460 CURVE SMOOTH",
"692 628 OFFCURVE",
"588 720 OFFCURVE",
"408 720 CURVE SMOOTH",
"184 720 LINE"
);
},
{
closed = 1;
nodes = (
"408 636 LINE SMOOTH",
"528 636 OFFCURVE",
"592 580 OFFCURVE",
"592 456 CURVE SMOOTH",
"592 320 OFFCURVE",
"502 84 OFFCURVE",
"278 84 CURVE SMOOTH",
"156 84 LINE",
"263 636 LINE"
);
}
);
width = 720;
},
{
hints = (
{
horizontal = 1;
place = "{0, 184}";
type = Stem;
},
{
horizontal = 1;
place = "{536, 184}";
type = Stem;
},
{
place = "{552, 216}";
type = Stem;
}
);
layerId = "FA792B6B-505C-4DC3-9C40-F9BEDA01661E";
paths = (
{
closed = 1;
nodes = (
"20 0 LINE",
"328 0 LINE SMOOTH",
"628 0 OFFCURVE",
"768 220 OFFCURVE",
"768 432 CURVE SMOOTH",
"768 628 OFFCURVE",
"640 720 OFFCURVE",
"420 720 CURVE SMOOTH",
"156 720 LINE"
);
},
{
closed = 1;
nodes = (
"400 536 LINE SMOOTH",
"512 536 OFFCURVE",
"552 500 OFFCURVE",
"552 420 CURVE SMOOTH",
"552 284 OFFCURVE",
"468 184 OFFCURVE",
"336 184 CURVE SMOOTH",
"267 184 LINE",
"333 536 LINE"
);
}
);
width = 776;
}
);
leftKerningGroup = B;
note = D;
rightKerningGroup = D;
unicode = 0044;
},
{
glyphname = E;
lastChange = "2018-11-26 15:58:55 +0000";
layers = (
{
hints = (
{
horizontal = 1;
place = "{0, 84}";
type = Stem;
},
{
horizontal = 1;
place = "{336, 84}";
type = Stem;
},
{
horizontal = 1;
place = "{636, 84}";
type = Stem;
},
{
place = "{44, 594}";
type = Stem;
}
);
layerId = "5B01CDE3-ACDA-4D2B-9E53-A993574CFD15";
paths = (
{
closed = 1;
nodes = (
"44 0 LINE",
"510 0 LINE",
"526 84 LINE",
"156 84 LINE",
"205 336 LINE",
"510 336 LINE",
"526 420 LINE",
"222 420 LINE",
"264 636 LINE",
"622 636 LINE",
"638 720 LINE",
"184 720 LINE"
);
}
);
width = 616;
},
{
hints = (
{
horizontal = 1;
place = "{0, 184}";
type = Stem;
},
{
horizontal = 1;
place = "{268, 172}";
type = Stem;
},
{
horizontal = 1;
place = "{536, 184}";
type = Stem;
},
{
place = "{20, 624}";
type = Stem;
}
);
layerId = "FA792B6B-505C-4DC3-9C40-F9BEDA01661E";
paths = (
{
closed = 1;
nodes = (
"20 0 LINE",
"512 0 LINE",
"546 184 LINE",
"267 184 LINE",
"283 268 LINE",
"508 268 LINE",
"540 440 LINE",
"315 440 LINE",
"333 536 LINE",
"610 536 LINE",
"644 720 LINE",
"156 720 LINE"
);
}
);
width = 612;
}
);
leftKerningGroup = B;
note = E;
rightKerningGroup = E;
unicode = 0045;
},
{
glyphname = F;
lastChange = "2018-11-26 15:58:55 +0000";
layers = (
{
hints = (
{
horizontal = 1;
place = "{0, 21}";
target = up;
type = BottomGhost;
},
{
horizontal = 1;
place = "{280, 84}";
type = Stem;
},
{
horizontal = 1;
place = "{636, 84}";
type = Stem;
},
{
place = "{44, 582}";
type = Stem;
}
);
layerId = "5B01CDE3-ACDA-4D2B-9E53-A993574CFD15";
paths = (
{
closed = 1;
nodes = (
"44 0 LINE",
"140 0 LINE",
"194 280 LINE",
"486 280 LINE",
"502 364 LINE",
"211 364 LINE",
"263 636 LINE",
"610 636 LINE",
"626 720 LINE",
"184 720 LINE"
);
}
);
width = 572;
},
{
hints = (
{
horizontal = 1;
place = "{0, 21}";
target = up;
type = BottomGhost;
},
{
horizontal = 1;
place = "{216, 172}";
type = Stem;
},
{
horizontal = 1;
place = "{536, 184}";
type = Stem;
},
{
place = "{20, 622}";
type = Stem;
}
);
layerId = "FA792B6B-505C-4DC3-9C40-F9BEDA01661E";
paths = (
{
closed = 1;
nodes = (
"20 0 LINE",
"232 0 LINE",
"273 216 LINE",
"500 216 LINE",
"532 388 LINE",
"305 388 LINE",
"333 536 LINE",
"608 536 LINE",
"642 720 LINE",
"156 720 LINE"
);
}
);
width = 588;
}
);
leftKerningGroup = B;
note = F;
rightKerningGroup = F;
unicode = 0046;
},
{
glyphname = G;
lastChange = "2018-11-26 15:58:55 +0000";
layers = (
{
hints = (
{
horizontal = 1;
place = "{-12, 84}";
type = Stem;
},
{
horizontal = 1;
place = "{644, 88}";
type = Stem;
},
{
place = "{70, 100}";
type = Stem;
}
);
layerId = "5B01CDE3-ACDA-4D2B-9E53-A993574CFD15";
paths = (
{
closed = 1;
nodes = (
"70 104 OFFCURVE",
"174 -12 OFFCURVE",
"378 -12 CURVE SMOOTH",
"438 -12 OFFCURVE",
"514 0 OFFCURVE",
"560 24 CURVE",
"626 364 LINE",
"530 364 LINE",
"476 84 LINE",
"448 76 OFFCURVE",
"417 72 OFFCURVE",
"386 72 CURVE SMOOTH",
"250 72 OFFCURVE",
"170 140 OFFCURVE",
"170 296 CURVE SMOOTH",
"170 484 OFFCURVE",
"282 644 OFFCURVE",
"484 644 CURVE SMOOTH",
"560 644 OFFCURVE",
"614 627 OFFCURVE",
"652 608 CURVE",
"660 608 LINE",
"678 700 LINE",
"638 720 OFFCURVE",
"556 732 OFFCURVE",
"496 732 CURVE SMOOTH",
"214 732 OFFCURVE",
"70 520 OFFCURVE",
"70 296 CURVE SMOOTH"
);
}
);
width = 684;
},
{
hints = (
{
horizontal = 1;
place = "{-12, 172}";
type = Stem;
},
{
horizontal = 1;
place = "{556, 176}";
type = Stem;
},
{
place = "{48, 216}";
type = Stem;
}
);
layerId = "FA792B6B-505C-4DC3-9C40-F9BEDA01661E";
paths = (
{
closed = 1;
nodes = (
"48 104 OFFCURVE",
"168 -12 OFFCURVE",
"424 -12 CURVE SMOOTH",
"480 -12 OFFCURVE",
"568 0 OFFCURVE",
"618 20 CURVE",
"684 368 LINE",
"490 368 LINE",
"451 166 LINE",
"438 162 OFFCURVE",
"423 160 OFFCURVE",
"408 160 CURVE SMOOTH",
"300 160 OFFCURVE",
"264 230 OFFCURVE",
"264 320 CURVE SMOOTH",
"264 456 OFFCURVE",
"348 556 OFFCURVE",
"518 556 CURVE SMOOTH",
"588 556 OFFCURVE",
"646 538 OFFCURVE",
"672 524 CURVE",
"684 524 LINE",
"718 704 LINE",
"676 720 OFFCURVE",
"612 732 OFFCURVE",
"512 732 CURVE SMOOTH",
"222 732 OFFCURVE",
"48 556 OFFCURVE",
"48 314 CURVE SMOOTH"
);
}
);
width = 724;
}
);
leftKerningGroup = C;
note = G;
rightKerningGroup = G;
unicode = 0047;
},
{
glyphname = H;
lastChange = "2018-11-26 15:58:55 +0000";
layers = (
{
hints = (
{
horizontal = 1;
place = "{0, 21}";
target = up;
type = BottomGhost;
},
{
horizontal = 1;
place = "{332, 84}";
type = Stem;
},
{
horizontal = 1;
place = "{720, -20}";
target = down;
type = TopGhost;
},
{
place = "{44, 684}";
type = Stem;
}
);
layerId = "5B01CDE3-ACDA-4D2B-9E53-A993574CFD15";
paths = (
{
closed = 1;
nodes = (
"44 0 LINE",
"140 0 LINE",
"204 332 LINE",
"556 332 LINE",
"492 0 LINE",
"588 0 LINE",
"728 720 LINE",
"632 720 LINE",
"573 416 LINE",
"221 416 LINE",
"280 720 LINE",
"184 720 LINE"
);
}
);
width = 736;
},
{
hints = (
{
horizontal = 1;
place = "{0, 21}";
target = up;
type = BottomGhost;
},
{
horizontal = 1;
place = "{264, 184}";
type = Stem;
},
{
horizontal = 1;
place = "{720, -20}";
target = down;
type = TopGhost;
},
{
place = "{20, 788}";
type = Stem;
}
);
layerId = "FA792B6B-505C-4DC3-9C40-F9BEDA01661E";
paths = (
{
closed = 1;
nodes = (
"20 0 LINE",
"232 0 LINE",
"283 264 LINE",
"507 264 LINE",
"456 0 LINE",
"668 0 LINE",
"808 720 LINE",
"596 720 LINE",
"543 448 LINE",
"319 448 LINE",
"372 720 LINE",
"160 720 LINE"
);
}
);
width = 784;
}
);
leftKerningGroup = B;
note = H;
unicode = 0048;
},
{
glyphname = I;
lastChange = "2018-11-26 15:58:55 +0000";
layers = (
{
hints = (
{
horizontal = 1;
place = "{0, 21}";
target = up;
type = BottomGhost;
},
{
horizontal = 1;
place = "{720, -20}";
target = down;
type = TopGhost;
},
{
place = "{44, 236}";
type = Stem;
}
);
layerId = "5B01CDE3-ACDA-4D2B-9E53-A993574CFD15";
paths = (
{
closed = 1;
nodes = (
"44 0 LINE",
"140 0 LINE",
"280 720 LINE",
"184 720 LINE"
);
}
);
width = 288;
},
{
hints = (
{
horizontal = 1;
place = "{0, 21}";
target = up;
type = BottomGhost;
},
{
horizontal = 1;
place = "{720, -20}";
target = down;
type = TopGhost;
},
{
place = "{20, 352}";
type = Stem;
}
);
layerId = "FA792B6B-505C-4DC3-9C40-F9BEDA01661E";
paths = (
{
closed = 1;
nodes = (
"20 0 LINE",
"232 0 LINE",
"372 720 LINE",
"160 720 LINE"
);
}
);
width = 348;
}
);
leftKerningGroup = B;
note = I;
unicode = 0049;
},
{
glyphname = J;
lastChange = "2018-11-26 15:58:55 +0000";
layers = (
{
hints = (
{
horizontal = 1;
place = "{-12, 84}";
type = Stem;
},
{
horizontal = 1;
place = "{720, -20}";
target = down;
type = TopGhost;
},
{
place = "{-36, 460}";
type = Stem;
}
);
layerId = "5B01CDE3-ACDA-4D2B-9E53-A993574CFD15";
paths = (
{
closed = 1;
nodes = (
"208 -12 OFFCURVE",
"294 52 OFFCURVE",
"322 194 CURVE SMOOTH",
"424 720 LINE",
"328 720 LINE",
"226 194 LINE SMOOTH",
"207 100 OFFCURVE",
"156 72 OFFCURVE",
"76 72 CURVE SMOOTH",
"40 72 OFFCURVE",
"4 80 OFFCURVE",
"-12 88 CURVE",
"-20 88 LINE",
"-36 4 LINE",
"-12 -4 OFFCURVE",
"24 -12 OFFCURVE",
"72 -12 CURVE SMOOTH"
);
}
);
width = 412;
},
{
hints = (
{
horizontal = 1;
place = "{-12, 172}";
type = Stem;
},
{
horizontal = 1;
place = "{720, -20}";
target = down;
type = TopGhost;
},
{
place = "{-24, 532}";
type = Stem;
}
);
layerId = "FA792B6B-505C-4DC3-9C40-F9BEDA01661E";
paths = (
{
closed = 1;
nodes = (
"272 -12 OFFCURVE",
"385 64 OFFCURVE",
"420 252 CURVE SMOOTH",
"508 720 LINE",
"296 720 LINE",
"210 264 LINE SMOOTH",
"196 192 OFFCURVE",
"152 160 OFFCURVE",
"80 160 CURVE SMOOTH",
"52 160 OFFCURVE",
"36 166 OFFCURVE",
"20 176 CURVE",
"8 176 LINE",
"-24 4 LINE",
"2 -4 OFFCURVE",
"60 -12 OFFCURVE",
"100 -12 CURVE SMOOTH"
);
}
);
width = 484;
}
);
leftKerningGroup = J;
note = J;
rightKerningGroup = J;
unicode = 004A;
},
{
glyphname = K;
lastChange = "2018-11-26 15:58:55 +0000";
layers = (
{
hints = (
{
horizontal = 1;
place = "{0, 21}";
target = up;
type = BottomGhost;
},
{
horizontal = 1;
place = "{280, 84}";
type = Stem;
},
{
horizontal = 1;
place = "{720, -20}";
target = down;
type = TopGhost;
},
{
place = "{44, 662}";
type = Stem;
}
);
layerId = "5B01CDE3-ACDA-4D2B-9E53-A993574CFD15";
paths = (
{
closed = 1;
nodes = (
"456 0 LINE",
"562 0 LINE",
"562 8 LINE",
"421 326 LINE",
"454 350 OFFCURVE",
"484 382 OFFCURVE",
"510 420 CURVE SMOOTH",
"706 712 LINE",
"706 720 LINE",
"604 720 LINE",
"424 448 LINE SMOOTH",
"392 400 OFFCURVE",
"352 364 OFFCURVE",
"282 364 CURVE SMOOTH",
"211 364 LINE",
"280 720 LINE",
"184 720 LINE",
"44 0 LINE",
"140 0 LINE",
"194 280 LINE",
"278 280 LINE SMOOTH",
"298 280 OFFCURVE",
"318 282 OFFCURVE",
"337 287 CURVE"
);
}
);
width = 672;
},
{
hints = (
{
horizontal = 1;
place = "{0, 21}";
target = up;
type = BottomGhost;
},
{
horizontal = 1;
place = "{232, 180}";
type = Stem;
},
{
horizontal = 1;
place = "{720, -20}";
target = down;
type = TopGhost;
},
{
place = "{20, 760}";
type = Stem;
}
);
layerId = "FA792B6B-505C-4DC3-9C40-F9BEDA01661E";
paths = (
{
closed = 1;
nodes = (
"436 0 LINE",
"652 0 LINE",
"652 12 LINE",
"526 300 LINE",
"582 343 OFFCURVE",
"615 397 OFFCURVE",
"636 436 CURVE SMOOTH",
"780 708 LINE",
"780 720 LINE",
"572 720 LINE",
"460 492 LINE SMOOTH",
"437 444 OFFCURVE",
"396 412 OFFCURVE",
"332 412 CURVE SMOOTH",
"312 412 LINE",
"372 720 LINE",
"160 720 LINE",
"20 0 LINE",
"232 0 LINE",
"277 232 LINE",
"312 232 LINE SMOOTH",
"323 232 OFFCURVE",
"334 232 OFFCURVE",
"344 233 CURVE"
);
}
);
width = 724;
}
);
leftKerningGroup = B;
note = K;
rightKerningGroup = K;
unicode = 004B;
},
{
glyphname = L;
lastChange = "2018-11-26 15:58:55 +0000";
layers = (
{
hints = (
{
horizontal = 1;
place = "{0, 84}";
type = Stem;
},
{
horizontal = 1;
place = "{720, -20}";
target = down;
type = TopGhost;
},
{
place = "{44, 422}";
type = Stem;
}
);
layerId = "5B01CDE3-ACDA-4D2B-9E53-A993574CFD15";
paths = (
{
closed = 1;
nodes = (
"44 0 LINE",
"450 0 LINE",
"466 84 LINE",
"156 84 LINE",
"280 720 LINE",
"184 720 LINE"
);
}
);
width = 532;
},
{
hints = (
{
horizontal = 1;
place = "{0, 184}";
type = Stem;
},
{
horizontal = 1;
place = "{720, -20}";
target = down;
type = TopGhost;
},
{
place = "{20, 508}";
type = Stem;
}
);
layerId = "FA792B6B-505C-4DC3-9C40-F9BEDA01661E";
paths = (
{
closed = 1;
nodes = (
"20 0 LINE",
"492 0 LINE",
"528 184 LINE",
"268 184 LINE",
"372 720 LINE",
"160 720 LINE"
);
}
);
width = 572;
}
);
leftKerningGroup = B;
note = L;
rightKerningGroup = L;
unicode = 004C;
},
{
glyphname = M;
lastChange = "2018-11-26 15:58:55 +0000";
layers = (
{
hints = (
{
horizontal = 1;
place = "{0, 21}";
target = up;
type = BottomGhost;
},
{
horizontal = 1;
place = "{720, -20}";
target = down;
type = TopGhost;
},
{
place = "{44, 768}";
type = Stem;
}
);
layerId = "5B01CDE3-ACDA-4D2B-9E53-A993574CFD15";
paths = (
{
closed = 1;
nodes = (
"44 0 LINE",
"140 0 LINE",
"243 532 LINE",
"370 248 LINE",
"446 248 LINE",
"678 526 LINE",
"576 0 LINE",
"672 0 LINE",
"812 720 LINE",
"732 720 LINE",
"428 352 LINE",
"264 720 LINE",
"184 720 LINE"
);
}
);
width = 820;
},
{
hints = (
{
horizontal = 1;
place = "{0, 21}";
target = up;
type = BottomGhost;
},
{
horizontal = 1;
place = "{720, -20}";
target = down;
type = TopGhost;
},
{
place = "{20, 900}";
type = Stem;
}
);
layerId = "FA792B6B-505C-4DC3-9C40-F9BEDA01661E";
paths = (
{
closed = 1;
nodes = (
"20 0 LINE",
"232 0 LINE",
"296 342 LINE",
"380 124 LINE",
"480 124 LINE",
"633 325 LINE",
"572 0 LINE",
"784 0 LINE",
"920 720 LINE",
"736 720 LINE",
"470 373 LINE",
"336 720 LINE",
"156 720 LINE"
);
}
);
width = 896;
}
);
note = M;
unicode = 004D;
},
{
glyphname = N;
lastChange = "2018-11-26 15:58:55 +0000";
layers = (
{
hints = (
{
horizontal = 1;
place = "{0, 21}";
target = up;
type = BottomGhost;
},
{
horizontal = 1;
place = "{720, -20}";
target = down;
type = TopGhost;
},
{
place = "{44, 684}";
type = Stem;
}
);
layerId = "5B01CDE3-ACDA-4D2B-9E53-A993574CFD15";
paths = (
{
closed = 1;
nodes = (
"44 0 LINE",
"140 0 LINE",
"250 575 LINE",
"530 196 LINE",
"492 0 LINE",
"588 0 LINE",
"728 720 LINE",
"632 720 LINE",
"554 321 LINE",
"260 720 LINE",
"184 720 LINE"
);
}
);
width = 736;
},
{
hints = (
{
horizontal = 1;
place = "{0, 21}";
target = up;
type = BottomGhost;
},
{
horizontal = 1;
place = "{720, -20}";
target = down;
type = TopGhost;
},
{
place = "{20, 792}";
type = Stem;
}
);
layerId = "FA792B6B-505C-4DC3-9C40-F9BEDA01661E";
paths = (
{
closed = 1;
nodes = (
"20 0 LINE",
"232 0 LINE",
"310 418 LINE",
"497 175 LINE",
"464 0 LINE",
"676 0 LINE",
"812 720 LINE",
"600 720 LINE",
"546 434 LINE",
"324 720 LINE",
"156 720 LINE"
);
}
);
width = 788;
}
);
leftKerningGroup = B;
note = N;
unicode = 004E;
},
{
glyphname = O;
lastChange = "2018-11-26 15:58:55 +0000";
layers = (
{
hints = (
{
horizontal = 1;
place = "{-12, 88}";
type = Stem;
},
{
horizontal = 1;
place = "{644, 88}";
type = Stem;
},
{
place = "{68, 100}";
type = Stem;
},
{
place = "{656, 100}";
type = Stem;
}
);
layerId = "5B01CDE3-ACDA-4D2B-9E53-A993574CFD15";
paths = (
{
closed = 1;
nodes = (
"68 104 OFFCURVE",
"176 -12 OFFCURVE",
"364 -12 CURVE SMOOTH",
"628 -12 OFFCURVE",
"756 228 OFFCURVE",
"756 436 CURVE SMOOTH",
"756 616 OFFCURVE",
"648 732 OFFCURVE",
"460 732 CURVE SMOOTH",
"200 732 OFFCURVE",
"68 492 OFFCURVE",
"68 284 CURVE SMOOTH"
);
},
{
closed = 1;
nodes = (
"168 452 OFFCURVE",
"260 644 OFFCURVE",
"456 644 CURVE SMOOTH",
"576 644 OFFCURVE",
"656 576 OFFCURVE",
"656 436 CURVE SMOOTH",
"656 268 OFFCURVE",
"564 76 OFFCURVE",
"368 76 CURVE SMOOTH",
"248 76 OFFCURVE",
"168 144 OFFCURVE",
"168 284 CURVE SMOOTH"
);
}
);
width = 784;
},
{
hints = (
{
horizontal = 1;
place = "{-12, 176}";
type = Stem;
},
{
horizontal = 1;
place = "{556, 176}";
type = Stem;
},
{
place = "{48, 216}";
type = Stem;
},
{
place = "{608, 216}";
type = Stem;
}
);
layerId = "FA792B6B-505C-4DC3-9C40-F9BEDA01661E";
paths = (
{
closed = 1;
nodes = (
"48 104 OFFCURVE",
"176 -12 OFFCURVE",
"392 -12 CURVE SMOOTH",
"660 -12 OFFCURVE",
"824 182 OFFCURVE",
"824 416 CURVE SMOOTH",
"824 608 OFFCURVE",
"696 732 OFFCURVE",
"480 732 CURVE SMOOTH",
"212 732 OFFCURVE",
"48 530 OFFCURVE",
"48 304 CURVE SMOOTH"
);
},
{
closed = 1;
nodes = (
"264 412 OFFCURVE",
"328 556 OFFCURVE",
"468 556 CURVE SMOOTH",
"552 556 OFFCURVE",
"608 508 OFFCURVE",
"608 404 CURVE SMOOTH",
"608 308 OFFCURVE",
"544 164 OFFCURVE",
"404 164 CURVE SMOOTH",
"320 164 OFFCURVE",
"264 212 OFFCURVE",
"264 316 CURVE SMOOTH"
);
}
);
width = 832;
}
);
leftKerningGroup = C;
note = O;
rightKerningGroup = D;
unicode = 004F;
},
{
glyphname = P;
lastChange = "2018-11-26 15:58:55 +0000";
layers = (
{
hints = (
{
horizontal = 1;
place = "{0, 21}";
target = up;
type = BottomGhost;
},
{
horizontal = 1;
place = "{240, 84}";
type = Stem;
},
{
horizontal = 1;
place = "{636, 84}";
type = Stem;
},
{
place = "{532, 100}";
type = Stem;
}
);
layerId = "5B01CDE3-ACDA-4D2B-9E53-A993574CFD15";
paths = (
{
closed = 1;
nodes = (
"44 0 LINE",
"140 0 LINE",
"186 240 LINE",
"330 240 LINE SMOOTH",
"522 240 OFFCURVE",
"632 388 OFFCURVE",
"632 532 CURVE SMOOTH",
"632 656 OFFCURVE",
"550 720 OFFCURVE",
"422 720 CURVE SMOOTH",
"184 720 LINE"
);
},
{
closed = 1;
nodes = (
"418 636 LINE SMOOTH",
"486 636 OFFCURVE",
"532 604 OFFCURVE",
"532 532 CURVE SMOOTH",
"532 420 OFFCURVE",
"454 324 OFFCURVE",
"326 324 CURVE SMOOTH",
"203 324 LINE",
"263 636 LINE"
);
}
);
width = 620;
},
{
hints = (
{
horizontal = 1;
place = "{0, 21}";
target = up;
type = BottomGhost;
},
{
horizontal = 1;
place = "{160, 168}";
type = Stem;
},
{
horizontal = 1;
place = "{544, 176}";
type = Stem;
},
{
place = "{512, 212}";
type = Stem;
}
);
layerId = "FA792B6B-505C-4DC3-9C40-F9BEDA01661E";
paths = (
{
closed = 1;
nodes = (
"20 0 LINE",
"232 0 LINE",
"262 160 LINE",
"368 160 LINE SMOOTH",
"572 160 OFFCURVE",
"724 304 OFFCURVE",
"724 480 CURVE SMOOTH",
"724 644 OFFCURVE",
"620 720 OFFCURVE",
"440 720 CURVE SMOOTH",
"156 720 LINE"
);
},
{
closed = 1;
nodes = (
"424 544 LINE SMOOTH",
"476 544 OFFCURVE",
"512 520 OFFCURVE",
"512 464 CURVE SMOOTH",
"512 396 OFFCURVE",
"464 328 OFFCURVE",
"368 328 CURVE SMOOTH",
"294 328 LINE",
"335 544 LINE"
);
}
);
width = 712;
}
);
leftKerningGroup = B;
note = P;
rightKerningGroup = P;
unicode = 0050;
},
{
glyphname = Q;
lastChange = "2018-11-26 15:58:55 +0000";
layers = (
{
hints = (
{
horizontal = 1;
place = "{-160, 8}";
type = Stem;
},
{
horizontal = 1;
place = "{-12, 88}";
type = Stem;
},
{
horizontal = 1;
place = "{644, 88}";
type = Stem;
},
{
place = "{68, 100}";
type = Stem;
},
{
place = "{656, 100}";
type = Stem;
}
);
layerId = "5B01CDE3-ACDA-4D2B-9E53-A993574CFD15";
paths = (
{
closed = 1;
nodes = (
"68 104 OFFCURVE",
"176 -12 OFFCURVE",
"364 -12 CURVE SMOOTH",
"402 -12 OFFCURVE",
"436 -7 OFFCURVE",
"469 2 CURVE",
"628 -160 LINE",
"760 -160 LINE",
"760 -152 LINE",
"561 43 LINE",
"692 126 OFFCURVE",
"756 289 OFFCURVE",
"756 436 CURVE SMOOTH",
"756 616 OFFCURVE",
"648 732 OFFCURVE",
"460 732 CURVE SMOOTH",
"200 732 OFFCURVE",
"68 492 OFFCURVE",
"68 284 CURVE SMOOTH"
);
},
{
closed = 1;
nodes = (
"168 452 OFFCURVE",
"260 644 OFFCURVE",
"456 644 CURVE SMOOTH",
"576 644 OFFCURVE",
"656 576 OFFCURVE",
"656 436 CURVE SMOOTH",
"656 268 OFFCURVE",
"564 76 OFFCURVE",
"368 76 CURVE SMOOTH",
"248 76 OFFCURVE",
"168 144 OFFCURVE",
"168 284 CURVE SMOOTH"
);
}
);
width = 784;
},
{
hints = (
{
horizontal = 1;
place = "{-12, 176}";
type = Stem;
},
{
horizontal = 1;
place = "{556, 176}";
type = Stem;
},
{
place = "{48, 216}";
type = Stem;
},
{
place = "{608, 216}";
type = Stem;
}
);
layerId = "FA792B6B-505C-4DC3-9C40-F9BEDA01661E";
paths = (
{
closed = 1;
nodes = (
"48 104 OFFCURVE",
"176 -12 OFFCURVE",
"392 -12 CURVE SMOOTH",
"402 -12 OFFCURVE",
"411 -11 OFFCURVE",
"421 -11 CURVE",
"548 -160 LINE",
"788 -160 LINE",
"788 -148 LINE",
"617 43 LINE",
"749 117 OFFCURVE",
"824 257 OFFCURVE",
"824 416 CURVE SMOOTH",
"824 608 OFFCURVE",
"696 732 OFFCURVE",
"480 732 CURVE SMOOTH",
"212 732 OFFCURVE",
"48 530 OFFCURVE",
"48 304 CURVE SMOOTH"
);
},
{
closed = 1;
nodes = (
"264 412 OFFCURVE",
"328 556 OFFCURVE",
"468 556 CURVE SMOOTH",
"552 556 OFFCURVE",
"608 508 OFFCURVE",
"608 404 CURVE SMOOTH",
"608 308 OFFCURVE",
"544 164 OFFCURVE",
"404 164 CURVE SMOOTH",
"320 164 OFFCURVE",
"264 212 OFFCURVE",
"264 316 CURVE SMOOTH"
);
}
);
width = 832;
}
);
leftKerningGroup = C;
note = Q;
rightKerningGroup = D;
unicode = 0051;
},
{
glyphname = R;
lastChange = "2018-11-26 15:58:55 +0000";
layers = (
{
hints = (
{
horizontal = 1;
place = "{0, 21}";
target = up;
type = BottomGhost;
},
{
horizontal = 1;
place = "{216, 88}";
type = Stem;
},
{
horizontal = 1;
place = "{636, 84}";
type = Stem;
},
{
place = "{538, 100}";
type = Stem;
}
);
layerId = "5B01CDE3-ACDA-4D2B-9E53-A993574CFD15";
paths = (
{
closed = 1;
nodes = (
"46 0 LINE",
"142 0 LINE",
"184 216 LINE",
"346 216 LINE",
"472 0 LINE",
"582 0 LINE",
"582 8 LINE",
"444 237 LINE",
"569 287 OFFCURVE",
"638 416 OFFCURVE",
"638 524 CURVE SMOOTH",
"638 652 OFFCURVE",
"566 720 OFFCURVE",
"420 720 CURVE SMOOTH",
"186 720 LINE"
);
},
{
closed = 1;
nodes = (
"416 636 LINE SMOOTH",
"492 636 OFFCURVE",
"538 604 OFFCURVE",
"538 524 CURVE SMOOTH",
"538 412 OFFCURVE",
"452 304 OFFCURVE",
"332 304 CURVE SMOOTH",
"201 304 LINE",
"265 636 LINE"
);
}
);
width = 660;
},
{
hints = (
{
horizontal = 1;
place = "{0, 21}";
target = up;
type = BottomGhost;
},
{
horizontal = 1;
place = "{152, 168}";
type = Stem;
},
{
horizontal = 1;
place = "{544, 176}";
type = Stem;
},
{
place = "{520, 212}";
type = Stem;
}
);
layerId = "FA792B6B-505C-4DC3-9C40-F9BEDA01661E";
paths = (
{
closed = 1;
nodes = (
"20 0 LINE",
"232 0 LINE",
"260 152 LINE",
"355 152 LINE",
"424 0 LINE",
"648 0 LINE",
"648 12 LINE",
"545 199 LINE",
"657 256 OFFCURVE",
"732 361 OFFCURVE",
"732 480 CURVE SMOOTH",
"732 640 OFFCURVE",
"632 720 OFFCURVE",
"450 720 CURVE SMOOTH",
"156 720 LINE"
);
},
{
closed = 1;
nodes = (
"428 544 LINE SMOOTH",
"484 544 OFFCURVE",
"520 524 OFFCURVE",
"520 468 CURVE SMOOTH",
"520 400 OFFCURVE",
"468 320 OFFCURVE",
"364 320 CURVE SMOOTH",
"292 320 LINE",
"335 544 LINE"
);
}
);
width = 744;
}
);
leftKerningGroup = B;
note = R;
rightKerningGroup = R;
unicode = 0052;
},
{
glyphname = S;
lastChange = "2018-11-26 15:58:55 +0000";
layers = (
{
hints = (
{
horizontal = 1;
place = "{-12, 88}";
type = Stem;
},
{
horizontal = 1;
place = "{644, 88}";
type = Stem;
},
{
place = "{102, 98}";
type = Stem;
},
{
place = "{428, 98}";
type = Stem;
}
);
layerId = "5B01CDE3-ACDA-4D2B-9E53-A993574CFD15";
paths = (
{
closed = 1;
nodes = (
"26 28 LINE",
"80 4 OFFCURVE",
"152 -12 OFFCURVE",
"236 -12 CURVE SMOOTH",
"416 -12 OFFCURVE",
"526 56 OFFCURVE",
"526 196 CURVE SMOOTH",
"526 296 OFFCURVE",
"455 341 OFFCURVE",
"372 364 CURVE SMOOTH",
"300 384 LINE SMOOTH",
"237 401 OFFCURVE",
"200 424 OFFCURVE",
"200 490 CURVE SMOOTH",
"200 606 OFFCURVE",
"300 644 OFFCURVE",
"420 644 CURVE SMOOTH",
"492 644 OFFCURVE",
"540 628 OFFCURVE",
"568 612 CURVE",
"576 612 LINE",
"594 704 LINE",
"561 720 OFFCURVE",
"496 732 OFFCURVE",
"420 732 CURVE SMOOTH",
"236 732 OFFCURVE",
"102 650 OFFCURVE",
"102 484 CURVE SMOOTH",
"102 364 OFFCURVE",
"177 323 OFFCURVE",
"260 300 CURVE SMOOTH",
"332 280 LINE SMOOTH",
"391 264 OFFCURVE",
"428 250 OFFCURVE",
"428 188 CURVE SMOOTH",
"428 108 OFFCURVE",
"344 76 OFFCURVE",
"240 76 CURVE SMOOTH",
"156 76 OFFCURVE",
"96 96 OFFCURVE",
"52 120 CURVE",
"44 120 LINE"
);
}
);
width = 584;
},
{
hints = (
{
horizontal = 1;
place = "{-12, 168}";
type = Stem;
},
{
horizontal = 1;
place = "{564, 168}";
type = Stem;
},
{
place = "{68, 212}";
type = Stem;
},
{
place = "{404, 212}";
type = Stem;
}
);
layerId = "FA792B6B-505C-4DC3-9C40-F9BEDA01661E";
paths = (
{
closed = 1;
nodes = (
"18 36 LINE",
"80 8 OFFCURVE",
"176 -12 OFFCURVE",
"268 -12 CURVE SMOOTH",
"456 -12 OFFCURVE",
"616 48 OFFCURVE",
"616 224 CURVE SMOOTH",
"616 348 OFFCURVE",
"517 393 OFFCURVE",
"412 412 CURVE SMOOTH",
"368 420 LINE SMOOTH",
"303 432 OFFCURVE",
"280 448 OFFCURVE",
"280 484 CURVE SMOOTH",
"280 536 OFFCURVE",
"332 564 OFFCURVE",
"424 564 CURVE SMOOTH",
"512 564 OFFCURVE",
"580 544 OFFCURVE",
"620 524 CURVE",
"632 524 LINE",
"666 700 LINE",
"625 718 OFFCURVE",
"528 732 OFFCURVE",
"452 732 CURVE SMOOTH",
"180 732 OFFCURVE",
"68 620 OFFCURVE",
"68 460 CURVE SMOOTH",
"68 348 OFFCURVE",
"152 281 OFFCURVE",
"288 256 CURVE SMOOTH",
"332 248 LINE SMOOTH",
"385 238 OFFCURVE",
"404 232 OFFCURVE",
"404 204 CURVE SMOOTH",
"404 168 OFFCURVE",
"360 156 OFFCURVE",
"292 156 CURVE SMOOTH",
"192 156 OFFCURVE",
"112 180 OFFCURVE",
"64 212 CURVE",
"52 212 LINE"
);
}
);
width = 648;
}
);
leftKerningGroup = S;
note = S;
rightKerningGroup = S;
unicode = 0053;
},
{
glyphname = T;
lastChange = "2018-11-26 15:58:55 +0000";
layers = (
{
hints = (
{
horizontal = 1;
place = "{0, 21}";
target = up;
type = BottomGhost;
},
{
horizontal = 1;
place = "{636, 84}";
type = Stem;
},
{
place = "{86, 576}";
type = Stem;
}
);
layerId = "5B01CDE3-ACDA-4D2B-9E53-A993574CFD15";
paths = (
{
closed = 1;
nodes = (
"86 636 LINE",
"317 636 LINE",
"194 0 LINE",
"290 0 LINE",
"413 636 LINE",
"646 636 LINE",
"662 720 LINE",
"102 720 LINE"
);
}
);
width = 584;
},
{
hints = (
{
horizontal = 1;
place = "{0, 21}";
target = up;
type = BottomGhost;
},
{
horizontal = 1;
place = "{536, 184}";
type = Stem;
},
{
place = "{76, 650}";
type = Stem;
}
);
layerId = "FA792B6B-505C-4DC3-9C40-F9BEDA01661E";
paths = (
{
closed = 1;
nodes = (
"76 536 LINE",
"279 536 LINE",
"178 0 LINE",
"390 0 LINE",
"491 536 LINE",
"692 536 LINE",
"726 720 LINE",
"110 720 LINE"
);
}
);
width = 656;
}
);
leftKerningGroup = T;
note = T;
rightKerningGroup = T;
unicode = 0054;
},
{
glyphname = U;
lastChange = "2018-11-26 15:58:55 +0000";
layers = (
{
hints = (
{
horizontal = 1;
place = "{-12, 88}";
type = Stem;
},
{
horizontal = 1;
place = "{720, -20}";
target = down;
type = TopGhost;
},
{
place = "{84, 96}";
type = Stem;
}
);
layerId = "5B01CDE3-ACDA-4D2B-9E53-A993574CFD15";
paths = (
{
closed = 1;
nodes = (
"84 60 OFFCURVE",
"156 -12 OFFCURVE",
"312 -12 CURVE SMOOTH",
"484 -12 OFFCURVE",
"584 84 OFFCURVE",
"620 268 CURVE SMOOTH",
"708 720 LINE",
"612 720 LINE",
"524 268 LINE SMOOTH",
"497 128 OFFCURVE",
"428 76 OFFCURVE",
"316 76 CURVE SMOOTH",
"228 76 OFFCURVE",
"180 108 OFFCURVE",
"180 196 CURVE SMOOTH",
"180 217 OFFCURVE",
"183 241 OFFCURVE",
"188 268 CURVE SMOOTH",
"276 720 LINE",
"180 720 LINE",
"92 268 LINE SMOOTH",
"86 236 OFFCURVE",
"84 204 OFFCURVE",
"84 181 CURVE SMOOTH"
);
}
);
width = 704;
},
{
hints = (
{
horizontal = 1;
place = "{-12, 176}";
type = Stem;
},
{
horizontal = 1;
place = "{720, -20}";
target = down;
type = TopGhost;
},
{
place = "{68, 214}";
type = Stem;
}
);
layerId = "FA792B6B-505C-4DC3-9C40-F9BEDA01661E";
paths = (
{
closed = 1;
nodes = (
"68 71 OFFCURVE",
"164 -12 OFFCURVE",
"354 -12 CURVE SMOOTH",
"574 -12 OFFCURVE",
"682 104 OFFCURVE",
"722 316 CURVE SMOOTH",
"798 720 LINE",
"586 720 LINE",
"506 300 LINE SMOOTH",
"490 216 OFFCURVE",
"446 164 OFFCURVE",
"374 164 CURVE SMOOTH",
"307 164 OFFCURVE",
"282 200 OFFCURVE",
"282 252 CURVE SMOOTH",
"282 268 OFFCURVE",
"283 283 OFFCURVE",
"286 300 CURVE SMOOTH",
"366 720 LINE",
"154 720 LINE",
"78 320 LINE SMOOTH",
"71 284 OFFCURVE",
"68 252 OFFCURVE",
"68 220 CURVE SMOOTH"
);
}
);
width = 772;
}
);
leftKerningGroup = U;
note = U;
rightKerningGroup = U;
unicode = 0055;
},
{
glyphname = V;
lastChange = "2018-11-26 15:58:55 +0000";
layers = (
{
hints = (
{
horizontal = 1;
place = "{-12, 84}";
type = Stem;
},
{
horizontal = 1;
place = "{720, -20}";
target = down;
type = TopGhost;
},
{
place = "{42, 648}";
type = Stem;
}
);
layerId = "5B01CDE3-ACDA-4D2B-9E53-A993574CFD15";
paths = (
{
closed = 1;
nodes = (
"42 4 LINE",
"92 -8 OFFCURVE",
"142 -12 OFFCURVE",
"190 -12 CURVE SMOOTH",
"390 -12 OFFCURVE",
"469 71 OFFCURVE",
"524 232 CURVE SMOOTH",
"690 720 LINE",
"590 720 LINE",
"428 240 LINE SMOOTH",
"393 135 OFFCURVE",
"342 72 OFFCURVE",
"210 72 CURVE SMOOTH",
"187 72 OFFCURVE",
"169 74 OFFCURVE",
"154 76 CURVE",
"159 91 OFFCURVE",
"163 108 OFFCURVE",
"166 124 CURVE SMOOTH",
"282 720 LINE",
"186 720 LINE",
"78 164 LINE SMOOTH",
"70 124 OFFCURVE",
"54 56 OFFCURVE",
"42 16 CURVE"
);
}
);
width = 646;
},
{
hints = (
{
horizontal = 1;
place = "{-8, 176}";
type = Stem;
},
{
horizontal = 1;
place = "{720, -20}";
target = down;
type = TopGhost;
},
{
place = "{22, 760}";
type = Stem;
}
);
layerId = "FA792B6B-505C-4DC3-9C40-F9BEDA01661E";
paths = (
{
closed = 1;
nodes = (
"30 12 LINE",
"81 0 OFFCURVE",
"140 -8 OFFCURVE",
"200 -8 CURVE SMOOTH",
"392 -8 OFFCURVE",
"532 22 OFFCURVE",
"614 252 CURVE SMOOTH",
"782 720 LINE",
"566 720 LINE",
"402 260 LINE SMOOTH",
"379 197 OFFCURVE",
"360 168 OFFCURVE",
"284 168 CURVE SMOOTH",
"279 168 OFFCURVE",
"274 168 OFFCURVE",
"268 169 CURVE",
"274 187 OFFCURVE",
"281 209 OFFCURVE",
"285 232 CURVE SMOOTH",
"377 720 LINE",
"165 720 LINE",
"61 168 LINE SMOOTH",
"53 128 OFFCURVE",
"38 60 OFFCURVE",
"22 24 CURVE"
);
}
);
width = 716;
}
);
leftKerningGroup = B;
note = V;
rightKerningGroup = V;
unicode = 0056;
},
{
glyphname = W;
lastChange = "2018-11-26 15:58:55 +0000";
layers = (
{
hints = (
{
horizontal = 1;
place = "{-12, 84}";
type = Stem;
},
{
horizontal = 1;
place = "{720, -20}";
target = down;
type = TopGhost;
},
{
place = "{76, 1024}";
type = Stem;
}
);
layerId = "5B01CDE3-ACDA-4D2B-9E53-A993574CFD15";
paths = (
{
closed = 1;
nodes = (
"76 4 LINE",
"120 -6 OFFCURVE",
"164 -12 OFFCURVE",
"208 -12 CURVE SMOOTH",
"364 -12 OFFCURVE",
"431 73 OFFCURVE",
"496 232 CURVE SMOOTH",
"511 270 LINE",
"504 176 LINE SMOOTH",
"501 136 OFFCURVE",
"490 56 OFFCURVE",
"480 16 CURVE",
"480 4 LINE",
"524 -4 OFFCURVE",
"564 -12 OFFCURVE",
"608 -12 CURVE SMOOTH",
"772 -12 OFFCURVE",
"845 77 OFFCURVE",
"908 236 CURVE SMOOTH",
"1100 720 LINE",
"1000 720 LINE",
"808 232 LINE SMOOTH",
"770 134 OFFCURVE",
"728 72 OFFCURVE",
"632 72 CURVE SMOOTH",
"610 72 OFFCURVE",
"596 73 OFFCURVE",
"584 76 CURVE",
"591 102 OFFCURVE",
"597 136 OFFCURVE",
"600 176 CURVE SMOOTH",
"644 720 LINE",
"548 720 LINE",
"533 541 LINE",
"408 232 LINE SMOOTH",
"368 134 OFFCURVE",
"328 72 OFFCURVE",
"232 72 CURVE SMOOTH",
"209 72 OFFCURVE",
"195 74 OFFCURVE",
"184 76 CURVE",
"188 102 OFFCURVE",
"192 135 OFFCURVE",
"196 176 CURVE SMOOTH",
"244 720 LINE",
"148 720 LINE",
"104 176 LINE SMOOTH",
"98 104 OFFCURVE",
"88 60 OFFCURVE",
"76 16 CURVE"
);
}
);
width = 1044;
},
{
hints = (
{
horizontal = 1;
place = "{-8, 176}";
type = Stem;
},
{
horizontal = 1;
place = "{720, -20}";
target = down;
type = TopGhost;
},
{
place = "{40, 1160}";
type = Stem;
}
);
layerId = "FA792B6B-505C-4DC3-9C40-F9BEDA01661E";
paths = (
{
closed = 1;
nodes = (
"48 12 LINE",
"84 0 OFFCURVE",
"154 -8 OFFCURVE",
"208 -8 CURVE SMOOTH",
"330 -8 OFFCURVE",
"431 44 OFFCURVE",
"490 128 CURVE",
"485 93 OFFCURVE",
"478 55 OFFCURVE",
"468 24 CURVE",
"476 12 LINE",
"528 0 OFFCURVE",
"585 -8 OFFCURVE",
"644 -8 CURVE SMOOTH",
"817 -8 OFFCURVE",
"975 63 OFFCURVE",
"1036 240 CURVE SMOOTH",
"1200 720 LINE",
"984 720 LINE",
"828 260 LINE SMOOTH",
"808 202 OFFCURVE",
"762 172 OFFCURVE",
"694 168 CURVE",
"699 194 OFFCURVE",
"704 226 OFFCURVE",
"708 260 CURVE SMOOTH",
"760 720 LINE",
"556 720 LINE",
"533 518 LINE",
"428 280 LINE SMOOTH",
"401 218 OFFCURVE",
"364 168 OFFCURVE",
"288 168 CURVE SMOOTH",
"284 168 OFFCURVE",
"279 168 OFFCURVE",
"274 169 CURVE",
"279 194 OFFCURVE",
"284 226 OFFCURVE",
"288 260 CURVE SMOOTH",
"340 720 LINE",
"128 720 LINE",
"68 184 LINE SMOOTH",
"63 137 OFFCURVE",
"56 72 OFFCURVE",
"40 24 CURVE"
);
}
);
width = 1124;
}
);
leftKerningGroup = W;
note = W;
rightKerningGroup = W;
unicode = 0057;
},
{
glyphname = X;
lastChange = "2018-11-26 15:58:55 +0000";
layers = (
{
hints = (
{
horizontal = 1;
place = "{0, 21}";
target = up;
type = BottomGhost;
},
{
horizontal = 1;
place = "{720, -20}";
target = down;
type = TopGhost;
},
{
place = "{-16, 728}";
type = Stem;
}
);
layerId = "5B01CDE3-ACDA-4D2B-9E53-A993574CFD15";
paths = (
{
closed = 1;
nodes = (
"476 0 LINE",
"572 0 LINE",
"572 8 LINE",
"399 357 LINE",
"712 712 LINE",
"712 720 LINE",
"608 720 LINE",
"361 435 LINE",
"220 720 LINE",
"124 720 LINE",
"124 712 LINE",
"297 362 LINE",
"-16 8 LINE",
"-16 0 LINE",
"88 0 LINE",
"335 285 LINE"
);
}
);
width = 656;
},
{
hints = (
{
horizontal = 1;
place = "{0, 21}";
target = up;
type = BottomGhost;
},
{
horizontal = 1;
place = "{720, -20}";
target = down;
type = TopGhost;
},
{
place = "{-38, 844}";
type = Stem;
}
);
layerId = "FA792B6B-505C-4DC3-9C40-F9BEDA01661E";
paths = (
{
closed = 1;
nodes = (
"438 0 LINE",
"670 0 LINE",
"670 12 LINE",
"498 365 LINE",
"806 708 LINE",
"806 720 LINE",
"570 720 LINE",
"418 530 LINE",
"326 720 LINE",
"94 720 LINE",
"94 708 LINE",
"267 352 LINE",
"-38 12 LINE",
"-38 0 LINE",
"198 0 LINE",
"347 186 LINE"
);
}
);
width = 724;
}
);
leftKerningGroup = X;
note = X;
rightKerningGroup = X;
unicode = 0058;
},
{
glyphname = Y;
lastChange = "2018-11-26 15:58:55 +0000";
layers = (
{
hints = (
{
horizontal = 1;
place = "{0, 21}";
target = up;
type = BottomGhost;
},
{
horizontal = 1;
place = "{720, -20}";
target = down;
type = TopGhost;
},
{
place = "{100, 592}";
type = Stem;
}
);
layerId = "5B01CDE3-ACDA-4D2B-9E53-A993574CFD15";
paths = (
{
closed = 1;
nodes = (
"208 0 LINE",
"304 0 LINE",
"363 304 LINE",
"692 712 LINE",
"692 720 LINE",
"588 720 LINE",
"329 391 LINE",
"198 720 LINE",
"100 720 LINE",
"100 712 LINE",
"268 307 LINE"
);
}
);
width = 612;
},
{
hints = (
{
horizontal = 1;
place = "{0, 21}";
target = up;
type = BottomGhost;
},
{
horizontal = 1;
place = "{720, -20}";
target = down;
type = TopGhost;
},
{
place = "{90, 676}";
type = Stem;
}
);
layerId = "FA792B6B-505C-4DC3-9C40-F9BEDA01661E";
paths = (
{
closed = 1;
nodes = (
"178 0 LINE",
"390 0 LINE",
"446 295 LINE",
"766 708 LINE",
"766 720 LINE",
"546 720 LINE",
"381 476 LINE",
"302 720 LINE",
"90 720 LINE",
"90 708 LINE",
"235 304 LINE"
);
}
);
width = 676;
}
);
leftKerningGroup = Y;
note = Y;
rightKerningGroup = Y;
unicode = 0059;
},
{
glyphname = Z;
lastChange = "2018-11-26 15:58:55 +0000";
layers = (
{
hints = (
{
horizontal = 1;
place = "{0, 84}";
type = Stem;
},
{
horizontal = 1;
place = "{636, 84}";
type = Stem;
},
{
place = "{-9, 628}";
type = Stem;
}
);
layerId = "5B01CDE3-ACDA-4D2B-9E53-A993574CFD15";
paths = (
{
closed = 1;
nodes = (
"119 636 LINE",
"477 636 LINE",
"27 92 LINE SMOOTH",
"-10 47 OFFCURVE",
"-9 23 OFFCURVE",
"-9 8 CURVE",
"-1 0 LINE",
"491 0 LINE",
"507 84 LINE",
"132 84 LINE",
"583 628 LINE SMOOTH",
"620 673 OFFCURVE",
"619 697 OFFCURVE",
"619 712 CURVE",
"611 720 LINE",
"135 720 LINE"
);
}
);
width = 586;
},
{
hints = (
{
horizontal = 1;
place = "{0, 184}";
type = Stem;
},
{
horizontal = 1;
place = "{536, 184}";
type = Stem;
},
{
place = "{-8, 717}";
type = Stem;
}
);
layerId = "FA792B6B-505C-4DC3-9C40-F9BEDA01661E";
paths = (
{
closed = 1;
nodes = (
"100 536 LINE",
"387 536 LINE",
"48 156 LINE SMOOTH",
"13 117 OFFCURVE",
"-13 63 OFFCURVE",
"-8 12 CURVE",
"4 0 LINE",
"580 0 LINE",
"616 184 LINE",
"312 184 LINE",
"652 564 LINE SMOOTH",
"691 607 OFFCURVE",
"714 652 OFFCURVE",
"708 708 CURVE",
"700 720 LINE",
"136 720 LINE"
);
}
);
width = 664;
}
);
leftKerningGroup = Z;
note = Z;
rightKerningGroup = Z;
unicode = 005A;
},
{
glyphname = ampersand;
lastChange = "2018-11-26 15:58:55 +0000";
layers = (
{
hints = (
{
horizontal = 1;
place = "{-12, 80}";
type = Stem;
},
{
horizontal = 1;
place = "{300, 84}";
type = Stem;
},
{
horizontal = 1;
place = "{644, 88}";
type = Stem;
},
{
place = "{36, 92}";
type = Stem;
},
{
place = "{84, 96}";
type = Stem;
}
);
layerId = "5B01CDE3-ACDA-4D2B-9E53-A993574CFD15";
paths = (
{
closed = 1;
nodes = (
"36 24 OFFCURVE",
"149 -12 OFFCURVE",
"272 -12 CURVE SMOOTH",
"344 -12 OFFCURVE",
"416 4 OFFCURVE",
"468 24 CURVE",
"472 32 LINE",
"472 80 OFFCURVE",
"484 158 OFFCURVE",
"492 198 CURVE SMOOTH",
"512 300 LINE",
"592 300 LINE",
"608 384 LINE",
"304 384 LINE SMOOTH",
"230 384 OFFCURVE",
"180 412 OFFCURVE",
"180 488 CURVE SMOOTH",
"180 596 OFFCURVE",
"284 644 OFFCURVE",
"400 644 CURVE SMOOTH",
"468 644 OFFCURVE",
"528 628 OFFCURVE",
"556 612 CURVE",
"564 612 LINE",
"582 704 LINE",
"549 720 OFFCURVE",
"464 732 OFFCURVE",
"408 732 CURVE SMOOTH",
"220 732 OFFCURVE",
"84 648 OFFCURVE",
"84 482 CURVE SMOOTH",
"84 416 OFFCURVE",
"114 372 OFFCURVE",
"159 344 CURVE",
"85 309 OFFCURVE",
"36 246 OFFCURVE",
"36 160 CURVE SMOOTH"
);
},
{
closed = 1;
nodes = (
"192 68 OFFCURVE",
"128 88 OFFCURVE",
"128 168 CURVE SMOOTH",
"128 252 OFFCURVE",
"196 300 OFFCURVE",
"300 300 CURVE SMOOTH",
"418 300 LINE",
"388 144 LINE SMOOTH",
"384 125 OFFCURVE",
"381 103 OFFCURVE",
"380 82 CURVE",
"346 71 OFFCURVE",
"315 68 OFFCURVE",
"280 68 CURVE SMOOTH"
);
}
);
width = 644;
},
{
hints = (
{
horizontal = 1;
place = "{-12, 156}";
type = Stem;
},
{
horizontal = 1;
place = "{284, 148}";
type = Stem;
},
{
horizontal = 1;
place = "{564, 168}";
type = Stem;
},
{
place = "{32, 208}";
type = Stem;
},
{
place = "{80, 212}";
type = Stem;
}
);
layerId = "FA792B6B-505C-4DC3-9C40-F9BEDA01661E";
paths = (
{
closed = 1;
nodes = (
"32 48 OFFCURVE",
"144 -12 OFFCURVE",
"308 -12 CURVE SMOOTH",
"400 -12 OFFCURVE",
"488 4 OFFCURVE",
"564 28 CURVE",
"568 36 LINE",
"572 96 OFFCURVE",
"581 148 OFFCURVE",
"592 208 CURVE SMOOTH",
"606 284 LINE",
"672 284 LINE",
"700 432 LINE",
"388 432 LINE SMOOTH",
"334 432 OFFCURVE",
"292 440 OFFCURVE",
"292 488 CURVE SMOOTH",
"292 536 OFFCURVE",
"340 564 OFFCURVE",
"436 564 CURVE SMOOTH",
"516 564 OFFCURVE",
"584 544 OFFCURVE",
"624 524 CURVE",
"636 524 LINE",
"670 700 LINE",
"629 718 OFFCURVE",
"540 732 OFFCURVE",
"448 732 CURVE SMOOTH",
"192 732 OFFCURVE",
"80 637 OFFCURVE",
"80 476 CURVE SMOOTH",
"80 424 OFFCURVE",
"104 383 OFFCURVE",
"142 352 CURVE",
"74 322 OFFCURVE",
"32 268 OFFCURVE",
"32 184 CURVE SMOOTH"
);
},
{
closed = 1;
nodes = (
"280 144 OFFCURVE",
"240 160 OFFCURVE",
"240 204 CURVE SMOOTH",
"240 257 OFFCURVE",
"276 281 OFFCURVE",
"338 284 CURVE",
"414 284 LINE",
"404 232 LINE SMOOTH",
"398 204 OFFCURVE",
"395 178 OFFCURVE",
"396 156 CURVE",
"382 149 OFFCURVE",
"362 144 OFFCURVE",
"328 144 CURVE SMOOTH"
);
}
);
width = 704;
}
);
leftKerningGroup = ampersand;
note = ampersand;
rightKerningGroup = ampersand;
unicode = 0026;
},
{
glyphname = at.sc;
lastChange = "2018-11-26 15:58:55 +0000";
layers = (
{
hints = (
{
horizontal = 1;
place = "{-128, 68}";
type = Stem;
},
{
horizontal = 1;
place = "{28, 64}";
type = Stem;
},
{
horizontal = 1;
place = "{200, 60}";
type = Stem;
},
{
horizontal = 1;
place = "{336, 68}";
type = Stem;
},
{
horizontal = 1;
place = "{512, 68}";
type = Stem;
},
{
place = "{40, 84}";
type = Stem;
},
{
place = "{252, 76}";
type = Stem;
},
{
place = "{515, 77}";
type = Stem;
},
{
place = "{736, 80}";
type = Stem;
},
{
place = "{492, 67}";
type = Stem;
}
);
layerId = "5B01CDE3-ACDA-4D2B-9E53-A993574CFD15";
paths = (
{
closed = 1;
nodes = (
"320 316 LINE",
"324 316 LINE",
"348 325 OFFCURVE",
"388 336 OFFCURVE",
"428 336 CURVE SMOOTH",
"500 336 OFFCURVE",
"523 312 OFFCURVE",
"512 252 CURVE",
"511 248 LINE",
"496 253 OFFCURVE",
"474 260 OFFCURVE",
"436 260 CURVE SMOOTH",
"324 260 OFFCURVE",
"251 214 OFFCURVE",
"252 136 CURVE SMOOTH",
"253 60 OFFCURVE",
"311 28 OFFCURVE",
"436 28 CURVE SMOOTH",
"660 28 OFFCURVE",
"819 126 OFFCURVE",
"816 324 CURVE SMOOTH",
"814 479 OFFCURVE",
"681 580 OFFCURVE",
"476 580 CURVE SMOOTH",
"223 580 OFFCURVE",
"37 423 OFFCURVE",
"40 172 CURVE SMOOTH",
"42 -30 OFFCURVE",
"197 -128 OFFCURVE",
"412 -128 CURVE SMOOTH",
"471 -128 OFFCURVE",
"528 -119 OFFCURVE",
"564 -104 CURVE",
"576 -32 LINE",
"568 -32 LINE",
"530 -48 OFFCURVE",
"471 -60 OFFCURVE",
"416 -60 CURVE SMOOTH",
"249 -60 OFFCURVE",
"126 13 OFFCURVE",
"124 176 CURVE SMOOTH",
"121 389 OFFCURVE",
"272 512 OFFCURVE",
"472 512 CURVE SMOOTH",
"627 512 OFFCURVE",
"735 439 OFFCURVE",
"736 320 CURVE SMOOTH",
"737 190 OFFCURVE",
"666 126 OFFCURVE",
"559 103 CURVE",
"563 126 OFFCURVE",
"569 151 OFFCURVE",
"572 168 CURVE SMOOTH",
"588 248 LINE SMOOTH",
"609 351 OFFCURVE",
"554 404 OFFCURVE",
"444 404 CURVE SMOOTH",
"400 404 OFFCURVE",
"364 392 OFFCURVE",
"332 380 CURVE"
);
},
{
closed = 1;
nodes = (
"368 92 OFFCURVE",
"328 101 OFFCURVE",
"328 140 CURVE",
"327 179 OFFCURVE",
"365 200 OFFCURVE",
"436 200 CURVE SMOOTH",
"463 200 OFFCURVE",
"484 197 OFFCURVE",
"501 193 CURVE",
"492 144 LINE",
"488 126 OFFCURVE",
"487 108 OFFCURVE",
"489 93 CURVE",
"473 92 OFFCURVE",
"457 92 OFFCURVE",
"440 92 CURVE SMOOTH"
);
}
);
width = 856;
},
{
hints = (
{
horizontal = 1;
place = "{-156, 104}";
type = Stem;
},
{
horizontal = 1;
place = "{24, 96}";
type = Stem;
},
{
horizontal = 1;
place = "{168, 80}";
type = Stem;
},
{
horizontal = 1;
place = "{288, 112}";
type = Stem;
},
{
horizontal = 1;
place = "{484, 104}";
type = Stem;
},
{
place = "{24, 124}";
type = Stem;
},
{
place = "{244, 152}";
type = Stem;
},
{
place = "{448, 184}";
type = Stem;
},
{
place = "{736, 120}";
type = Stem;
}
);
layerId = "FA792B6B-505C-4DC3-9C40-F9BEDA01661E";
paths = (
{
closed = 1;
nodes = (
"308 276 LINE",
"312 276 LINE",
"336 284 OFFCURVE",
"368 288 OFFCURVE",
"400 288 CURVE SMOOTH",
"452 288 OFFCURVE",
"476 279 OFFCURVE",
"468 241 CURVE",
"457 244 OFFCURVE",
"440 248 OFFCURVE",
"416 248 CURVE SMOOTH",
"339 248 OFFCURVE",
"243 231 OFFCURVE",
"244 136 CURVE SMOOTH",
"244 63 OFFCURVE",
"313 24 OFFCURVE",
"440 24 CURVE SMOOTH",
"675 24 OFFCURVE",
"857 111 OFFCURVE",
"856 316 CURVE SMOOTH",
"855 467 OFFCURVE",
"714 588 OFFCURVE",
"480 588 CURVE SMOOTH",
"204 588 OFFCURVE",
"22 448 OFFCURVE",
"24 176 CURVE SMOOTH",
"25 -15 OFFCURVE",
"164 -156 OFFCURVE",
"400 -156 CURVE SMOOTH",
"461 -156 OFFCURVE",
"516 -153 OFFCURVE",
"564 -136 CURVE",
"584 -32 LINE",
"572 -32 LINE",
"530 -48 OFFCURVE",
"465 -52 OFFCURVE",
"408 -52 CURVE SMOOTH",
"260 -52 OFFCURVE",
"149 27 OFFCURVE",
"148 180 CURVE SMOOTH",
"146 393 OFFCURVE",
"281 484 OFFCURVE",
"476 484 CURVE SMOOTH",
"640 484 OFFCURVE",
"735 420 OFFCURVE",
"736 312 CURVE SMOOTH",
"736 213 OFFCURVE",
"685 164 OFFCURVE",
"613 140 CURVE",
"613 146 OFFCURVE",
"614 153 OFFCURVE",
"616 160 CURVE",
"628 220 LINE SMOOTH",
"653 347 OFFCURVE",
"565 400 OFFCURVE",
"448 400 CURVE SMOOTH",
"406 400 OFFCURVE",
"357 391 OFFCURVE",
"328 384 CURVE"
);
},
{
closed = 1;
nodes = (
"396 162 OFFCURVE",
"420 168 OFFCURVE",
"440 168 CURVE SMOOTH",
"451 168 LINE",
"448 153 OFFCURVE",
"446 138 OFFCURVE",
"452 124 CURVE",
"452 120 LINE",
"444 120 LINE SMOOTH",
"420 120 OFFCURVE",
"397 125 OFFCURVE",
"396 144 CURVE"
);
}
);
width = 876;
}
);
note = at.sc;
},
{
glyphname = a.sc;
lastChange = "2018-11-26 15:58:55 +0000";
layers = (
{
hints = (
{
horizontal = 1;
place = "{0, 21}";
target = up;
type = BottomGhost;
},
{
horizontal = 1;
place = "{168, 80}";
type = Stem;
},
{
horizontal = 1;
place = "{500, 80}";
type = Stem;
},
{
place = "{8, 572}";
type = Stem;
}
);
layerId = "5B01CDE3-ACDA-4D2B-9E53-A993574CFD15";
paths = (
{
closed = 1;
nodes = (
"372 0 LINE",
"464 0 LINE",
"552 448 LINE SMOOTH",
"558 480 OFFCURVE",
"568 521 OFFCURVE",
"580 552 CURVE",
"576 564 LINE",
"532 574 OFFCURVE",
"491 580 OFFCURVE",
"448 580 CURVE SMOOTH",
"277 580 OFFCURVE",
"203 515 OFFCURVE",
"152 380 CURVE SMOOTH",
"8 0 LINE",
"104 0 LINE",
"166 168 LINE",
"405 168 LINE"
);
},
{
closed = 1;
nodes = (
"244 376 LINE SMOOTH",
"273 454 OFFCURVE",
"319 500 OFFCURVE",
"428 500 CURVE SMOOTH",
"445 500 OFFCURVE",
"460 498 OFFCURVE",
"472 496 CURVE",
"469 486 OFFCURVE",
"466 475 OFFCURVE",
"464 464 CURVE SMOOTH",
"421 248 LINE",
"196 248 LINE"
);
}
);
width = 612;
},
{
hints = (
{
horizontal = 1;
place = "{0, 21}";
target = up;
type = BottomGhost;
},
{
horizontal = 1;
place = "{120, 152}";
type = Stem;
},
{
horizontal = 1;
place = "{552, -20}";
target = down;
type = TopGhost;
},
{
place = "{-24, 692}";
type = Stem;
},
{
horizontal = 1;
place = "{420, 160}";
type = Stem;
}
);
layerId = "FA792B6B-505C-4DC3-9C40-F9BEDA01661E";
paths = (
{
closed = 1;
nodes = (
"348 0 LINE",
"556 0 LINE",
"640 444 LINE SMOOTH",
"646 476 OFFCURVE",
"656 512 OFFCURVE",
"668 540 CURVE",
"664 552 LINE",
"615 566 OFFCURVE",
"560 580 OFFCURVE",
"480 580 CURVE SMOOTH",
"332 580 OFFCURVE",
"192 561 OFFCURVE",
"116 364 CURVE SMOOTH",
"-24 0 LINE",
"188 0 LINE",
"233 120 LINE",
"370 120 LINE"
);
},
{
closed = 1;
nodes = (
"324 360 LINE SMOOTH",
"340 401 OFFCURVE",
"361 420 OFFCURVE",
"412 420 CURVE SMOOTH",
"416 420 OFFCURVE",
"423 419 OFFCURVE",
"432 418 CURVE",
"426 402 OFFCURVE",
"420 381 OFFCURVE",
"416 360 CURVE SMOOTH",
"399 272 LINE",
"291 272 LINE"
);
}
);
width = 668;
}
);
leftKerningGroup = a.sc;
note = a.sc;
},
{
glyphname = b.sc;
lastChange = "2018-11-26 15:58:55 +0000";
layers = (
{
hints = (
{
horizontal = 1;
place = "{0, 80}";
type = Stem;
},
{
horizontal = 1;
place = "{220, 72}";
type = Stem;
},
{
horizontal = 1;
place = "{492, 80}";
type = Stem;
},
{
place = "{456, 92}";
type = Stem;
},
{
place = "{412, 92}";
type = Stem;
}
);
layerId = "5B01CDE3-ACDA-4D2B-9E53-A993574CFD15";
paths = (
{
closed = 1;
nodes = (
"44 0 LINE",
"300 0 LINE SMOOTH",
"434 0 OFFCURVE",
"506 78 OFFCURVE",
"504 160 CURVE",
"504 204 OFFCURVE",
"480 239 OFFCURVE",
"442 260 CURVE",
"513 297 OFFCURVE",
"549 367 OFFCURVE",
"548 432 CURVE SMOOTH",
"547 521 OFFCURVE",
"490 572 OFFCURVE",
"364 572 CURVE SMOOTH",
"156 572 LINE"
);
},
{
closed = 1;
nodes = (
"360 492 LINE SMOOTH",
"419 492 OFFCURVE",
"455 475 OFFCURVE",
"456 424 CURVE SMOOTH",
"457 359 OFFCURVE",
"408 292 OFFCURVE",
"320 292 CURVE SMOOTH",
"193 292 LINE",
"232 492 LINE"
);
},
{
closed = 1;
nodes = (
"332 220 LINE SMOOTH",
"381 220 OFFCURVE",
"411 201 OFFCURVE",
"412 164 CURVE SMOOTH",
"412 107 OFFCURVE",
"367 80 OFFCURVE",
"308 80 CURVE SMOOTH",
"151 80 LINE",
"179 220 LINE"
);
}
);
width = 580;
},
{
hints = (
{
horizontal = 1;
place = "{0, 148}";
type = Stem;
},
{
horizontal = 1;
place = "{204, 132}";
type = Stem;
},
{
horizontal = 1;
place = "{424, 148}";
type = Stem;
},
{
place = "{16, 596}";
type = Stem;
},
{
place = "{372, 208}";
type = Stem;
},
{
place = "{404, 208}";
type = Stem;
}
);
layerId = "FA792B6B-505C-4DC3-9C40-F9BEDA01661E";
paths = (
{
closed = 1;
nodes = (
"16 0 LINE",
"320 0 LINE SMOOTH",
"459 0 OFFCURVE",
"581 53 OFFCURVE",
"580 176 CURVE SMOOTH",
"579 221 OFFCURVE",
"558 252 OFFCURVE",
"514 269 CURVE",
"573 306 OFFCURVE",
"612 353 OFFCURVE",
"612 424 CURVE",
"611 496 OFFCURVE",
"546 572 OFFCURVE",
"396 572 CURVE SMOOTH",
"128 572 LINE"
);
},
{
closed = 1;
nodes = (
"360 424 LINE SMOOTH",
"377 424 OFFCURVE",
"404 418 OFFCURVE",
"404 388 CURVE SMOOTH",
"405 359 OFFCURVE",
"378 336 OFFCURVE",
"348 336 CURVE SMOOTH",
"290 336 LINE",
"307 424 LINE"
);
},
{
closed = 1;
nodes = (
"344 204 LINE SMOOTH",
"364 204 OFFCURVE",
"372 195 OFFCURVE",
"372 180 CURVE SMOOTH",
"372 159 OFFCURVE",
"361 148 OFFCURVE",
"340 148 CURVE SMOOTH",
"253 148 LINE",
"264 204 LINE"
);
}
);
width = 636;
}
);
leftKerningGroup = b.sc;
note = b.sc;
rightKerningGroup = b.sc;
},
{
glyphname = c.sc;
lastChange = "2018-11-26 15:58:55 +0000";
layers = (
{
hints = (
{
horizontal = 1;
place = "{-12, 80}";
type = Stem;
},
{
horizontal = 1;
place = "{504, 80}";
type = Stem;
},
{
place = "{56, 96}";
type = Stem;
},
{
horizontal = 1;
place = "{552, -20}";
target = down;
type = TopGhost;
}
);
layerId = "5B01CDE3-ACDA-4D2B-9E53-A993574CFD15";
paths = (
{
closed = 1;
nodes = (
"56 92 OFFCURVE",
"149 -12 OFFCURVE",
"328 -12 CURVE SMOOTH",
"380 -12 OFFCURVE",
"424 0 OFFCURVE",
"460 16 CURVE",
"480 100 LINE",
"472 100 LINE",
"436 80 OFFCURVE",
"388 68 OFFCURVE",
"348 68 CURVE SMOOTH",
"220 68 OFFCURVE",
"152 124 OFFCURVE",
"152 248 CURVE SMOOTH",
"152 392 OFFCURVE",
"244 504 OFFCURVE",
"396 504 CURVE SMOOTH",
"472 504 OFFCURVE",
"508 488 OFFCURVE",
"540 472 CURVE",
"548 472 LINE",
"566 552 LINE",
"524 572 OFFCURVE",
"468 584 OFFCURVE",
"412 584 CURVE SMOOTH",
"172 584 OFFCURVE",
"56 424 OFFCURVE",
"56 244 CURVE SMOOTH"
);
}
);
width = 552;
},
{
hints = (
{
horizontal = 1;
place = "{-12, 160}";
type = Stem;
},
{
horizontal = 1;
place = "{420, 160}";
type = Stem;
},
{
place = "{32, 216}";
type = Stem;
},
{
horizontal = 1;
place = "{560, 20}";
type = Stem;
}
);
layerId = "FA792B6B-505C-4DC3-9C40-F9BEDA01661E";
paths = (
{
closed = 1;
nodes = (
"32 88 OFFCURVE",
"150 -12 OFFCURVE",
"368 -12 CURVE SMOOTH",
"420 -12 OFFCURVE",
"464 0 OFFCURVE",
"488 8 CURVE",
"516 164 LINE",
"504 164 LINE",
"483 156 OFFCURVE",
"440 148 OFFCURVE",
"396 148 CURVE SMOOTH",
"284 148 OFFCURVE",
"248 200 OFFCURVE",
"248 264 CURVE SMOOTH",
"248 356 OFFCURVE",
"308 420 OFFCURVE",
"440 420 CURVE SMOOTH",
"492 420 OFFCURVE",
"533 409 OFFCURVE",
"552 400 CURVE",
"564 400 LINE",
"592 560 LINE",
"573 568 OFFCURVE",
"515 580 OFFCURVE",
"436 580 CURVE SMOOTH",
"190 580 OFFCURVE",
"32 456 OFFCURVE",
"32 252 CURVE SMOOTH"
);
}
);
width = 580;
}
);
leftKerningGroup = c.sc;
note = c.sc;
rightKerningGroup = c.sc;
},
{
glyphname = d.sc;
lastChange = "2018-11-26 15:58:55 +0000";
layers = (
{
hints = (
{
horizontal = 1;
place = "{0, 80}";
type = Stem;
},
{
horizontal = 1;
place = "{492, 80}";
type = Stem;
},
{
place = "{508, 96}";
type = Stem;
}
);
layerId = "5B01CDE3-ACDA-4D2B-9E53-A993574CFD15";
paths = (
{
closed = 1;
nodes = (
"44 0 LINE",
"252 0 LINE SMOOTH",
"491 0 OFFCURVE",
"606 192 OFFCURVE",
"604 356 CURVE SMOOTH",
"602 493 OFFCURVE",
"506 572 OFFCURVE",
"348 572 CURVE SMOOTH",
"156 572 LINE"
);
},
{
closed = 1;
nodes = (
"348 492 LINE SMOOTH",
"450 492 OFFCURVE",
"507 449 OFFCURVE",
"508 356 CURVE SMOOTH",
"510 248 OFFCURVE",
"438 80 OFFCURVE",
"252 80 CURVE SMOOTH",
"151 80 LINE",
"232 492 LINE"
);
}
);
width = 644;
},
{
hints = (
{
horizontal = 1;
place = "{0, 160}";
type = Stem;
},
{
horizontal = 1;
place = "{412, 160}";
type = Stem;
},
{
place = "{460, 216}";
type = Stem;
}
);
layerId = "FA792B6B-505C-4DC3-9C40-F9BEDA01661E";
paths = (
{
closed = 1;
nodes = (
"16 0 LINE",
"292 0 LINE SMOOTH",
"556 0 OFFCURVE",
"677 166 OFFCURVE",
"676 336 CURVE SMOOTH",
"675 498 OFFCURVE",
"559 572 OFFCURVE",
"360 572 CURVE SMOOTH",
"128 572 LINE"
);
},
{
closed = 1;
nodes = (
"336 412 LINE SMOOTH",
"430 412 OFFCURVE",
"460 381 OFFCURVE",
"460 324 CURVE SMOOTH",
"460 212 OFFCURVE",
"390 160 OFFCURVE",
"300 160 CURVE SMOOTH",
"255 160 LINE",
"304 412 LINE"
);
}
);
width = 696;
}
);
leftKerningGroup = b.sc;
note = d.sc;
rightKerningGroup = d.sc;
},
{
glyphname = e.sc;
lastChange = "2018-11-26 15:58:55 +0000";
layers = (
{
hints = (
{
horizontal = 1;
place = "{0, 80}";
type = Stem;
},
{
horizontal = 1;
place = "{260, 76}";
type = Stem;
},
{
horizontal = 1;
place = "{492, 80}";
type = Stem;
},
{
place = "{44, 508}";
type = Stem;
}
);
layerId = "5B01CDE3-ACDA-4D2B-9E53-A993574CFD15";
paths = (
{
closed = 1;
nodes = (
"44 0 LINE",
"448 0 LINE",
"464 80 LINE",
"151 80 LINE",
"187 260 LINE",
"440 260 LINE",
"456 336 LINE",
"202 336 LINE",
"232 492 LINE",
"536 492 LINE",
"552 572 LINE",
"156 572 LINE"
);
}
);
width = 552;
},
{
hints = (
{
horizontal = 1;
place = "{0, 160}";
type = Stem;
},
{
horizontal = 1;
place = "{208, 148}";
type = Stem;
},
{
horizontal = 1;
place = "{412, 160}";
type = Stem;
},
{
place = "{16, 536}";
type = Stem;
}
);
layerId = "FA792B6B-505C-4DC3-9C40-F9BEDA01661E";
paths = (
{
closed = 1;
nodes = (
"16 0 LINE",
"444 0 LINE",
"476 160 LINE",
"254 160 LINE",
"263 208 LINE",
"440 208 LINE",
"468 356 LINE",
"291 356 LINE",
"301 412 LINE",
"520 412 LINE",
"552 572 LINE",
"124 572 LINE"
);
}
);
width = 540;
}
);
leftKerningGroup = b.sc;
note = e.sc;
rightKerningGroup = e.sc;
},
{
glyphname = f.sc;
lastChange = "2018-11-26 15:58:55 +0000";
layers = (
{
hints = (
{
horizontal = 1;
place = "{0, 21}";
target = up;
type = BottomGhost;
},
{
horizontal = 1;
place = "{216, 76}";
type = Stem;
},
{
horizontal = 1;
place = "{492, 80}";
type = Stem;
},
{
place = "{44, 492}";
type = Stem;
}
);
layerId = "5B01CDE3-ACDA-4D2B-9E53-A993574CFD15";
paths = (
{
closed = 1;
nodes = (
"44 0 LINE",
"136 0 LINE",
"178 216 LINE",
"420 216 LINE",
"436 292 LINE",
"193 292 LINE",
"232 492 LINE",
"520 492 LINE",
"536 572 LINE",
"156 572 LINE"
);
}
);
width = 520;
},
{
hints = (
{
horizontal = 1;
place = "{0, 21}";
target = up;
type = BottomGhost;
},
{
horizontal = 1;
place = "{164, 148}";
type = Stem;
},
{
horizontal = 1;
place = "{412, 160}";
type = Stem;
},
{
place = "{16, 536}";
type = Stem;
}
);
layerId = "FA792B6B-505C-4DC3-9C40-F9BEDA01661E";
paths = (
{
closed = 1;
nodes = (
"16 0 LINE",
"224 0 LINE",
"255 164 LINE",
"432 164 LINE",
"460 312 LINE",
"283 312 LINE",
"302 412 LINE",
"520 412 LINE",
"552 572 LINE",
"124 572 LINE"
);
}
);
width = 524;
}
);
leftKerningGroup = b.sc;
note = f.sc;
rightKerningGroup = f.sc;
},
{
glyphname = g.sc;
lastChange = "2018-11-26 15:58:55 +0000";
layers = (
{
hints = (
{
horizontal = 1;
place = "{-12, 80}";
type = Stem;
},
{
horizontal = 1;
place = "{500, 80}";
type = Stem;
},
{
place = "{53, 96}";
type = Stem;
},
{
horizontal = 1;
place = "{556, -20}";
target = down;
type = TopGhost;
}
);
layerId = "5B01CDE3-ACDA-4D2B-9E53-A993574CFD15";
paths = (
{
closed = 1;
nodes = (
"55 82 OFFCURVE",
"146 -12 OFFCURVE",
"325 -12 CURVE SMOOTH",
"377 -12 OFFCURVE",
"445 1 OFFCURVE",
"485 20 CURVE",
"537 288 LINE",
"449 288 LINE",
"407 79 LINE",
"383 72 OFFCURVE",
"356 68 OFFCURVE",
"329 68 CURVE SMOOTH",
"215 68 OFFCURVE",
"151 121 OFFCURVE",
"149 236 CURVE SMOOTH",
"147 379 OFFCURVE",
"238 500 OFFCURVE",
"409 500 CURVE SMOOTH",
"474 500 OFFCURVE",
"521 486 OFFCURVE",
"553 472 CURVE",
"561 472 LINE",
"577 556 LINE",
"542 572 OFFCURVE",
"472 580 OFFCURVE",
"417 580 CURVE SMOOTH",
"174 580 OFFCURVE",
"50 417 OFFCURVE",
"53 236 CURVE SMOOTH"
);
}
);
width = 608;
},
{
hints = (
{
horizontal = 1;
place = "{-12, 156}";
type = Stem;
},
{
horizontal = 1;
place = "{420, 160}";
type = Stem;
},
{
place = "{33, 216}";
type = Stem;
},
{
horizontal = 1;
place = "{560, 20}";
type = Stem;
}
);
layerId = "FA792B6B-505C-4DC3-9C40-F9BEDA01661E";
paths = (
{
closed = 1;
nodes = (
"34 82 OFFCURVE",
"144 -12 OFFCURVE",
"377 -12 CURVE SMOOTH",
"424 -12 OFFCURVE",
"501 1 OFFCURVE",
"545 16 CURVE",
"601 292 LINE",
"409 292 LINE",
"379 147 LINE",
"372 145 OFFCURVE",
"365 144 OFFCURVE",
"357 144 CURVE SMOOTH",
"272 144 OFFCURVE",
"250 203 OFFCURVE",
"249 260 CURVE SMOOTH",
"248 357 OFFCURVE",
"315 420 OFFCURVE",
"453 420 CURVE SMOOTH",
"512 420 OFFCURVE",
"562 406 OFFCURVE",
"581 396 CURVE",
"593 396 LINE",
"625 560 LINE",
"588 572 OFFCURVE",
"537 580 OFFCURVE",
"441 580 CURVE SMOOTH",
"190 580 OFFCURVE",
"31 448 OFFCURVE",
"33 252 CURVE SMOOTH"
);
}
);
width = 648;
}
);
leftKerningGroup = c.sc;
note = g.sc;
rightKerningGroup = g.sc;
},
{
glyphname = h.sc;
lastChange = "2018-11-26 15:58:55 +0000";
layers = (
{
hints = (
{
horizontal = 1;
place = "{0, 21}";
target = up;
type = BottomGhost;
},
{
horizontal = 1;
place = "{256, 80}";
type = Stem;
},
{
horizontal = 1;
place = "{572, -20}";
target = down;
type = TopGhost;
},
{
place = "{44, 588}";
type = Stem;
}
);
layerId = "5B01CDE3-ACDA-4D2B-9E53-A993574CFD15";
paths = (
{
closed = 1;
nodes = (
"44 0 LINE",
"136 0 LINE",
"186 256 LINE",
"478 256 LINE",
"428 0 LINE",
"520 0 LINE",
"632 572 LINE",
"540 572 LINE",
"493 336 LINE",
"201 336 LINE",
"248 572 LINE",
"156 572 LINE"
);
}
);
width = 668;
},
{
hints = (
{
horizontal = 1;
place = "{0, 21}";
target = up;
type = BottomGhost;
},
{
horizontal = 1;
place = "{196, 168}";
type = Stem;
},
{
horizontal = 1;
place = "{572, -20}";
target = down;
type = TopGhost;
},
{
place = "{16, 684}";
type = Stem;
}
);
layerId = "FA792B6B-505C-4DC3-9C40-F9BEDA01661E";
paths = (
{
closed = 1;
nodes = (
"16 0 LINE",
"224 0 LINE",
"261 196 LINE",
"421 196 LINE",
"384 0 LINE",
"592 0 LINE",
"700 572 LINE",
"492 572 LINE",
"452 364 LINE",
"292 364 LINE",
"332 572 LINE",
"124 572 LINE"
);
}
);
width = 704;
}
);
leftKerningGroup = b.sc;
note = h.sc;
},
{
glyphname = i.sc;
lastChange = "2018-11-26 15:58:55 +0000";
layers = (
{
hints = (
{
horizontal = 1;
place = "{0, 21}";
target = up;
type = BottomGhost;
},
{
horizontal = 1;
place = "{572, -20}";
target = down;
type = TopGhost;
},
{
place = "{44, 204}";
type = Stem;
}
);
layerId = "5B01CDE3-ACDA-4D2B-9E53-A993574CFD15";
paths = (
{
closed = 1;
nodes = (
"44 0 LINE",
"136 0 LINE",
"248 572 LINE",
"156 572 LINE"
);
}
);
width = 284;
},
{
hints = (
{
horizontal = 1;
place = "{0, 21}";
target = up;
type = BottomGhost;
},
{
horizontal = 1;
place = "{572, -20}";
target = down;
type = TopGhost;
},
{
place = "{16, 316}";
type = Stem;
}
);
layerId = "FA792B6B-505C-4DC3-9C40-F9BEDA01661E";
paths = (
{
closed = 1;
nodes = (
"16 0 LINE",
"224 0 LINE",
"332 572 LINE",
"124 572 LINE"
);
}
);
width = 336;
}
);
leftKerningGroup = b.sc;
note = i.sc;
},
{
glyphname = j.sc;
lastChange = "2018-11-26 15:58:55 +0000";
layers = (
{
hints = (
{
horizontal = 1;
place = "{-12, 80}";
type = Stem;
},
{
horizontal = 1;
place = "{572, -20}";
target = down;
type = TopGhost;
},
{
place = "{-20, 396}";
type = Stem;
}
);
layerId = "5B01CDE3-ACDA-4D2B-9E53-A993574CFD15";
paths = (
{
closed = 1;
nodes = (
"196 -12 OFFCURVE",
"273 41 OFFCURVE",
"296 160 CURVE SMOOTH",
"376 572 LINE",
"284 572 LINE",
"204 164 LINE SMOOTH",
"190 93 OFFCURVE",
"144 68 OFFCURVE",
"76 68 CURVE SMOOTH",
"46 68 OFFCURVE",
"18 73 OFFCURVE",
"4 80 CURVE",
"-4 80 LINE",
"-20 4 LINE",
"1 -2 OFFCURVE",
"35 -12 OFFCURVE",
"76 -12 CURVE SMOOTH"
);
}
);
width = 404;
},
{
hints = (
{
horizontal = 1;
place = "{-12, 156}";
type = Stem;
},
{
horizontal = 1;
place = "{572, -20}";
target = down;
type = TopGhost;
},
{
place = "{-24, 468}";
type = Stem;
},
{
horizontal = 1;
place = "{0, 21}";
target = up;
type = BottomGhost;
}
);
layerId = "FA792B6B-505C-4DC3-9C40-F9BEDA01661E";
paths = (
{
closed = 1;
nodes = (
"245 -12 OFFCURVE",
"346 52 OFFCURVE",
"376 212 CURVE SMOOTH",
"444 572 LINE",
"236 572 LINE",
"172 224 LINE SMOOTH",
"162 172 OFFCURVE",
"136 144 OFFCURVE",
"76 144 CURVE SMOOTH",
"54 144 OFFCURVE",
"34 148 OFFCURVE",
"20 156 CURVE",
"8 156 LINE",
"-24 0 LINE",
"-1 -6 OFFCURVE",
"56 -12 OFFCURVE",
"88 -12 CURVE SMOOTH"
);
}
);
width = 440;
}
);
leftKerningGroup = j.sc;
note = j.sc;
rightKerningGroup = j.sc;
},
{
glyphname = k.sc;
lastChange = "2018-11-26 15:58:55 +0000";
layers = (
{
hints = (
{
horizontal = 1;
place = "{0, 21}";
target = up;
type = BottomGhost;
},
{
horizontal = 1;
place = "{216, 80}";
type = Stem;
},
{
horizontal = 1;
place = "{572, -20}";
target = down;
type = TopGhost;
},
{
place = "{44, 568}";
type = Stem;
}
);
layerId = "5B01CDE3-ACDA-4D2B-9E53-A993574CFD15";
paths = (
{
closed = 1;
nodes = (
"400 0 LINE",
"500 0 LINE",
"500 8 LINE",
"375 257 LINE",
"405 278 OFFCURVE",
"430 305 OFFCURVE",
"452 336 CURVE SMOOTH",
"612 564 LINE",
"612 572 LINE",
"516 572 LINE",
"372 360 LINE SMOOTH",
"345 321 OFFCURVE",
"312 296 OFFCURVE",
"252 296 CURVE SMOOTH",
"194 296 LINE",
"248 572 LINE",
"156 572 LINE",
"44 0 LINE",
"136 0 LINE",
"178 216 LINE",
"248 216 LINE SMOOTH",
"265 216 OFFCURVE",
"282 218 OFFCURVE",
"298 221 CURVE"
);
}
);
width = 588;
},
{
hints = (
{
horizontal = 1;
place = "{0, 21}";
target = up;
type = BottomGhost;
},
{
horizontal = 1;
place = "{172, 164}";
type = Stem;
},
{
horizontal = 1;
place = "{572, -20}";
target = down;
type = TopGhost;
},
{
place = "{16, 664}";
type = Stem;
}
);
layerId = "FA792B6B-505C-4DC3-9C40-F9BEDA01661E";
paths = (
{
closed = 1;
nodes = (
"368 0 LINE",
"584 0 LINE",
"584 8 LINE",
"476 230 LINE",
"530 268 OFFCURVE",
"560 317 OFFCURVE",
"576 348 CURVE SMOOTH",
"680 560 LINE",
"680 572 LINE",
"476 572 LINE",
"400 400 LINE SMOOTH",
"383 362 OFFCURVE",
"349 336 OFFCURVE",
"296 336 CURVE SMOOTH",
"289 336 LINE",
"336 572 LINE",
"128 572 LINE",
"16 0 LINE",
"224 0 LINE",
"257 172 LINE",
"295 172 LINE"
);
}
);
width = 652;
}
);
leftKerningGroup = b.sc;
note = k.sc;
rightKerningGroup = k.sc;
},
{
glyphname = l.sc;
lastChange = "2018-11-26 15:58:55 +0000";
layers = (
{
hints = (
{
horizontal = 1;
place = "{0, 80}";
type = Stem;
},
{
horizontal = 1;
place = "{572, -20}";
target = down;
type = TopGhost;
},
{
place = "{44, 368}";
type = Stem;
}
);
layerId = "5B01CDE3-ACDA-4D2B-9E53-A993574CFD15";
paths = (
{
closed = 1;
nodes = (
"44 0 LINE",
"396 0 LINE",
"412 80 LINE",
"151 80 LINE",
"248 572 LINE",
"156 572 LINE"
);
}
);
width = 484;
},
{
hints = (
{
horizontal = 1;
place = "{0, 160}";
type = Stem;
},
{
horizontal = 1;
place = "{572, -20}";
target = down;
type = TopGhost;
},
{
place = "{16, 444}";
type = Stem;
}
);
layerId = "FA792B6B-505C-4DC3-9C40-F9BEDA01661E";
paths = (
{
closed = 1;
nodes = (
"16 0 LINE",
"428 0 LINE",
"460 160 LINE",
"254 160 LINE",
"332 572 LINE",
"124 572 LINE"
);
}
);
width = 512;
}
);
leftKerningGroup = b.sc;
note = l.sc;
rightKerningGroup = l.sc;
},
{
glyphname = m.sc;
lastChange = "2018-11-26 15:58:55 +0000";
layers = (
{
hints = (
{
horizontal = 1;
place = "{0, 21}";
target = up;
type = BottomGhost;
},
{
horizontal = 1;
place = "{572, -20}";
target = down;
type = TopGhost;
},
{
place = "{44, 664}";
type = Stem;
}
);
layerId = "5B01CDE3-ACDA-4D2B-9E53-A993574CFD15";
paths = (
{
closed = 1;
nodes = (
"44 0 LINE",
"136 0 LINE",
"216 404 LINE",
"324 180 LINE",
"392 180 LINE",
"581 394 LINE",
"504 0 LINE",
"596 0 LINE",
"708 572 LINE",
"632 572 LINE",
"374 281 LINE",
"232 572 LINE",
"156 572 LINE"
);
}
);
width = 744;
},
{
hints = (
{
horizontal = 1;
place = "{0, 21}";
target = up;
type = BottomGhost;
},
{
horizontal = 1;
place = "{572, -20}";
target = down;
type = TopGhost;
},
{
place = "{16, 788}";
type = Stem;
}
);
layerId = "FA792B6B-505C-4DC3-9C40-F9BEDA01661E";
paths = (
{
closed = 1;
nodes = (
"16 0 LINE",
"224 0 LINE",
"266 213 LINE",
"324 72 LINE",
"416 72 LINE",
"526 209 LINE",
"484 0 LINE",
"692 0 LINE",
"804 572 LINE",
"624 572 LINE",
"406 302 LINE",
"300 572 LINE",
"128 572 LINE"
);
}
);
width = 808;
}
);
note = m.sc;
},
{
glyphname = n.sc;
lastChange = "2018-11-26 15:58:55 +0000";
layers = (
{
hints = (
{
horizontal = 1;
place = "{0, 21}";
target = up;
type = BottomGhost;
},
{
horizontal = 1;
place = "{572, -20}";
target = down;
type = TopGhost;
},
{
place = "{44, 588}";
type = Stem;
}
);
layerId = "5B01CDE3-ACDA-4D2B-9E53-A993574CFD15";
paths = (
{
closed = 1;
nodes = (
"44 0 LINE",
"136 0 LINE",
"222 437 LINE",
"457 148 LINE",
"428 0 LINE",
"520 0 LINE",
"632 572 LINE",
"540 572 LINE",
"479 263 LINE",
"228 572 LINE",
"156 572 LINE"
);
}
);
width = 668;
},
{
hints = (
{
horizontal = 1;
place = "{0, 21}";
target = up;
type = BottomGhost;
},
{
horizontal = 1;
place = "{572, -20}";
target = down;
type = TopGhost;
},
{
place = "{16, 700}";
type = Stem;
}
);
layerId = "FA792B6B-505C-4DC3-9C40-F9BEDA01661E";
paths = (
{
closed = 1;
nodes = (
"16 0 LINE",
"224 0 LINE",
"283 299 LINE",
"422 136 LINE",
"396 0 LINE",
"604 0 LINE",
"716 572 LINE",
"508 572 LINE",
"468 367 LINE",
"292 572 LINE",
"128 572 LINE"
);
}
);
width = 720;
}
);
leftKerningGroup = b.sc;
note = n.sc;
},
{
glyphname = o.sc;
lastChange = "2018-11-26 15:58:55 +0000";
layers = (
{
hints = (
{
horizontal = 1;
place = "{-12, 80}";
type = Stem;
},
{
horizontal = 1;
place = "{504, 80}";
type = Stem;
},
{
place = "{56, 96}";
type = Stem;
},
{
place = "{548, 96}";
type = Stem;
}
);
layerId = "5B01CDE3-ACDA-4D2B-9E53-A993574CFD15";
paths = (
{
closed = 1;
nodes = (
"160 584 OFFCURVE",
"56 396 OFFCURVE",
"56 228 CURVE SMOOTH",
"56 84 OFFCURVE",
"148 -12 OFFCURVE",
"312 -12 CURVE SMOOTH",
"540 -12 OFFCURVE",
"644 176 OFFCURVE",
"644 344 CURVE SMOOTH",
"644 488 OFFCURVE",
"552 584 OFFCURVE",
"388 584 CURVE SMOOTH"
);
},
{
closed = 1;
nodes = (
"484 504 OFFCURVE",
"548 452 OFFCURVE",
"548 344 CURVE SMOOTH",
"548 220 OFFCURVE",
"480 68 OFFCURVE",
"316 68 CURVE SMOOTH",
"216 68 OFFCURVE",
"152 120 OFFCURVE",
"152 228 CURVE SMOOTH",
"152 352 OFFCURVE",
"220 504 OFFCURVE",
"384 504 CURVE SMOOTH"
);
}
);
width = 688;
},
{
hints = (
{
horizontal = 1;
place = "{-12, 160}";
type = Stem;
},
{
horizontal = 1;
place = "{424, 160}";
type = Stem;
},
{
place = "{32, 212}";
type = Stem;
},
{
place = "{504, 212}";
type = Stem;
}
);
layerId = "FA792B6B-505C-4DC3-9C40-F9BEDA01661E";
paths = (
{
closed = 1;
nodes = (
"572 -12 OFFCURVE",
"716 132 OFFCURVE",
"716 324 CURVE SMOOTH",
"716 476 OFFCURVE",
"612 584 OFFCURVE",
"408 584 CURVE SMOOTH",
"176 584 OFFCURVE",
"32 440 OFFCURVE",
"32 248 CURVE SMOOTH",
"32 96 OFFCURVE",
"136 -12 OFFCURVE",
"340 -12 CURVE SMOOTH"
);
},
{
closed = 1;
nodes = (
"284 148 OFFCURVE",
"244 188 OFFCURVE",
"244 252 CURVE SMOOTH",
"244 324 OFFCURVE",
"292 424 OFFCURVE",
"396 424 CURVE SMOOTH",
"464 424 OFFCURVE",
"504 384 OFFCURVE",
"504 320 CURVE SMOOTH",
"504 248 OFFCURVE",
"456 148 OFFCURVE",
"352 148 CURVE SMOOTH"
);
}
);
width = 736;
}
);
leftKerningGroup = c.sc;
note = o.sc;
rightKerningGroup = d.sc;
},
{
glyphname = p.sc;
lastChange = "2018-11-26 15:58:55 +0000";
layers = (
{
hints = (
{
horizontal = 1;
place = "{0, 21}";
target = up;
type = BottomGhost;
},
{
horizontal = 1;
place = "{180, 76}";
type = Stem;
},
{
horizontal = 1;
place = "{492, 80}";
type = Stem;
},
{
place = "{460, 92}";
type = Stem;
}
);
layerId = "5B01CDE3-ACDA-4D2B-9E53-A993574CFD15";
paths = (
{
closed = 1;
nodes = (
"44 0 LINE",
"136 0 LINE",
"171 180 LINE",
"292 180 LINE SMOOTH",
"458 180 OFFCURVE",
"554 293 OFFCURVE",
"552 412 CURVE SMOOTH",
"551 515 OFFCURVE",
"478 572 OFFCURVE",
"364 572 CURVE SMOOTH",
"156 572 LINE"
);
},
{
closed = 1;
nodes = (
"360 492 LINE SMOOTH",
"417 492 OFFCURVE",
"459 467 OFFCURVE",
"460 412 CURVE SMOOTH",
"461 329 OFFCURVE",
"396 256 OFFCURVE",
"288 256 CURVE SMOOTH",
"186 256 LINE",
"232 492 LINE"
);
}
);
width = 568;
},
{
hints = (
{
horizontal = 1;
place = "{0, 21}";
target = up;
type = BottomGhost;
},
{
horizontal = 1;
place = "{108, 152}";
type = Stem;
},
{
horizontal = 1;
place = "{412, 160}";
type = Stem;
},
{
place = "{428, 212}";
type = Stem;
}
);
layerId = "FA792B6B-505C-4DC3-9C40-F9BEDA01661E";
paths = (
{
closed = 1;
nodes = (
"16 0 LINE",
"224 0 LINE",
"245 108 LINE",
"320 108 LINE SMOOTH",
"498 108 OFFCURVE",
"641 221 OFFCURVE",
"640 368 CURVE SMOOTH",
"639 507 OFFCURVE",
"540 572 OFFCURVE",
"372 572 CURVE SMOOTH",
"128 572 LINE"
);
},
{
closed = 1;
nodes = (
"356 412 LINE SMOOTH",
"397 412 OFFCURVE",
"428 392 OFFCURVE",
"428 352 CURVE SMOOTH",
"428 307 OFFCURVE",
"394 260 OFFCURVE",
"320 260 CURVE SMOOTH",
"275 260 LINE",
"304 412 LINE"
);
}
);
width = 641;
}
);
leftKerningGroup = b.sc;
note = p.sc;
rightKerningGroup = p.sc;
},
{
glyphname = q.sc;
lastChange = "2018-11-26 15:58:55 +0000";
layers = (
{
hints = (
{
horizontal = 1;
place = "{-128, 8}";
type = Stem;
},
{
horizontal = 1;
place = "{-12, 80}";
type = Stem;
},
{
horizontal = 1;
place = "{504, 80}";
type = Stem;
},
{
place = "{56, 96}";
type = Stem;
},
{
place = "{548, 96}";
type = Stem;
}
);
layerId = "5B01CDE3-ACDA-4D2B-9E53-A993574CFD15";
paths = (
{
closed = 1;
nodes = (
"160 584 OFFCURVE",
"56 396 OFFCURVE",
"56 228 CURVE SMOOTH",
"56 84 OFFCURVE",
"148 -12 OFFCURVE",
"312 -12 CURVE SMOOTH",
"324 -12 OFFCURVE",
"336 -11 OFFCURVE",
"347 -10 CURVE",
"468 -128 LINE",
"592 -128 LINE",
"592 -120 LINE",
"448 14 LINE",
"582 72 OFFCURVE",
"644 214 OFFCURVE",
"644 344 CURVE SMOOTH",
"644 488 OFFCURVE",
"552 584 OFFCURVE",
"388 584 CURVE SMOOTH"
);
},
{
closed = 1;
nodes = (
"484 504 OFFCURVE",
"548 452 OFFCURVE",
"548 344 CURVE SMOOTH",
"548 220 OFFCURVE",
"480 68 OFFCURVE",
"316 68 CURVE SMOOTH",
"216 68 OFFCURVE",
"152 120 OFFCURVE",
"152 228 CURVE SMOOTH",
"152 352 OFFCURVE",
"220 504 OFFCURVE",
"384 504 CURVE SMOOTH"
);
}
);
width = 688;
},
{
hints = (
{
horizontal = 1;
place = "{-128, 276}";
type = Stem;
},
{
horizontal = 1;
place = "{424, 160}";
type = Stem;
},
{
place = "{32, 212}";
type = Stem;
},
{
place = "{504, 212}";
type = Stem;
}
);
layerId = "FA792B6B-505C-4DC3-9C40-F9BEDA01661E";
paths = (
{
closed = 1;
nodes = (
"716 476 OFFCURVE",
"612 584 OFFCURVE",
"408 584 CURVE SMOOTH",
"176 584 OFFCURVE",
"32 440 OFFCURVE",
"32 248 CURVE SMOOTH",
"32 111 OFFCURVE",
"116 9 OFFCURVE",
"282 -9 CURVE",
"392 -128 LINE",
"624 -128 LINE",
"624 -116 LINE",
"504 16 LINE",
"638 67 OFFCURVE",
"716 183 OFFCURVE",
"716 324 CURVE SMOOTH"
);
},
{
closed = 1;
nodes = (
"284 148 OFFCURVE",
"244 188 OFFCURVE",
"244 252 CURVE SMOOTH",
"244 324 OFFCURVE",
"292 424 OFFCURVE",
"396 424 CURVE SMOOTH",
"464 424 OFFCURVE",
"504 384 OFFCURVE",
"504 320 CURVE SMOOTH",
"504 248 OFFCURVE",
"456 148 OFFCURVE",
"352 148 CURVE SMOOTH"
);
}
);
width = 736;
}
);
leftKerningGroup = c.sc;
note = q.sc;
rightKerningGroup = d.sc;
},
{
glyphname = r.sc;
lastChange = "2018-11-26 15:58:55 +0000";
layers = (
{
hints = (
{
horizontal = 1;
place = "{0, 21}";
target = up;
type = BottomGhost;
},
{
horizontal = 1;
place = "{164, 80}";
type = Stem;
},
{
horizontal = 1;
place = "{492, 80}";
type = Stem;
},
{
place = "{464, 92}";
type = Stem;
}
);
layerId = "5B01CDE3-ACDA-4D2B-9E53-A993574CFD15";
paths = (
{
closed = 1;
nodes = (
"44 0 LINE",
"136 0 LINE",
"168 164 LINE",
"304 164 LINE",
"408 0 LINE",
"512 0 LINE",
"512 8 LINE",
"397 183 LINE",
"500 223 OFFCURVE",
"557 320 OFFCURVE",
"556 408 CURVE SMOOTH",
"555 514 OFFCURVE",
"493 572 OFFCURVE",
"364 572 CURVE SMOOTH",
"156 572 LINE"
);
},
{
closed = 1;
nodes = (
"360 492 LINE SMOOTH",
"424 492 OFFCURVE",
"463 468 OFFCURVE",
"464 408 CURVE SMOOTH",
"465 325 OFFCURVE",
"394 244 OFFCURVE",
"292 244 CURVE SMOOTH",
"183 244 LINE",
"232 492 LINE"
);
}
);
width = 604;
},
{
hints = (
{
horizontal = 1;
place = "{0, 256}";
type = Stem;
},
{
horizontal = 1;
place = "{412, 160}";
type = Stem;
},
{
place = "{436, 212}";
type = Stem;
},
{
horizontal = 1;
place = "{108, 148}";
type = Stem;
}
);
layerId = "FA792B6B-505C-4DC3-9C40-F9BEDA01661E";
paths = (
{
closed = 1;
nodes = (
"16 0 LINE",
"224 0 LINE",
"245 108 LINE",
"306 108 LINE",
"356 0 LINE",
"576 0 LINE",
"576 8 LINE",
"492 151 LINE",
"585 197 OFFCURVE",
"648 277 OFFCURVE",
"648 372 CURVE",
"647 507 OFFCURVE",
"550 572 OFFCURVE",
"384 572 CURVE SMOOTH",
"128 572 LINE"
);
},
{
closed = 1;
nodes = (
"364 412 LINE SMOOTH",
"407 412 OFFCURVE",
"435 400 OFFCURVE",
"436 360 CURVE SMOOTH",
"436 316 OFFCURVE",
"405 256 OFFCURVE",
"320 256 CURVE SMOOTH",
"274 256 LINE",
"304 412 LINE"
);
}
);
width = 672;
}
);
leftKerningGroup = b.sc;
note = r.sc;
rightKerningGroup = r.sc;
},
{
glyphname = s.sc;
lastChange = "2018-11-26 15:58:55 +0000";
layers = (
{
hints = (
{
horizontal = 1;
place = "{-12, 80}";
type = Stem;
},
{
horizontal = 1;
place = "{504, 80}";
type = Stem;
},
{
place = "{92, 92}";
type = Stem;
},
{
place = "{376, 92}";
type = Stem;
},
{
horizontal = 1;
place = "{556, -20}";
target = down;
type = TopGhost;
}
);
layerId = "5B01CDE3-ACDA-4D2B-9E53-A993574CFD15";
paths = (
{
closed = 1;
nodes = (
"28 24 LINE",
"75 5 OFFCURVE",
"147 -12 OFFCURVE",
"220 -12 CURVE SMOOTH",
"376 -12 OFFCURVE",
"468 44 OFFCURVE",
"468 156 CURVE SMOOTH",
"468 240 OFFCURVE",
"401 279 OFFCURVE",
"328 296 CURVE SMOOTH",
"276 308 LINE SMOOTH",
"221 321 OFFCURVE",
"184 344 OFFCURVE",
"184 392 CURVE SMOOTH",
"184 476 OFFCURVE",
"264 504 OFFCURVE",
"356 504 CURVE SMOOTH",
"424 504 OFFCURVE",
"472 488 OFFCURVE",
"500 476 CURVE",
"508 476 LINE",
"526 556 LINE",
"492 572 OFFCURVE",
"433 584 OFFCURVE",
"360 584 CURVE SMOOTH",
"202 584 OFFCURVE",
"92 515 OFFCURVE",
"92 388 CURVE SMOOTH",
"92 292 OFFCURVE",
"159 250 OFFCURVE",
"236 232 CURVE SMOOTH",
"288 220 LINE SMOOTH",
"338 208 OFFCURVE",
"376 196 OFFCURVE",
"376 148 CURVE SMOOTH",
"376 92 OFFCURVE",
"312 68 OFFCURVE",
"224 68 CURVE SMOOTH",
"148 68 OFFCURVE",
"90 88 OFFCURVE",
"52 108 CURVE",
"44 108 LINE"
);
}
);
width = 544;
},
{
hints = (
{
horizontal = 1;
place = "{-12, 152}";
type = Stem;
},
{
horizontal = 1;
place = "{428, 152}";
type = Stem;
},
{
place = "{50, 204}";
type = Stem;
},
{
place = "{342, 208}";
type = Stem;
},
{
horizontal = 1;
place = "{552, -20}";
target = down;
type = TopGhost;
}
);
layerId = "FA792B6B-505C-4DC3-9C40-F9BEDA01661E";
paths = (
{
closed = 1;
nodes = (
"4 28 LINE",
"60 5 OFFCURVE",
"157 -12 OFFCURVE",
"238 -12 CURVE SMOOTH",
"402 -12 OFFCURVE",
"550 36 OFFCURVE",
"550 184 CURVE SMOOTH",
"550 288 OFFCURVE",
"458 324 OFFCURVE",
"362 336 CURVE SMOOTH",
"330 340 LINE SMOOTH",
"273 347 OFFCURVE",
"254 360 OFFCURVE",
"254 384 CURVE SMOOTH",
"254 414 OFFCURVE",
"290 428 OFFCURVE",
"362 428 CURVE SMOOTH",
"442 428 OFFCURVE",
"504 413 OFFCURVE",
"542 396 CURVE",
"554 396 LINE",
"584 552 LINE",
"542 568 OFFCURVE",
"446 580 OFFCURVE",
"378 580 CURVE SMOOTH",
"122 580 OFFCURVE",
"50 492 OFFCURVE",
"50 360 CURVE SMOOTH",
"50 272 OFFCURVE",
"123 211 OFFCURVE",
"254 192 CURVE SMOOTH",
"282 188 LINE SMOOTH",
"327 182 OFFCURVE",
"342 180 OFFCURVE",
"342 164 CURVE SMOOTH",
"342 144 OFFCURVE",
"311 140 OFFCURVE",
"262 140 CURVE SMOOTH",
"172 140 OFFCURVE",
"87 161 OFFCURVE",
"44 188 CURVE",
"36 188 LINE"
);
}
);
width = 588;
}
);
leftKerningGroup = s.sc;
note = s.sc;
rightKerningGroup = s.sc;
},
{
glyphname = t.sc;
lastChange = "2018-11-26 15:58:55 +0000";
layers = (
{
hints = (
{
horizontal = 1;
place = "{0, 21}";
target = up;
type = BottomGhost;
},
{
horizontal = 1;
place = "{492, 80}";
type = Stem;
},
{
place = "{62, 500}";
type = Stem;
}
);
layerId = "5B01CDE3-ACDA-4D2B-9E53-A993574CFD15";
paths = (
{
closed = 1;
nodes = (
"62 492 LINE",
"258 492 LINE",
"162 0 LINE",
"254 0 LINE",
"350 492 LINE",
"546 492 LINE",
"562 572 LINE",
"78 572 LINE"
);
}
);
width = 516;
},
{
hints = (
{
horizontal = 1;
place = "{0, 21}";
target = up;
type = BottomGhost;
},
{
horizontal = 1;
place = "{412, 160}";
type = Stem;
},
{
place = "{54, 574}";
type = Stem;
}
);
layerId = "FA792B6B-505C-4DC3-9C40-F9BEDA01661E";
paths = (
{
closed = 1;
nodes = (
"54 412 LINE",
"222 412 LINE",
"144 0 LINE",
"352 0 LINE",
"430 412 LINE",
"596 412 LINE",
"628 572 LINE",
"85 572 LINE"
);
}
);
width = 592;
}
);
leftKerningGroup = t.sc;
note = t.sc;
rightKerningGroup = t.sc;
},
{
glyphname = u.sc;
lastChange = "2018-11-26 15:58:55 +0000";
layers = (
{
hints = (
{
horizontal = 1;
place = "{-12, 84}";
type = Stem;
},
{
horizontal = 1;
place = "{572, -20}";
target = down;
type = TopGhost;
},
{
place = "{70, 93}";
type = Stem;
}
);
layerId = "5B01CDE3-ACDA-4D2B-9E53-A993574CFD15";
paths = (
{
closed = 1;
nodes = (
"428 -12 OFFCURVE",
"508 58 OFFCURVE",
"540 216 CURVE SMOOTH",
"612 572 LINE",
"520 572 LINE",
"448 220 LINE SMOOTH",
"426 112 OFFCURVE",
"373 72 OFFCURVE",
"280 72 CURVE SMOOTH",
"177 72 OFFCURVE",
"150 130 OFFCURVE",
"168 220 CURVE SMOOTH",
"240 572 LINE",
"148 572 LINE",
"76 220 LINE SMOOTH",
"45 68 OFFCURVE",
"126 -12 OFFCURVE",
"276 -12 CURVE SMOOTH"
);
}
);
width = 632;
},
{
hints = (
{
horizontal = 1;
place = "{-12, 160}";
type = Stem;
},
{
horizontal = 1;
place = "{572, -20}";
target = down;
type = TopGhost;
},
{
place = "{50, 210}";
type = Stem;
}
);
layerId = "FA792B6B-505C-4DC3-9C40-F9BEDA01661E";
paths = (
{
closed = 1;
nodes = (
"56 252 LINE SMOOTH",
"28 101 OFFCURVE",
"87 -12 OFFCURVE",
"304 -12 CURVE SMOOTH",
"502 -12 OFFCURVE",
"596 62 OFFCURVE",
"632 252 CURVE SMOOTH",
"692 572 LINE",
"488 572 LINE",
"424 244 LINE SMOOTH",
"413 190 OFFCURVE",
"389 148 OFFCURVE",
"324 148 CURVE SMOOTH",
"259 148 OFFCURVE",
"253 190 OFFCURVE",
"264 244 CURVE SMOOTH",
"328 572 LINE",
"116 572 LINE"
);
}
);
width = 688;
}
);
leftKerningGroup = u.sc;
note = u.sc;
rightKerningGroup = u.sc;
},
{
glyphname = v.sc;
lastChange = "2018-11-26 15:58:55 +0000";
layers = (
{
hints = (
{
horizontal = 1;
place = "{-8, 80}";
type = Stem;
},
{
horizontal = 1;
place = "{572, -20}";
target = down;
type = TopGhost;
},
{
place = "{40, 564}";
type = Stem;
}
);
layerId = "5B01CDE3-ACDA-4D2B-9E53-A993574CFD15";
paths = (
{
closed = 1;
nodes = (
"44 8 LINE",
"87 -2 OFFCURVE",
"129 -8 OFFCURVE",
"172 -8 CURVE SMOOTH",
"343 -8 OFFCURVE",
"409 53 OFFCURVE",
"460 188 CURVE SMOOTH",
"604 572 LINE",
"508 572 LINE",
"368 192 LINE SMOOTH",
"339 114 OFFCURVE",
"301 72 OFFCURVE",
"192 72 CURVE SMOOTH",
"175 72 OFFCURVE",
"160 74 OFFCURVE",
"147 76 CURVE",
"156 108 LINE",
"248 572 LINE",
"156 572 LINE",
"68 124 LINE SMOOTH",
"62 92 OFFCURVE",
"52 52 OFFCURVE",
"40 20 CURVE"
);
}
);
width = 596;
},
{
hints = (
{
horizontal = 1;
place = "{-8, 160}";
type = Stem;
},
{
horizontal = 1;
place = "{572, -20}";
target = down;
type = TopGhost;
},
{
place = "{12, 660}";
type = Stem;
}
);
layerId = "FA792B6B-505C-4DC3-9C40-F9BEDA01661E";
paths = (
{
closed = 1;
nodes = (
"16 20 LINE",
"67 7 OFFCURVE",
"110 -8 OFFCURVE",
"202 -8 CURVE SMOOTH",
"344 -8 OFFCURVE",
"459 8 OFFCURVE",
"524 180 CURVE SMOOTH",
"672 572 LINE",
"464 572 LINE",
"332 212 LINE SMOOTH",
"316 169 OFFCURVE",
"295 152 OFFCURVE",
"244 152 CURVE SMOOTH",
"243 152 LINE",
"251 168 OFFCURVE",
"260 187 OFFCURVE",
"264 208 CURVE SMOOTH",
"332 572 LINE",
"124 572 LINE",
"44 148 LINE SMOOTH",
"38 116 OFFCURVE",
"25 60 OFFCURVE",
"12 32 CURVE"
);
}
);
width = 636;
}
);
leftKerningGroup = b.sc;
note = v.sc;
rightKerningGroup = v.sc;
},
{
glyphname = w.sc;
lastChange = "2018-11-26 15:58:55 +0000";
layers = (
{
hints = (
{
horizontal = 1;
place = "{4, 64}";
type = Stem;
},
{
horizontal = 1;
place = "{572, -20}";
target = down;
type = TopGhost;
},
{
place = "{68, 884}";
type = Stem;
},
{
horizontal = 1;
place = "{-8, 76}";
type = Stem;
}
);
layerId = "5B01CDE3-ACDA-4D2B-9E53-A993574CFD15";
paths = (
{
closed = 1;
nodes = (
"72 4 LINE",
"110 -4 OFFCURVE",
"146 -8 OFFCURVE",
"184 -8 CURVE SMOOTH",
"320 -8 OFFCURVE",
"379 59 OFFCURVE",
"432 184 CURVE SMOOTH",
"441 204 LINE",
"436 140 LINE SMOOTH",
"434 107 OFFCURVE",
"421 49 OFFCURVE",
"412 16 CURVE",
"416 4 LINE",
"454 -3 OFFCURVE",
"493 -8 OFFCURVE",
"532 -8 CURVE SMOOTH",
"674 -8 OFFCURVE",
"739 60 OFFCURVE",
"792 188 CURVE SMOOTH",
"952 572 LINE",
"856 572 LINE",
"700 188 LINE SMOOTH",
"670 115 OFFCURVE",
"633 68 OFFCURVE",
"552 68 CURVE SMOOTH",
"537 68 OFFCURVE",
"526 69 OFFCURVE",
"516 71 CURVE",
"521 92 OFFCURVE",
"525 120 OFFCURVE",
"528 152 CURVE SMOOTH",
"560 572 LINE",
"468 572 LINE",
"457 426 LINE",
"356 192 LINE SMOOTH",
"324 119 OFFCURVE",
"288 68 OFFCURVE",
"208 68 CURVE SMOOTH",
"192 68 OFFCURVE",
"179 69 OFFCURVE",
"169 71 CURVE",
"174 92 OFFCURVE",
"177 119 OFFCURVE",
"180 152 CURVE SMOOTH",
"216 572 LINE",
"124 572 LINE",
"88 140 LINE SMOOTH",
"84 86 OFFCURVE",
"78 51 OFFCURVE",
"68 16 CURVE"
);
}
);
width = 928;
},
{
hints = (
{
horizontal = 1;
place = "{-5, 21}";
target = up;
type = BottomGhost;
},
{
horizontal = 1;
place = "{572, -20}";
target = down;
type = TopGhost;
},
{
place = "{26, 1021}";
type = Stem;
},
{
horizontal = 1;
place = "{-5, 159}";
type = Stem;
}
);
layerId = "FA792B6B-505C-4DC3-9C40-F9BEDA01661E";
paths = (
{
closed = 1;
nodes = (
"35 11 LINE",
"64 1 OFFCURVE",
"128 -5 OFFCURVE",
"177 -5 CURVE SMOOTH",
"273 -5 OFFCURVE",
"359 29 OFFCURVE",
"413 84 CURVE",
"409 62 OFFCURVE",
"404 41 OFFCURVE",
"397 21 CURVE",
"406 11 LINE",
"453 1 OFFCURVE",
"506 -5 OFFCURVE",
"561 -5 CURVE SMOOTH",
"712 -5 OFFCURVE",
"865 47 OFFCURVE",
"916 191 CURVE SMOOTH",
"1047 572 LINE",
"836 572 LINE",
"719 228 LINE SMOOTH",
"703 180 OFFCURVE",
"668 160 OFFCURVE",
"622 155 CURVE",
"626 175 OFFCURVE",
"629 199 OFFCURVE",
"633 225 CURVE SMOOTH",
"677 572 LINE",
"474 572 LINE",
"453 407 LINE",
"369 233 LINE SMOOTH",
"350 192 OFFCURVE",
"319 154 OFFCURVE",
"259 154 CURVE SMOOTH",
"256 154 LINE",
"260 174 OFFCURVE",
"264 199 OFFCURVE",
"267 225 CURVE SMOOTH",
"311 572 LINE",
"103 572 LINE",
"50 148 LINE SMOOTH",
"46 116 OFFCURVE",
"40 60 OFFCURVE",
"26 21 CURVE"
);
}
);
width = 1008;
}
);
leftKerningGroup = w.sc;
note = w.sc;
rightKerningGroup = w.sc;
},
{
glyphname = x.sc;
lastChange = "2018-11-26 15:58:55 +0000";
layers = (
{
hints = (
{
horizontal = 1;
place = "{0, 21}";
target = up;
type = BottomGhost;
},
{
horizontal = 1;
place = "{572, -20}";
target = down;
type = TopGhost;
},
{
place = "{-16, 628}";
type = Stem;
}
);
layerId = "5B01CDE3-ACDA-4D2B-9E53-A993574CFD15";
paths = (
{
closed = 1;
nodes = (
"404 0 LINE",
"500 0 LINE",
"500 8 LINE",
"350 282 LINE",
"612 564 LINE",
"612 572 LINE",
"512 572 LINE",
"311 353 LINE",
"192 572 LINE",
"96 572 LINE",
"96 564 LINE",
"248 285 LINE",
"-16 8 LINE",
"-16 0 LINE",
"84 0 LINE",
"287 214 LINE"
);
}
);
width = 588;
},
{
hints = (
{
horizontal = 1;
place = "{0, 21}";
target = up;
type = BottomGhost;
},
{
horizontal = 1;
place = "{572, -20}";
target = down;
type = TopGhost;
},
{
place = "{-40, 752}";
type = Stem;
}
);
layerId = "FA792B6B-505C-4DC3-9C40-F9BEDA01661E";
paths = (
{
closed = 1;
nodes = (
"368 0 LINE",
"600 0 LINE",
"600 8 LINE",
"452 290 LINE",
"712 560 LINE",
"712 572 LINE",
"476 572 LINE",
"370 445 LINE",
"304 572 LINE",
"68 572 LINE",
"68 560 LINE",
"219 277 LINE",
"-40 8 LINE",
"-40 0 LINE",
"196 0 LINE",
"301 124 LINE"
);
}
);
width = 660;
}
);
leftKerningGroup = x.sc;
note = x.sc;
rightKerningGroup = x.sc;
},
{
glyphname = y.sc;
lastChange = "2018-11-26 15:58:55 +0000";
layers = (
{
hints = (
{
horizontal = 1;
place = "{0, 21}";
target = up;
type = BottomGhost;
},
{
horizontal = 1;
place = "{572, -20}";
target = down;
type = TopGhost;
},
{
place = "{66, 516}";
type = Stem;
}
);
layerId = "5B01CDE3-ACDA-4D2B-9E53-A993574CFD15";
paths = (
{
closed = 1;
nodes = (
"162 0 LINE",
"254 0 LINE",
"300 235 LINE",
"582 564 LINE",
"582 572 LINE",
"482 572 LINE",
"267 315 LINE",
"158 572 LINE",
"66 572 LINE",
"66 564 LINE",
"209 238 LINE"
);
}
);
width = 528;
},
{
hints = (
{
horizontal = 1;
place = "{0, 21}";
target = up;
type = BottomGhost;
},
{
horizontal = 1;
place = "{572, -20}";
target = down;
type = TopGhost;
},
{
place = "{60, 600}";
type = Stem;
}
);
layerId = "FA792B6B-505C-4DC3-9C40-F9BEDA01661E";
paths = (
{
closed = 1;
nodes = (
"140 0 LINE",
"352 0 LINE",
"395 227 LINE",
"660 560 LINE",
"660 572 LINE",
"444 572 LINE",
"327 405 LINE",
"272 572 LINE",
"60 572 LINE",
"60 560 LINE",
"185 238 LINE"
);
}
);
width = 600;
}
);
leftKerningGroup = y.sc;
note = y.sc;
rightKerningGroup = y.sc;
},
{
glyphname = z.sc;
lastChange = "2018-11-26 15:58:55 +0000";
layers = (
{
hints = (
{
horizontal = 1;
place = "{0, 80}";
type = Stem;
},
{
horizontal = 1;
place = "{492, 80}";
type = Stem;
},
{
place = "{-1, 540}";
type = Stem;
}
);
layerId = "5B01CDE3-ACDA-4D2B-9E53-A993574CFD15";
paths = (
{
closed = 1;
nodes = (
"103 492 LINE",
"396 492 LINE",
"31 80 LINE SMOOTH",
"-1 45 OFFCURVE",
"-2 25 OFFCURVE",
"-1 8 CURVE",
"7 0 LINE",
"439 0 LINE",
"451 80 LINE",
"142 80 LINE",
"507 492 LINE SMOOTH",
"539 528 OFFCURVE",
"540 546 OFFCURVE",
"539 564 CURVE",
"531 572 LINE",
"115 572 LINE"
);
}
);
width = 538;
},
{
hints = (
{
horizontal = 1;
place = "{0, 160}";
type = Stem;
},
{
horizontal = 1;
place = "{412, 160}";
type = Stem;
},
{
place = "{-11, 628}";
type = Stem;
}
);
layerId = "FA792B6B-505C-4DC3-9C40-F9BEDA01661E";
paths = (
{
closed = 1;
nodes = (
"79 412 LINE",
"306 412 LINE",
"42 138 LINE SMOOTH",
"13 108 OFFCURVE",
"-16 59 OFFCURVE",
"-10 10 CURVE",
"1 0 LINE",
"510 0 LINE",
"541 160 LINE",
"300 160 LINE",
"564 434 LINE SMOOTH",
"598 467 OFFCURVE",
"623 508 OFFCURVE",
"616 561 CURVE",
"609 572 LINE",
"110 572 LINE"
);
}
);
width = 605;
}
);
leftKerningGroup = z.sc;
note = z.sc;
rightKerningGroup = z.sc;
},
{
glyphname = ampersand.sc;
lastChange = "2018-11-26 15:58:55 +0000";
layers = (
{
hints = (
{
horizontal = 1;
place = "{-12, 76}";
type = Stem;
},
{
horizontal = 1;
place = "{236, 76}";
type = Stem;
},
{
horizontal = 1;
place = "{500, 80}";
type = Stem;
},
{
place = "{48, 88}";
type = Stem;
},
{
place = "{84, 92}";
type = Stem;
},
{
horizontal = 1;
place = "{552, -20}";
target = down;
type = TopGhost;
}
);
layerId = "5B01CDE3-ACDA-4D2B-9E53-A993574CFD15";
paths = (
{
closed = 1;
nodes = (
"48 20 OFFCURVE",
"148 -12 OFFCURVE",
"256 -12 CURVE SMOOTH",
"320 -12 OFFCURVE",
"381 3 OFFCURVE",
"428 20 CURVE",
"432 24 LINE",
"432 64 OFFCURVE",
"441 125 OFFCURVE",
"448 160 CURVE SMOOTH",
"464 236 LINE",
"532 236 LINE",
"548 312 LINE",
"284 312 LINE SMOOTH",
"222 312 OFFCURVE",
"176 332 OFFCURVE",
"176 388 CURVE SMOOTH",
"176 468 OFFCURVE",
"256 500 OFFCURVE",
"348 500 CURVE SMOOTH",
"419 500 OFFCURVE",
"471 485 OFFCURVE",
"496 472 CURVE",
"504 472 LINE",
"522 552 LINE",
"488 568 OFFCURVE",
"415 580 OFFCURVE",
"364 580 CURVE SMOOTH",
"196 580 OFFCURVE",
"84 512 OFFCURVE",
"84 380 CURVE SMOOTH",
"84 330 OFFCURVE",
"110 296 OFFCURVE",
"148 275 CURVE",
"86 247 OFFCURVE",
"48 197 OFFCURVE",
"48 132 CURVE SMOOTH"
);
},
{
closed = 1;
nodes = (
"192 64 OFFCURVE",
"136 77 OFFCURVE",
"136 140 CURVE SMOOTH",
"136 204 OFFCURVE",
"188 236 OFFCURVE",
"276 236 CURVE SMOOTH",
"376 236 LINE",
"356 136 LINE SMOOTH",
"351 113 OFFCURVE",
"348 93 OFFCURVE",
"348 76 CURVE",
"321 67 OFFCURVE",
"295 64 OFFCURVE",
"264 64 CURVE SMOOTH"
);
}
);
width = 580;
},
{
hints = (
{
horizontal = 1;
place = "{-12, 140}";
type = Stem;
},
{
horizontal = 1;
place = "{220, 132}";
type = Stem;
},
{
horizontal = 1;
place = "{428, 152}";
type = Stem;
},
{
place = "{20, 200}";
type = Stem;
},
{
place = "{60, 212}";
type = Stem;
},
{
horizontal = 1;
place = "{548, -20}";
target = down;
type = TopGhost;
}
);
layerId = "FA792B6B-505C-4DC3-9C40-F9BEDA01661E";
paths = (
{
closed = 1;
nodes = (
"20 44 OFFCURVE",
"117 -12 OFFCURVE",
"268 -12 CURVE SMOOTH",
"353 -12 OFFCURVE",
"432 4 OFFCURVE",
"504 24 CURVE",
"508 28 LINE",
"512 79 OFFCURVE",
"517 116 OFFCURVE",
"528 168 CURVE SMOOTH",
"539 220 LINE",
"592 220 LINE",
"617 352 LINE",
"348 352 LINE SMOOTH",
"307 352 OFFCURVE",
"272 356 OFFCURVE",
"272 388 CURVE SMOOTH",
"272 412 OFFCURVE",
"296 428 OFFCURVE",
"376 428 CURVE SMOOTH",
"448 428 OFFCURVE",
"499 417 OFFCURVE",
"536 400 CURVE",
"548 400 LINE",
"576 548 LINE",
"536 564 OFFCURVE",
"476 580 OFFCURVE",
"380 580 CURVE SMOOTH",
"148 580 OFFCURVE",
"60 504 OFFCURVE",
"60 384 CURVE SMOOTH",
"60 340 OFFCURVE",
"81 304 OFFCURVE",
"114 279 CURVE",
"56 258 OFFCURVE",
"19 219 OFFCURVE",
"20 152 CURVE SMOOTH"
);
},
{
closed = 1;
nodes = (
"249 128 OFFCURVE",
"220 141 OFFCURVE",
"220 172 CURVE SMOOTH",
"220 205 OFFCURVE",
"243 218 OFFCURVE",
"285 220 CURVE",
"347 220 LINE",
"344 204 LINE",
"338 179 OFFCURVE",
"335 157 OFFCURVE",
"337 138 CURVE",
"331 134 OFFCURVE",
"315 128 OFFCURVE",
"288 128 CURVE SMOOTH"
);
}
);
width = 624;
}
);
note = ampersand.sc;
rightKerningGroup = ampersand.sc;
},
{
glyphname = fi.sc;
lastChange = "2018-11-26 15:58:55 +0000";
layers = (
{
hints = (
{
horizontal = 1;
place = "{0, 21}";
target = up;
type = BottomGhost;
},
{
horizontal = 1;
place = "{216, 76}";
type = Stem;
},
{
horizontal = 1;
place = "{492, 80}";
type = Stem;
},
{
place = "{44, 724}";
type = Stem;
}
);
layerId = "5B01CDE3-ACDA-4D2B-9E53-A993574CFD15";
paths = (
{
closed = 1;
nodes = (
"44 0 LINE",
"136 0 LINE",
"178 216 LINE",
"420 216 LINE",
"436 292 LINE",
"193 292 LINE",
"232 492 LINE",
"520 492 LINE",
"536 572 LINE",
"156 572 LINE"
);
},
{
closed = 1;
nodes = (
"564 0 LINE",
"656 0 LINE",
"768 572 LINE",
"676 572 LINE"
);
}
);
width = 804;
},
{
hints = (
{
horizontal = 1;
place = "{0, 21}";
target = up;
type = BottomGhost;
},
{
horizontal = 1;
place = "{164, 148}";
type = Stem;
},
{
horizontal = 1;
place = "{412, 160}";
type = Stem;
},
{
place = "{16, 840}";
type = Stem;
}
);
layerId = "FA792B6B-505C-4DC3-9C40-F9BEDA01661E";
paths = (
{
closed = 1;
nodes = (
"16 0 LINE",
"224 0 LINE",
"255 164 LINE",
"432 164 LINE",
"460 312 LINE",
"283 312 LINE",
"302 412 LINE",
"520 412 LINE",
"552 572 LINE",
"124 572 LINE"
);
},
{
closed = 1;
nodes = (
"540 0 LINE",
"748 0 LINE",
"856 572 LINE",
"648 572 LINE"
);
}
);
width = 860;
}
);
leftKerningGroup = b.sc;
note = fi.sc;
},
{
glyphname = fl.sc;
lastChange = "2018-11-26 15:58:55 +0000";
layers = (
{
hints = (
{
horizontal = 1;
place = "{0, 80}";
type = Stem;
},
{
horizontal = 1;
place = "{216, 76}";
type = Stem;
},
{
horizontal = 1;
place = "{492, 80}";
type = Stem;
},
{
place = "{44, 888}";
type = Stem;
}
);
layerId = "5B01CDE3-ACDA-4D2B-9E53-A993574CFD15";
paths = (
{
closed = 1;
nodes = (
"44 0 LINE",
"136 0 LINE",
"178 216 LINE",
"420 216 LINE",
"436 292 LINE",
"193 292 LINE",
"232 492 LINE",
"520 492 LINE",
"536 572 LINE",
"156 572 LINE"
);
},
{
closed = 1;
nodes = (
"564 0 LINE",
"916 0 LINE",
"932 80 LINE",
"671 80 LINE",
"768 572 LINE",
"676 572 LINE"
);
}
);
width = 1004;
},
{
hints = (
{
horizontal = 1;
place = "{0, 160}";
type = Stem;
},
{
horizontal = 1;
place = "{412, 160}";
type = Stem;
},
{
place = "{16, 968}";
type = Stem;
},
{
horizontal = 1;
place = "{164, 148}";
type = Stem;
}
);
layerId = "FA792B6B-505C-4DC3-9C40-F9BEDA01661E";
paths = (
{
closed = 1;
nodes = (
"16 0 LINE",
"224 0 LINE",
"255 164 LINE",
"432 164 LINE",
"460 312 LINE",
"283 312 LINE",
"302 412 LINE",
"520 412 LINE",
"552 572 LINE",
"124 572 LINE"
);
},
{
closed = 1;
nodes = (
"540 0 LINE",
"952 0 LINE",
"984 160 LINE",
"778 160 LINE",
"856 572 LINE",
"648 572 LINE"
);
}
);
width = 1036;
}
);
leftKerningGroup = b.sc;
note = fl.sc;
rightKerningGroup = l.sc;
},
{
glyphname = germandbls.sc;
lastChange = "2018-11-26 15:58:55 +0000";
layers = (
{
hints = (
{
horizontal = 1;
place = "{-12, 80}";
type = Stem;
},
{
horizontal = 1;
place = "{504, 80}";
type = Stem;
},
{
place = "{92, 92}";
type = Stem;
},
{
place = "{376, 92}";
type = Stem;
},
{
place = "{636, 92}";
type = Stem;
},
{
place = "{920, 92}";
type = Stem;
},
{
horizontal = 1;
place = "{556, -20}";
target = down;
type = TopGhost;
}
);
layerId = "5B01CDE3-ACDA-4D2B-9E53-A993574CFD15";
paths = (
{
closed = 1;
nodes = (
"28 24 LINE",
"75 5 OFFCURVE",
"147 -12 OFFCURVE",
"220 -12 CURVE SMOOTH",
"376 -12 OFFCURVE",
"468 44 OFFCURVE",
"468 156 CURVE SMOOTH",
"468 240 OFFCURVE",
"401 279 OFFCURVE",
"328 296 CURVE SMOOTH",
"276 308 LINE SMOOTH",
"221 321 OFFCURVE",
"184 344 OFFCURVE",
"184 392 CURVE SMOOTH",
"184 476 OFFCURVE",
"264 504 OFFCURVE",
"356 504 CURVE SMOOTH",
"424 504 OFFCURVE",
"472 488 OFFCURVE",
"500 476 CURVE",
"508 476 LINE",
"526 556 LINE",
"492 572 OFFCURVE",
"433 584 OFFCURVE",
"360 584 CURVE SMOOTH",
"202 584 OFFCURVE",
"92 515 OFFCURVE",
"92 388 CURVE SMOOTH",
"92 292 OFFCURVE",
"159 250 OFFCURVE",
"236 232 CURVE SMOOTH",
"288 220 LINE SMOOTH",
"338 208 OFFCURVE",
"376 196 OFFCURVE",
"376 148 CURVE SMOOTH",
"376 92 OFFCURVE",
"312 68 OFFCURVE",
"224 68 CURVE SMOOTH",
"148 68 OFFCURVE",
"90 88 OFFCURVE",
"52 108 CURVE",
"44 108 LINE"
);
},
{
closed = 1;
nodes = (
"572 24 LINE",
"619 5 OFFCURVE",
"691 -12 OFFCURVE",
"764 -12 CURVE SMOOTH",
"920 -12 OFFCURVE",
"1012 44 OFFCURVE",
"1012 156 CURVE SMOOTH",
"1012 240 OFFCURVE",
"945 279 OFFCURVE",
"872 296 CURVE SMOOTH",
"820 308 LINE SMOOTH",
"765 321 OFFCURVE",
"728 344 OFFCURVE",
"728 392 CURVE SMOOTH",
"728 476 OFFCURVE",
"808 504 OFFCURVE",
"900 504 CURVE SMOOTH",
"968 504 OFFCURVE",
"1016 488 OFFCURVE",
"1044 476 CURVE",
"1052 476 LINE",
"1070 556 LINE",
"1036 572 OFFCURVE",
"977 584 OFFCURVE",
"904 584 CURVE SMOOTH",
"746 584 OFFCURVE",
"636 515 OFFCURVE",
"636 388 CURVE SMOOTH",
"636 292 OFFCURVE",
"703 250 OFFCURVE",
"780 232 CURVE SMOOTH",
"832 220 LINE SMOOTH",
"882 208 OFFCURVE",
"920 196 OFFCURVE",
"920 148 CURVE SMOOTH",
"920 92 OFFCURVE",
"856 68 OFFCURVE",
"768 68 CURVE SMOOTH",
"692 68 OFFCURVE",
"634 88 OFFCURVE",
"596 108 CURVE",
"588 108 LINE"
);
}
);
width = 1088;
},
{
hints = (
{
horizontal = 1;
place = "{-12, 152}";
type = Stem;
},
{
horizontal = 1;
place = "{428, 152}";
type = Stem;
},
{
place = "{50, 204}";
type = Stem;
},
{
place = "{342, 208}";
type = Stem;
},
{
place = "{638, 204}";
type = Stem;
},
{
place = "{930, 208}";
type = Stem;
},
{
horizontal = 1;
place = "{552, -20}";
target = down;
type = TopGhost;
}
);
layerId = "FA792B6B-505C-4DC3-9C40-F9BEDA01661E";
paths = (
{
closed = 1;
nodes = (
"4 28 LINE",
"60 5 OFFCURVE",
"157 -12 OFFCURVE",
"238 -12 CURVE SMOOTH",
"402 -12 OFFCURVE",
"550 36 OFFCURVE",
"550 184 CURVE SMOOTH",
"550 288 OFFCURVE",
"458 324 OFFCURVE",
"362 336 CURVE SMOOTH",
"330 340 LINE SMOOTH",
"273 347 OFFCURVE",
"254 360 OFFCURVE",
"254 384 CURVE SMOOTH",
"254 414 OFFCURVE",
"290 428 OFFCURVE",
"362 428 CURVE SMOOTH",
"442 428 OFFCURVE",
"504 413 OFFCURVE",
"542 396 CURVE",
"554 396 LINE",
"584 552 LINE",
"542 568 OFFCURVE",
"446 580 OFFCURVE",
"378 580 CURVE SMOOTH",
"122 580 OFFCURVE",
"50 492 OFFCURVE",
"50 360 CURVE SMOOTH",
"50 272 OFFCURVE",
"123 211 OFFCURVE",
"254 192 CURVE SMOOTH",
"282 188 LINE SMOOTH",
"327 182 OFFCURVE",
"342 180 OFFCURVE",
"342 164 CURVE SMOOTH",
"342 144 OFFCURVE",
"311 140 OFFCURVE",
"262 140 CURVE SMOOTH",
"172 140 OFFCURVE",
"87 161 OFFCURVE",
"44 188 CURVE",
"36 188 LINE"
);
},
{
closed = 1;
nodes = (
"592 28 LINE",
"648 5 OFFCURVE",
"745 -12 OFFCURVE",
"826 -12 CURVE SMOOTH",
"990 -12 OFFCURVE",
"1138 36 OFFCURVE",
"1138 184 CURVE SMOOTH",
"1138 288 OFFCURVE",
"1046 324 OFFCURVE",
"950 336 CURVE SMOOTH",
"918 340 LINE SMOOTH",
"861 347 OFFCURVE",
"842 360 OFFCURVE",
"842 384 CURVE SMOOTH",
"842 414 OFFCURVE",
"878 428 OFFCURVE",
"950 428 CURVE SMOOTH",
"1030 428 OFFCURVE",
"1092 413 OFFCURVE",
"1130 396 CURVE",
"1142 396 LINE",
"1172 552 LINE",
"1130 568 OFFCURVE",
"1034 580 OFFCURVE",
"966 580 CURVE SMOOTH",
"710 580 OFFCURVE",
"638 492 OFFCURVE",
"638 360 CURVE SMOOTH",
"638 272 OFFCURVE",
"711 211 OFFCURVE",
"842 192 CURVE SMOOTH",
"870 188 LINE SMOOTH",
"915 182 OFFCURVE",
"930 180 OFFCURVE",
"930 164 CURVE SMOOTH",
"930 144 OFFCURVE",
"899 140 OFFCURVE",
"850 140 CURVE SMOOTH",
"760 140 OFFCURVE",
"675 161 OFFCURVE",
"632 188 CURVE",
"624 188 LINE"
);
}
);
width = 1176;
}
);
leftKerningGroup = s.sc;
note = germandbls.sc;
rightKerningGroup = s.sc;
},
{
glyphname = a;
lastChange = "2018-11-26 15:58:55 +0000";
layers = (
{
hints = (
{
horizontal = 1;
place = "{-12, 76}";
type = Stem;
},
{
horizontal = 1;
place = "{256, 76}";
type = Stem;
},
{
horizontal = 1;
place = "{476, 80}";
type = Stem;
},
{
place = "{39, 92}";
type = Stem;
},
{
place = "{431, 90}";
type = Stem;
},
{
place = "{384, 87}";
type = Stem;
}
);
layerId = "5B01CDE3-ACDA-4D2B-9E53-A993574CFD15";
paths = (
{
closed = 1;
nodes = (
"39 44 OFFCURVE",
"115 -12 OFFCURVE",
"251 -12 CURVE SMOOTH",
"327 -12 OFFCURVE",
"399 4 OFFCURVE",
"467 28 CURVE",
"471 36 LINE",
"471 88 OFFCURVE",
"480 141 OFFCURVE",
"491 200 CURVE SMOOTH",
"515 324 LINE SMOOTH",
"544 475 OFFCURVE",
"479 556 OFFCURVE",
"311 556 CURVE SMOOTH",
"247 556 OFFCURVE",
"203 546 OFFCURVE",
"151 528 CURVE",
"135 444 LINE",
"147 444 LINE",
"183 460 OFFCURVE",
"235 476 OFFCURVE",
"295 476 CURVE SMOOTH",
"412 476 OFFCURVE",
"447 434 OFFCURVE",
"426 328 CURVE SMOOTH",
"422 310 LINE",
"399 318 OFFCURVE",
"354 332 OFFCURVE",
"291 332 CURVE SMOOTH",
"155 332 OFFCURVE",
"39 276 OFFCURVE",
"39 144 CURVE SMOOTH"
);
},
{
closed = 1;
nodes = (
"346 70 OFFCURVE",
"308 64 OFFCURVE",
"255 64 CURVE SMOOTH",
"179 64 OFFCURVE",
"131 90 OFFCURVE",
"131 148 CURVE SMOOTH",
"131 224 OFFCURVE",
"191 256 OFFCURVE",
"295 256 CURVE SMOOTH",
"347 256 OFFCURVE",
"381 247 OFFCURVE",
"408 236 CURVE",
"391 148 LINE SMOOTH",
"387 125 OFFCURVE",
"384 105 OFFCURVE",
"384 84 CURVE"
);
}
);
width = 590;
},
{
hints = (
{
horizontal = 1;
place = "{-12, 132}";
type = Stem;
},
{
horizontal = 1;
place = "{220, 116}";
type = Stem;
},
{
horizontal = 1;
place = "{412, 152}";
type = Stem;
},
{
place = "{24, 192}";
type = Stem;
},
{
place = "{349, 231}";
type = Stem;
}
);
layerId = "FA792B6B-505C-4DC3-9C40-F9BEDA01661E";
paths = (
{
closed = 1;
nodes = (
"24 28 OFFCURVE",
"112 -12 OFFCURVE",
"284 -12 CURVE SMOOTH",
"372 -12 OFFCURVE",
"448 0 OFFCURVE",
"524 20 CURVE",
"532 28 LINE",
"528 80 OFFCURVE",
"542 141 OFFCURVE",
"552 192 CURVE SMOOTH",
"572 296 LINE SMOOTH",
"610 493 OFFCURVE",
"511 564 OFFCURVE",
"316 564 CURVE SMOOTH",
"256 564 OFFCURVE",
"192 556 OFFCURVE",
"142 544 CURVE",
"112 388 LINE",
"124 388 LINE",
"159 402 OFFCURVE",
"212 412 OFFCURVE",
"272 412 CURVE SMOOTH",
"342 412 OFFCURVE",
"381 392 OFFCURVE",
"371 328 CURVE",
"349 332 OFFCURVE",
"323 336 OFFCURVE",
"292 336 CURVE SMOOTH",
"140 336 OFFCURVE",
"24 284 OFFCURVE",
"24 152 CURVE SMOOTH"
);
},
{
closed = 1;
nodes = (
"326 122 OFFCURVE",
"304 120 OFFCURVE",
"292 120 CURVE SMOOTH",
"244 120 OFFCURVE",
"216 130 OFFCURVE",
"216 166 CURVE SMOOTH",
"216 202 OFFCURVE",
"252 220 OFFCURVE",
"300 220 CURVE SMOOTH",
"326 220 OFFCURVE",
"339 217 OFFCURVE",
"349 214 CURVE",
"344 186 OFFCURVE",
"341 154 OFFCURVE",
"345 127 CURVE"
);
}
);
width = 624;
}
);
leftKerningGroup = a;
note = a;
rightKerningGroup = a;
unicode = 0061;
},
{
glyphname = b;
lastChange = "2018-11-26 15:58:55 +0000";
layers = (
{
hints = (
{
horizontal = 1;
place = "{-12, 80}";
type = Stem;
},
{
horizontal = 1;
place = "{476, 80}";
type = Stem;
},
{
horizontal = 1;
place = "{760, -20}";
target = down;
type = TopGhost;
},
{
place = "{486, 94}";
type = Stem;
}
);
layerId = "5B01CDE3-ACDA-4D2B-9E53-A993574CFD15";
paths = (
{
closed = 1;
nodes = (
"48 24 LINE",
"100 0 OFFCURVE",
"176 -12 OFFCURVE",
"248 -12 CURVE SMOOTH",
"440 -12 OFFCURVE",
"580 120 OFFCURVE",
"580 320 CURVE SMOOTH",
"580 472 OFFCURVE",
"484 556 OFFCURVE",
"348 556 CURVE SMOOTH",
"308 556 OFFCURVE",
"272 548 OFFCURVE",
"244 538 CURVE",
"288 760 LINE",
"190 760 LINE",
"186 752 LINE",
"187 716 OFFCURVE",
"170 628 OFFCURVE",
"162 588 CURVE SMOOTH",
"75 148 LINE SMOOTH",
"67 108 OFFCURVE",
"56 64 OFFCURVE",
"44 32 CURVE"
);
},
{
closed = 1;
nodes = (
"229 461 LINE",
"250 468 OFFCURVE",
"283 476 OFFCURVE",
"328 476 CURVE SMOOTH",
"428 476 OFFCURVE",
"486 428 OFFCURVE",
"486 320 CURVE SMOOTH",
"486 160 OFFCURVE",
"388 68 OFFCURVE",
"252 68 CURVE SMOOTH",
"214 68 OFFCURVE",
"179 73 OFFCURVE",
"149 80 CURVE",
"156 98 OFFCURVE",
"162 120 OFFCURVE",
"168 148 CURVE SMOOTH"
);
}
);
width = 618;
},
{
hints = (
{
horizontal = 1;
place = "{-12, 148}";
type = Stem;
},
{
horizontal = 1;
place = "{556, -20}";
target = down;
type = TopGhost;
},
{
horizontal = 1;
place = "{748, 12}";
type = Stem;
},
{
place = "{436, 216}";
type = Stem;
},
{
horizontal = 1;
place = "{404, 152}";
type = Stem;
}
);
layerId = "FA792B6B-505C-4DC3-9C40-F9BEDA01661E";
paths = (
{
closed = 1;
nodes = (
"20 16 LINE",
"72 0 OFFCURVE",
"180 -12 OFFCURVE",
"260 -12 CURVE SMOOTH",
"496 -12 OFFCURVE",
"652 96 OFFCURVE",
"652 320 CURVE SMOOTH",
"652 470 OFFCURVE",
"567 556 OFFCURVE",
"432 556 CURVE SMOOTH",
"395 556 OFFCURVE",
"364 550 OFFCURVE",
"337 540 CURVE",
"380 760 LINE",
"157 760 LINE",
"149 748 LINE",
"151 696 OFFCURVE",
"144 644 OFFCURVE",
"135 596 CURVE SMOOTH",
"54 176 LINE SMOOTH",
"42 116 OFFCURVE",
"34 80 OFFCURVE",
"16 24 CURVE"
);
},
{
closed = 1;
nodes = (
"310 399 LINE",
"320 402 OFFCURVE",
"331 404 OFFCURVE",
"344 404 CURVE SMOOTH",
"404 404 OFFCURVE",
"436 368 OFFCURVE",
"436 300 CURVE SMOOTH",
"436 208 OFFCURVE",
"388 136 OFFCURVE",
"300 136 CURVE SMOOTH",
"280 136 OFFCURVE",
"268 138 OFFCURVE",
"255 142 CURVE",
"262 162 OFFCURVE",
"268 183 OFFCURVE",
"272 204 CURVE SMOOTH"
);
}
);
width = 684;
}
);
leftKerningGroup = b;
note = b;
rightKerningGroup = b;
unicode = 0062;
},
{
glyphname = c;
lastChange = "2018-11-26 15:58:55 +0000";
layers = (
{
hints = (
{
horizontal = 1;
place = "{-8, 80}";
type = Stem;
},
{
horizontal = 1;
place = "{476, 80}";
type = Stem;
},
{
place = "{48, 94}";
type = Stem;
}
);
layerId = "5B01CDE3-ACDA-4D2B-9E53-A993574CFD15";
paths = (
{
closed = 1;
nodes = (
"48 76 OFFCURVE",
"132 -8 OFFCURVE",
"292 -8 CURVE SMOOTH",
"340 -8 OFFCURVE",
"384 0 OFFCURVE",
"420 16 CURVE",
"436 100 LINE",
"428 100 LINE",
"397 86 OFFCURVE",
"356 72 OFFCURVE",
"304 72 CURVE SMOOTH",
"204 72 OFFCURVE",
"142 120 OFFCURVE",
"142 220 CURVE SMOOTH",
"142 384 OFFCURVE",
"252 476 OFFCURVE",
"388 476 CURVE SMOOTH",
"440 476 OFFCURVE",
"472 464 OFFCURVE",
"496 450 CURVE",
"504 450 LINE",
"520 532 LINE",
"492 548 OFFCURVE",
"440 556 OFFCURVE",
"392 556 CURVE SMOOTH",
"196 556 OFFCURVE",
"48 424 OFFCURVE",
"48 220 CURVE SMOOTH"
);
}
);
width = 504;
},
{
hints = (
{
horizontal = 1;
place = "{-12, 164}";
type = Stem;
},
{
horizontal = 1;
place = "{400, 164}";
type = Stem;
},
{
place = "{40, 216}";
type = Stem;
},
{
horizontal = 1;
place = "{548, -20}";
target = down;
type = TopGhost;
}
);
layerId = "FA792B6B-505C-4DC3-9C40-F9BEDA01661E";
paths = (
{
closed = 1;
nodes = (
"40 60 OFFCURVE",
"150 -12 OFFCURVE",
"328 -12 CURVE SMOOTH",
"360 -12 OFFCURVE",
"406 -6 OFFCURVE",
"440 4 CURVE",
"472 168 LINE",
"460 168 LINE",
"436 160 OFFCURVE",
"412 152 OFFCURVE",
"376 152 CURVE SMOOTH",
"300 152 OFFCURVE",
"256 184 OFFCURVE",
"256 248 CURVE SMOOTH",
"256 344 OFFCURVE",
"324 400 OFFCURVE",
"412 400 CURVE SMOOTH",
"456 400 OFFCURVE",
"482 392 OFFCURVE",
"500 384 CURVE",
"512 384 LINE",
"544 548 LINE",
"514 558 OFFCURVE",
"460 564 OFFCURVE",
"416 564 CURVE SMOOTH",
"176 564 OFFCURVE",
"40 428 OFFCURVE",
"40 232 CURVE SMOOTH"
);
}
);
width = 532;
}
);
leftKerningGroup = c;
note = c;
rightKerningGroup = c;
unicode = 0063;
},
{
glyphname = d;
lastChange = "2018-11-26 15:58:55 +0000";
layers = (
{
hints = (
{
horizontal = 1;
place = "{-12, 80}";
type = Stem;
},
{
horizontal = 1;
place = "{476, 80}";
type = Stem;
},
{
horizontal = 1;
place = "{760, -20}";
target = down;
type = TopGhost;
},
{
place = "{48, 94}";
type = Stem;
}
);
layerId = "5B01CDE3-ACDA-4D2B-9E53-A993574CFD15";
paths = (
{
closed = 1;
nodes = (
"48 68 OFFCURVE",
"146 -12 OFFCURVE",
"292 -12 CURVE SMOOTH",
"360 -12 OFFCURVE",
"420 0 OFFCURVE",
"484 24 CURVE",
"488 32 LINE",
"490 68 OFFCURVE",
"496 116 OFFCURVE",
"504 156 CURVE SMOOTH",
"622 760 LINE",
"524 760 LINE",
"520 752 LINE",
"521 716 OFFCURVE",
"504 628 OFFCURVE",
"496 588 CURVE SMOOTH",
"486 538 LINE",
"459 548 OFFCURVE",
"418 556 OFFCURVE",
"374 556 CURVE SMOOTH",
"182 556 OFFCURVE",
"48 424 OFFCURVE",
"48 224 CURVE SMOOTH"
);
},
{
closed = 1;
nodes = (
"376 74 OFFCURVE",
"343 68 OFFCURVE",
"304 68 CURVE SMOOTH",
"198 68 OFFCURVE",
"142 116 OFFCURVE",
"142 224 CURVE SMOOTH",
"142 384 OFFCURVE",
"234 476 OFFCURVE",
"370 476 CURVE SMOOTH",
"420 476 OFFCURVE",
"451 468 OFFCURVE",
"471 459 CURVE",
"412 156 LINE SMOOTH",
"407 132 OFFCURVE",
"405 106 OFFCURVE",
"404 83 CURVE"
);
}
);
width = 618;
},
{
hints = (
{
horizontal = 1;
place = "{-12, 152}";
type = Stem;
},
{
horizontal = 1;
place = "{416, 148}";
type = Stem;
},
{
horizontal = 1;
place = "{748, 12}";
type = Stem;
},
{
place = "{40, 216}";
type = Stem;
},
{
horizontal = 1;
place = "{554, -20}";
target = down;
type = TopGhost;
}
);
layerId = "FA792B6B-505C-4DC3-9C40-F9BEDA01661E";
paths = (
{
closed = 1;
nodes = (
"40 52 OFFCURVE",
"164 -12 OFFCURVE",
"328 -12 CURVE SMOOTH",
"440 -12 OFFCURVE",
"516 8 OFFCURVE",
"580 28 CURVE",
"588 36 LINE",
"588 88 OFFCURVE",
"598 149 OFFCURVE",
"608 200 CURVE SMOOTH",
"716 760 LINE",
"494 760 LINE",
"486 748 LINE",
"488 696 OFFCURVE",
"481 644 OFFCURVE",
"472 596 CURVE SMOOTH",
"464 554 LINE",
"445 560 OFFCURVE",
"421 564 OFFCURVE",
"388 564 CURVE SMOOTH",
"132 564 OFFCURVE",
"40 384 OFFCURVE",
"40 240 CURVE SMOOTH"
);
},
{
closed = 1;
nodes = (
"381 143 OFFCURVE",
"366 140 OFFCURVE",
"348 140 CURVE SMOOTH",
"281 140 OFFCURVE",
"256 183 OFFCURVE",
"256 240 CURVE SMOOTH",
"256 340 OFFCURVE",
"308 416 OFFCURVE",
"396 416 CURVE SMOOTH",
"416 416 OFFCURVE",
"428 413 OFFCURVE",
"436 411 CURVE",
"404 240 LINE SMOOTH",
"398 206 OFFCURVE",
"395 174 OFFCURVE",
"394 147 CURVE"
);
}
);
width = 684;
}
);
leftKerningGroup = c;
note = d;
rightKerningGroup = d;
unicode = 0064;
},
{
glyphname = e;
lastChange = "2018-11-26 15:58:55 +0000";
layers = (
{
hints = (
{
horizontal = 1;
place = "{-8, 80}";
type = Stem;
},
{
horizontal = 1;
place = "{240, 76}";
type = Stem;
},
{
horizontal = 1;
place = "{476, 80}";
type = Stem;
},
{
place = "{48, 94}";
type = Stem;
},
{
place = "{466, 94}";
type = Stem;
}
);
layerId = "5B01CDE3-ACDA-4D2B-9E53-A993574CFD15";
paths = (
{
closed = 1;
nodes = (
"48 76 OFFCURVE",
"136 -8 OFFCURVE",
"304 -8 CURVE SMOOTH",
"368 -8 OFFCURVE",
"428 4 OFFCURVE",
"460 20 CURVE",
"476 104 LINE",
"468 104 LINE",
"437 88 OFFCURVE",
"380 72 OFFCURVE",
"312 72 CURVE SMOOTH",
"208 72 OFFCURVE",
"142 120 OFFCURVE",
"142 220 CURVE SMOOTH",
"142 240 LINE",
"540 240 LINE",
"550 276 OFFCURVE",
"560 320 OFFCURVE",
"560 364 CURVE SMOOTH",
"560 476 OFFCURVE",
"490 556 OFFCURVE",
"348 556 CURVE SMOOTH",
"160 556 OFFCURVE",
"48 392 OFFCURVE",
"48 220 CURVE SMOOTH"
);
},
{
closed = 1;
nodes = (
"431 476 OFFCURVE",
"466 433 OFFCURVE",
"466 360 CURVE SMOOTH",
"466 350 OFFCURVE",
"464 332 OFFCURVE",
"460 316 CURVE",
"154 316 LINE",
"181 414 OFFCURVE",
"251 476 OFFCURVE",
"344 476 CURVE SMOOTH"
);
}
);
width = 597;
},
{
hints = (
{
horizontal = 1;
place = "{-12, 156}";
type = Stem;
},
{
horizontal = 1;
place = "{220, 112}";
type = Stem;
},
{
horizontal = 1;
place = "{424, 140}";
type = Stem;
},
{
place = "{420, 192}";
type = Stem;
}
);
layerId = "FA792B6B-505C-4DC3-9C40-F9BEDA01661E";
paths = (
{
closed = 1;
nodes = (
"40 51 OFFCURVE",
"180 -12 OFFCURVE",
"352 -12 CURVE SMOOTH",
"412 -12 OFFCURVE",
"464 -4 OFFCURVE",
"512 12 CURVE",
"544 172 LINE",
"532 172 LINE",
"501 156 OFFCURVE",
"440 144 OFFCURVE",
"388 144 CURVE SMOOTH",
"303 144 OFFCURVE",
"263 170 OFFCURVE",
"251 220 CURVE",
"592 220 LINE",
"604 264 OFFCURVE",
"612 312 OFFCURVE",
"612 352 CURVE SMOOTH",
"612 480 OFFCURVE",
"541 564 OFFCURVE",
"360 564 CURVE SMOOTH",
"180 564 OFFCURVE",
"40 442 OFFCURVE",
"40 236 CURVE SMOOTH"
);
},
{
closed = 1;
nodes = (
"396 424 OFFCURVE",
"420 400 OFFCURVE",
"420 364 CURVE SMOOTH",
"420 352 OFFCURVE",
"418 342 OFFCURVE",
"416 332 CURVE",
"256 332 LINE",
"270 387 OFFCURVE",
"301 424 OFFCURVE",
"352 424 CURVE SMOOTH"
);
}
);
width = 636;
}
);
leftKerningGroup = c;
note = e;
rightKerningGroup = e;
unicode = 0065;
},
{
glyphname = f;
lastChange = "2018-11-26 15:58:55 +0000";
layers = (
{
hints = (
{
horizontal = 1;
place = "{0, 21}";
target = up;
type = BottomGhost;
},
{
horizontal = 1;
place = "{464, 80}";
type = Stem;
},
{
horizontal = 1;
place = "{680, 80}";
type = Stem;
},
{
place = "{52, 420}";
type = Stem;
}
);
layerId = "5B01CDE3-ACDA-4D2B-9E53-A993574CFD15";
paths = (
{
closed = 1;
nodes = (
"60 464 LINE",
"142 464 LINE",
"52 0 LINE",
"144 0 LINE",
"234 464 LINE",
"388 464 LINE",
"404 544 LINE",
"249 544 LINE",
"252 556 LINE",
"268 640 OFFCURVE",
"308 680 OFFCURVE",
"380 680 CURVE SMOOTH",
"412 680 OFFCURVE",
"428 676 OFFCURVE",
"448 668 CURVE",
"456 668 LINE",
"472 748 LINE",
"454 756 OFFCURVE",
"420 760 OFFCURVE",
"388 760 CURVE SMOOTH",
"240 760 OFFCURVE",
"181 664 OFFCURVE",
"160 556 CURVE",
"157 544 LINE",
"76 544 LINE"
);
}
);
width = 336;
},
{
hints = (
{
horizontal = 1;
place = "{0, 21}";
target = up;
type = BottomGhost;
},
{
horizontal = 1;
place = "{388, 160}";
type = Stem;
},
{
horizontal = 1;
place = "{624, 152}";
type = Stem;
},
{
place = "{32, 538}";
type = Stem;
}
);
layerId = "FA792B6B-505C-4DC3-9C40-F9BEDA01661E";
paths = (
{
closed = 1;
nodes = (
"32 388 LINE",
"126 388 LINE",
"52 0 LINE",
"264 0 LINE",
"339 388 LINE",
"456 388 LINE",
"488 548 LINE",
"370 548 LINE",
"384 600 OFFCURVE",
"412 624 OFFCURVE",
"468 624 CURVE SMOOTH",
"496 624 OFFCURVE",
"517 618 OFFCURVE",
"528 612 CURVE",
"540 612 LINE",
"570 764 LINE",
"551 770 OFFCURVE",
"508 776 OFFCURVE",
"468 776 CURVE SMOOTH",
"302 776 OFFCURVE",
"194 721 OFFCURVE",
"158 548 CURVE",
"64 548 LINE"
);
}
);
width = 464;
}
);
leftKerningGroup = f;
note = f;
rightKerningGroup = f;
unicode = 0066;
},
{
glyphname = g;
lastChange = "2018-11-26 15:58:55 +0000";
layers = (
{
hints = (
{
horizontal = 1;
place = "{-240, 80}";
type = Stem;
},
{
horizontal = 1;
place = "{4, 80}";
type = Stem;
},
{
horizontal = 1;
place = "{476, 80}";
type = Stem;
},
{
place = "{52, 94}";
type = Stem;
}
);
layerId = "5B01CDE3-ACDA-4D2B-9E53-A993574CFD15";
paths = (
{
closed = 1;
nodes = (
"28 -132 LINE",
"12 -216 LINE",
"52 -232 OFFCURVE",
"116 -240 OFFCURVE",
"164 -240 CURVE SMOOTH",
"356 -240 OFFCURVE",
"446 -144 OFFCURVE",
"476 8 CURVE SMOOTH",
"552 396 LINE SMOOTH",
"560 436 OFFCURVE",
"572 480 OFFCURVE",
"584 512 CURVE",
"580 520 LINE",
"524 544 OFFCURVE",
"456 556 OFFCURVE",
"384 556 CURVE SMOOTH",
"188 556 OFFCURVE",
"52 428 OFFCURVE",
"52 232 CURVE SMOOTH",
"52 76 OFFCURVE",
"158 4 OFFCURVE",
"304 4 CURVE SMOOTH",
"336 4 OFFCURVE",
"362 9 OFFCURVE",
"385 16 CURVE",
"384 12 LINE",
"363 -96 OFFCURVE",
"296 -160 OFFCURVE",
"172 -160 CURVE SMOOTH",
"129 -160 OFFCURVE",
"76 -152 OFFCURVE",
"36 -132 CURVE"
);
},
{
closed = 1;
nodes = (
"210 84 OFFCURVE",
"146 124 OFFCURVE",
"146 232 CURVE SMOOTH",
"146 388 OFFCURVE",
"240 476 OFFCURVE",
"376 476 CURVE SMOOTH",
"423 476 OFFCURVE",
"447 471 OFFCURVE",
"475 459 CURVE",
"470 444 OFFCURVE",
"465 425 OFFCURVE",
"460 400 CURVE SMOOTH",
"401 96 LINE",
"383 90 OFFCURVE",
"356 84 OFFCURVE",
"316 84 CURVE SMOOTH"
);
}
);
width = 618;
},
{
hints = (
{
horizontal = 1;
place = "{-240, 164}";
type = Stem;
},
{
horizontal = 1;
place = "{0, 152}";
type = Stem;
},
{
horizontal = 1;
place = "{408, 148}";
type = Stem;
},
{
place = "{36, 216}";
type = Stem;
}
);
layerId = "FA792B6B-505C-4DC3-9C40-F9BEDA01661E";
paths = (
{
closed = 1;
nodes = (
"40 -44 LINE",
"8 -208 LINE",
"44 -228 OFFCURVE",
"120 -240 OFFCURVE",
"176 -240 CURVE SMOOTH",
"392 -240 OFFCURVE",
"531 -160 OFFCURVE",
"572 48 CURVE SMOOTH",
"633 360 LINE SMOOTH",
"641 400 OFFCURVE",
"656 468 OFFCURVE",
"672 504 CURVE",
"664 516 LINE",
"591 540 OFFCURVE",
"510 556 OFFCURVE",
"412 556 CURVE SMOOTH",
"176 556 OFFCURVE",
"36 436 OFFCURVE",
"36 232 CURVE SMOOTH",
"36 80 OFFCURVE",
"128 0 OFFCURVE",
"272 0 CURVE SMOOTH",
"301 0 OFFCURVE",
"328 4 OFFCURVE",
"351 11 CURVE",
"330 -53 OFFCURVE",
"279 -76 OFFCURVE",
"188 -76 CURVE SMOOTH",
"140 -76 OFFCURVE",
"84 -64 OFFCURVE",
"52 -44 CURVE"
);
},
{
closed = 1;
nodes = (
"272 152 OFFCURVE",
"252 192 OFFCURVE",
"252 248 CURVE SMOOTH",
"252 332 OFFCURVE",
"296 408 OFFCURVE",
"384 408 CURVE SMOOTH",
"406 408 OFFCURVE",
"418 406 OFFCURVE",
"432 401 CURVE",
"425 381 OFFCURVE",
"420 357 OFFCURVE",
"415 330 CURVE SMOOTH",
"381 159 LINE",
"369 155 OFFCURVE",
"356 152 OFFCURVE",
"340 152 CURVE SMOOTH"
);
}
);
width = 680;
}
);
leftKerningGroup = c;
note = g;
rightKerningGroup = g;
unicode = 0067;
},
{
glyphname = h;
lastChange = "2018-11-26 15:58:55 +0000";
layers = (
{
hints = (
{
horizontal = 1;
place = "{0, 21}";
target = up;
type = BottomGhost;
},
{
horizontal = 1;
place = "{476, 80}";
type = Stem;
},
{
horizontal = 1;
place = "{760, -20}";
target = down;
type = TopGhost;
},
{
place = "{470, 94}";
type = Stem;
}
);
layerId = "5B01CDE3-ACDA-4D2B-9E53-A993574CFD15";
paths = (
{
closed = 1;
nodes = (
"404 0 LINE",
"496 0 LINE",
"556 312 LINE SMOOTH",
"561 339 OFFCURVE",
"564 364 OFFCURVE",
"564 384 CURVE SMOOTH",
"564 512 OFFCURVE",
"476 556 OFFCURVE",
"362 556 CURVE SMOOTH",
"324 556 OFFCURVE",
"281 548 OFFCURVE",
"240 536 CURVE",
"284 760 LINE",
"186 760 LINE",
"182 752 LINE",
"183 716 OFFCURVE",
"166 628 OFFCURVE",
"158 588 CURVE SMOOTH",
"44 0 LINE",
"136 0 LINE",
"224 452 LINE",
"261 466 OFFCURVE",
"302 476 OFFCURVE",
"342 476 CURVE SMOOTH",
"420 476 OFFCURVE",
"470 452 OFFCURVE",
"470 370 CURVE SMOOTH",
"470 353 OFFCURVE",
"468 334 OFFCURVE",
"464 312 CURVE SMOOTH"
);
}
);
width = 640;
},
{
hints = (
{
horizontal = 1;
place = "{0, 21}";
target = up;
type = BottomGhost;
},
{
horizontal = 1;
place = "{556, -20}";
target = down;
type = TopGhost;
},
{
horizontal = 1;
place = "{748, 12}";
type = Stem;
},
{
place = "{20, 624}";
type = Stem;
},
{
horizontal = 1;
place = "{400, 164}";
type = Stem;
},
{
place = "{428, 216}";
type = Stem;
}
);
layerId = "FA792B6B-505C-4DC3-9C40-F9BEDA01661E";
paths = (
{
closed = 1;
nodes = (
"368 0 LINE",
"580 0 LINE",
"636 292 LINE SMOOTH",
"642 322 OFFCURVE",
"644 348 OFFCURVE",
"644 372 CURVE SMOOTH",
"644 472 OFFCURVE",
"580 564 OFFCURVE",
"420 564 CURVE SMOOTH",
"390 564 OFFCURVE",
"364 561 OFFCURVE",
"340 556 CURVE",
"380 760 LINE",
"157 760 LINE",
"149 748 LINE",
"151 696 OFFCURVE",
"144 644 OFFCURVE",
"135 596 CURVE SMOOTH",
"20 0 LINE",
"232 0 LINE",
"309 396 LINE",
"324 398 OFFCURVE",
"340 400 OFFCURVE",
"352 400 CURVE SMOOTH",
"412 400 OFFCURVE",
"428 368 OFFCURVE",
"428 332 CURVE SMOOTH",
"428 323 OFFCURVE",
"427 308 OFFCURVE",
"424 292 CURVE SMOOTH"
);
}
);
width = 692;
}
);
leftKerningGroup = b;
note = h;
rightKerningGroup = a;
unicode = 0068;
},
{
glyphname = i;
lastChange = "2018-11-26 15:58:55 +0000";
layers = (
{
hints = (
{
horizontal = 1;
place = "{0, 21}";
target = up;
type = BottomGhost;
},
{
horizontal = 1;
place = "{544, -20}";
target = down;
type = TopGhost;
},
{
horizontal = 1;
place = "{640, 120}";
type = Stem;
},
{
place = "{162, 124}";
type = Stem;
}
);
layerId = "5B01CDE3-ACDA-4D2B-9E53-A993574CFD15";
paths = (
{
closed = 1;
nodes = (
"248 640 OFFCURVE",
"286 668 OFFCURVE",
"286 712 CURVE SMOOTH",
"286 742 OFFCURVE",
"266 760 OFFCURVE",
"236 760 CURVE SMOOTH",
"200 760 OFFCURVE",
"162 732 OFFCURVE",
"162 688 CURVE SMOOTH",
"162 658 OFFCURVE",
"182 640 OFFCURVE",
"212 640 CURVE SMOOTH"
);
},
{
closed = 1;
nodes = (
"44 0 LINE",
"136 0 LINE",
"242 544 LINE",
"144 544 LINE",
"140 536 LINE",
"141 500 OFFCURVE",
"124 412 OFFCURVE",
"116 372 CURVE SMOOTH"
);
}
);
width = 284;
},
{
hints = (
{
horizontal = 1;
place = "{0, 21}";
target = up;
type = BottomGhost;
},
{
horizontal = 1;
place = "{536, 12}";
type = Stem;
},
{
horizontal = 1;
place = "{620, 208}";
type = Stem;
},
{
place = "{152, 220}";
type = Stem;
}
);
layerId = "FA792B6B-505C-4DC3-9C40-F9BEDA01661E";
paths = (
{
closed = 1;
nodes = (
"316 620 OFFCURVE",
"372 668 OFFCURVE",
"372 740 CURVE SMOOTH",
"372 788 OFFCURVE",
"340 828 OFFCURVE",
"276 828 CURVE SMOOTH",
"208 828 OFFCURVE",
"152 780 OFFCURVE",
"152 708 CURVE SMOOTH",
"152 660 OFFCURVE",
"184 620 OFFCURVE",
"248 620 CURVE SMOOTH"
);
},
{
closed = 1;
nodes = (
"16 0 LINE",
"228 0 LINE",
"334 548 LINE",
"112 548 LINE",
"104 536 LINE",
"106 484 OFFCURVE",
"99 432 OFFCURVE",
"90 384 CURVE SMOOTH"
);
}
);
width = 344;
}
);
leftKerningGroup = b;
note = i;
rightKerningGroup = d;
unicode = 0069;
},
{
glyphname = j;
lastChange = "2018-11-26 15:58:55 +0000";
layers = (
{
hints = (
{
horizontal = 1;
place = "{-240, 80}";
type = Stem;
},
{
horizontal = 1;
place = "{544, -20}";
target = down;
type = TopGhost;
},
{
horizontal = 1;
place = "{640, 120}";
type = Stem;
},
{
place = "{164, 124}";
type = Stem;
}
);
layerId = "5B01CDE3-ACDA-4D2B-9E53-A993574CFD15";
paths = (
{
closed = 1;
nodes = (
"250 640 OFFCURVE",
"288 668 OFFCURVE",
"288 712 CURVE SMOOTH",
"288 742 OFFCURVE",
"268 760 OFFCURVE",
"238 760 CURVE SMOOTH",
"202 760 OFFCURVE",
"164 732 OFFCURVE",
"164 688 CURVE SMOOTH",
"164 658 OFFCURVE",
"184 640 OFFCURVE",
"214 640 CURVE SMOOTH"
);
},
{
closed = 1;
nodes = (
"36 -52 LINE SMOOTH",
"22 -124 OFFCURVE",
"-12 -160 OFFCURVE",
"-84 -160 CURVE SMOOTH",
"-108 -160 OFFCURVE",
"-130 -156 OFFCURVE",
"-152 -148 CURVE",
"-160 -148 LINE",
"-176 -228 LINE",
"-162 -234 OFFCURVE",
"-128 -240 OFFCURVE",
"-92 -240 CURVE SMOOTH",
"52 -240 OFFCURVE",
"109 -152 OFFCURVE",
"128 -52 CURVE SMOOTH",
"244 544 LINE",
"146 544 LINE",
"142 536 LINE",
"143 500 OFFCURVE",
"126 412 OFFCURVE",
"118 372 CURVE SMOOTH"
);
}
);
width = 284;
},
{
hints = (
{
horizontal = 1;
place = "{-240, 164}";
type = Stem;
},
{
horizontal = 1;
place = "{536, 12}";
type = Stem;
},
{
horizontal = 1;
place = "{620, 208}";
type = Stem;
},
{
place = "{156, 220}";
type = Stem;
}
);
layerId = "FA792B6B-505C-4DC3-9C40-F9BEDA01661E";
paths = (
{
closed = 1;
nodes = (
"320 620 OFFCURVE",
"376 668 OFFCURVE",
"376 740 CURVE SMOOTH",
"376 788 OFFCURVE",
"344 828 OFFCURVE",
"280 828 CURVE SMOOTH",
"212 828 OFFCURVE",
"156 780 OFFCURVE",
"156 708 CURVE SMOOTH",
"156 660 OFFCURVE",
"188 620 OFFCURVE",
"252 620 CURVE SMOOTH"
);
},
{
closed = 1;
nodes = (
"20 0 LINE SMOOTH",
"10 -54 OFFCURVE",
"-24 -76 OFFCURVE",
"-80 -76 CURVE SMOOTH",
"-108 -76 OFFCURVE",
"-120 -72 OFFCURVE",
"-140 -64 CURVE",
"-152 -64 LINE",
"-184 -228 LINE",
"-158 -236 OFFCURVE",
"-124 -240 OFFCURVE",
"-80 -240 CURVE SMOOTH",
"78 -240 OFFCURVE",
"199 -171 OFFCURVE",
"234 12 CURVE SMOOTH",
"338 548 LINE",
"116 548 LINE",
"108 536 LINE",
"110 484 OFFCURVE",
"103 432 OFFCURVE",
"94 384 CURVE SMOOTH"
);
}
);
width = 348;
}
);
leftKerningGroup = b;
note = j;
rightKerningGroup = d;
unicode = 006A;
},
{
glyphname = k;
lastChange = "2018-11-26 15:58:55 +0000";
layers = (
{
hints = (
{
horizontal = 1;
place = "{0, 21}";
target = up;
type = BottomGhost;
},
{
horizontal = 1;
place = "{532, 12}";
type = Stem;
},
{
horizontal = 1;
place = "{760, -20}";
target = down;
type = TopGhost;
},
{
place = "{44, 540}";
type = Stem;
}
);
layerId = "5B01CDE3-ACDA-4D2B-9E53-A993574CFD15";
paths = (
{
closed = 1;
nodes = (
"44 0 LINE",
"136 0 LINE",
"188 266 LINE",
"370 0 LINE",
"478 0 LINE",
"478 12 LINE",
"456 36 OFFCURVE",
"429 79 OFFCURVE",
"408 108 CURVE SMOOTH",
"284 280 LINE",
"492 460 LINE SMOOTH",
"526 488 OFFCURVE",
"561 516 OFFCURVE",
"584 532 CURVE",
"584 544 LINE",
"474 544 LINE",
"194 300 LINE",
"284 760 LINE",
"186 760 LINE",
"182 752 LINE",
"183 716 OFFCURVE",
"166 628 OFFCURVE",
"158 588 CURVE SMOOTH"
);
}
);
width = 540;
},
{
hints = (
{
horizontal = 1;
place = "{0, 21}";
target = up;
type = BottomGhost;
},
{
horizontal = 1;
place = "{536, 12}";
type = Stem;
},
{
horizontal = 1;
place = "{748, 12}";
type = Stem;
},
{
place = "{16, 716}";
type = Stem;
}
);
layerId = "FA792B6B-505C-4DC3-9C40-F9BEDA01661E";
paths = (
{
closed = 1;
nodes = (
"16 0 LINE",
"228 0 LINE",
"272 229 LINE",
"384 0 LINE",
"612 0 LINE",
"612 12 LINE",
"592 40 OFFCURVE",
"578 63 OFFCURVE",
"560 96 CURVE SMOOTH",
"460 284 LINE",
"612 432 LINE SMOOTH",
"644 463 OFFCURVE",
"704 516 OFFCURVE",
"732 536 CURVE",
"732 548 LINE",
"500 548 LINE",
"294 338 LINE",
"376 760 LINE",
"153 760 LINE",
"145 748 LINE",
"147 696 OFFCURVE",
"140 644 OFFCURVE",
"131 596 CURVE SMOOTH"
);
}
);
width = 680;
}
);
leftKerningGroup = b;
note = k;
rightKerningGroup = k;
unicode = 006B;
},
{
glyphname = l;
lastChange = "2018-11-26 15:58:55 +0000";
layers = (
{
hints = (
{
horizontal = 1;
place = "{0, 21}";
target = up;
type = BottomGhost;
},
{
horizontal = 1;
place = "{760, -20}";
target = down;
type = TopGhost;
},
{
place = "{44, 240}";
type = Stem;
}
);
layerId = "5B01CDE3-ACDA-4D2B-9E53-A993574CFD15";
paths = (
{
closed = 1;
nodes = (
"44 0 LINE",
"136 0 LINE",
"284 760 LINE",
"186 760 LINE",
"182 752 LINE",
"183 716 OFFCURVE",
"166 628 OFFCURVE",
"158 588 CURVE SMOOTH"
);
}
);
width = 284;
},
{
hints = (
{
horizontal = 1;
place = "{0, 21}";
target = up;
type = BottomGhost;
},
{
horizontal = 1;
place = "{748, 12}";
type = Stem;
},
{
place = "{20, 360}";
type = Stem;
}
);
layerId = "FA792B6B-505C-4DC3-9C40-F9BEDA01661E";
paths = (
{
closed = 1;
nodes = (
"20 0 LINE",
"232 0 LINE",
"380 760 LINE",
"157 760 LINE",
"149 748 LINE",
"151 696 OFFCURVE",
"144 644 OFFCURVE",
"135 596 CURVE SMOOTH"
);
}
);
width = 348;
}
);
leftKerningGroup = b;
note = l;
rightKerningGroup = d;
unicode = 006C;
},
{
glyphname = m;
lastChange = "2018-11-26 15:58:55 +0000";
layers = (
{
hints = (
{
horizontal = 1;
place = "{0, 21}";
target = up;
type = BottomGhost;
},
{
horizontal = 1;
place = "{476, 80}";
type = Stem;
},
{
place = "{457, 94}";
type = Stem;
},
{
place = "{786, 94}";
type = Stem;
}
);
layerId = "5B01CDE3-ACDA-4D2B-9E53-A993574CFD15";
paths = (
{
closed = 1;
nodes = (
"44 0 LINE",
"136 0 LINE",
"212 392 LINE SMOOTH",
"216 415 OFFCURVE",
"218 438 OFFCURVE",
"219 458 CURVE",
"254 469 OFFCURVE",
"295 476 OFFCURVE",
"332 476 CURVE SMOOTH",
"416 476 OFFCURVE",
"457 452 OFFCURVE",
"457 370 CURVE SMOOTH",
"457 353 OFFCURVE",
"455 334 OFFCURVE",
"451 312 CURVE SMOOTH",
"391 0 LINE",
"483 0 LINE",
"543 312 LINE SMOOTH",
"548 339 OFFCURVE",
"551 364 OFFCURVE",
"551 384 CURVE SMOOTH",
"551 409 OFFCURVE",
"548 432 OFFCURVE",
"542 451 CURVE",
"576 466 OFFCURVE",
"616 476 OFFCURVE",
"659 476 CURVE SMOOTH",
"743 476 OFFCURVE",
"786 452 OFFCURVE",
"786 370 CURVE SMOOTH",
"786 353 OFFCURVE",
"784 334 OFFCURVE",
"780 312 CURVE SMOOTH",
"720 0 LINE",
"812 0 LINE",
"872 312 LINE SMOOTH",
"877 339 OFFCURVE",
"880 364 OFFCURVE",
"880 384 CURVE SMOOTH",
"880 512 OFFCURVE",
"799 556 OFFCURVE",
"675 556 CURVE SMOOTH",
"617 556 OFFCURVE",
"552 539 OFFCURVE",
"497 517 CURVE",
"462 545 OFFCURVE",
"411 556 OFFCURVE",
"348 556 CURVE SMOOTH",
"296 556 OFFCURVE",
"200 540 OFFCURVE",
"140 516 CURVE",
"136 508 LINE",
"134 472 OFFCURVE",
"128 432 OFFCURVE",
"120 392 CURVE SMOOTH"
);
}
);
width = 956;
},
{
hints = (
{
horizontal = 1;
place = "{0, 21}";
target = up;
type = BottomGhost;
},
{
horizontal = 1;
place = "{400, 164}";
type = Stem;
},
{
place = "{20, 960}";
type = Stem;
},
{
place = "{424, 216}";
type = Stem;
},
{
place = "{764, 216}";
type = Stem;
}
);
layerId = "FA792B6B-505C-4DC3-9C40-F9BEDA01661E";
paths = (
{
closed = 1;
nodes = (
"20 0 LINE",
"232 0 LINE",
"292 312 LINE SMOOTH",
"297 340 OFFCURVE",
"301 368 OFFCURVE",
"302 393 CURVE",
"316 397 OFFCURVE",
"331 400 OFFCURVE",
"348 400 CURVE SMOOTH",
"408 400 OFFCURVE",
"424 368 OFFCURVE",
"424 332 CURVE SMOOTH",
"424 323 OFFCURVE",
"423 308 OFFCURVE",
"420 292 CURVE SMOOTH",
"364 0 LINE",
"576 0 LINE",
"632 292 LINE SMOOTH",
"638 322 OFFCURVE",
"640 348 OFFCURVE",
"640 372 CURVE SMOOTH",
"640 379 OFFCURVE",
"640 386 OFFCURVE",
"639 392 CURVE",
"654 397 OFFCURVE",
"671 400 OFFCURVE",
"688 400 CURVE SMOOTH",
"748 400 OFFCURVE",
"764 368 OFFCURVE",
"764 332 CURVE SMOOTH",
"764 323 OFFCURVE",
"763 308 OFFCURVE",
"760 292 CURVE SMOOTH",
"704 0 LINE",
"916 0 LINE",
"972 292 LINE SMOOTH",
"978 322 OFFCURVE",
"980 348 OFFCURVE",
"980 372 CURVE SMOOTH",
"980 512 OFFCURVE",
"884 564 OFFCURVE",
"744 564 CURVE SMOOTH",
"677 564 OFFCURVE",
"613 548 OFFCURVE",
"559 527 CURVE",
"513 553 OFFCURVE",
"447 564 OFFCURVE",
"364 564 CURVE SMOOTH",
"272 564 OFFCURVE",
"176 544 OFFCURVE",
"116 524 CURVE",
"108 516 LINE",
"108 464 OFFCURVE",
"98 403 OFFCURVE",
"88 352 CURVE SMOOTH"
);
}
);
width = 1032;
}
);
leftKerningGroup = m;
note = m;
rightKerningGroup = a;
unicode = 006D;
},
{
glyphname = n;
lastChange = "2018-11-26 15:58:55 +0000";
layers = (
{
hints = (
{
horizontal = 1;
place = "{0, 21}";
target = up;
type = BottomGhost;
},
{
horizontal = 1;
place = "{476, 80}";
type = Stem;
},
{
place = "{470, 94}";
type = Stem;
}
);
layerId = "5B01CDE3-ACDA-4D2B-9E53-A993574CFD15";
paths = (
{
closed = 1;
nodes = (
"44 0 LINE",
"136 0 LINE",
"212 392 LINE SMOOTH",
"216 415 OFFCURVE",
"218 438 OFFCURVE",
"219 458 CURVE",
"255 468 OFFCURVE",
"298 476 OFFCURVE",
"336 476 CURVE SMOOTH",
"420 476 OFFCURVE",
"470 452 OFFCURVE",
"470 370 CURVE SMOOTH",
"470 353 OFFCURVE",
"468 334 OFFCURVE",
"464 312 CURVE SMOOTH",
"404 0 LINE",
"496 0 LINE",
"556 312 LINE SMOOTH",
"561 339 OFFCURVE",
"564 364 OFFCURVE",
"564 384 CURVE SMOOTH",
"564 512 OFFCURVE",
"476 556 OFFCURVE",
"352 556 CURVE SMOOTH",
"300 556 OFFCURVE",
"200 540 OFFCURVE",
"140 516 CURVE",
"136 508 LINE",
"134 472 OFFCURVE",
"128 432 OFFCURVE",
"120 392 CURVE SMOOTH"
);
}
);
width = 640;
},
{
hints = (
{
horizontal = 1;
place = "{0, 21}";
target = up;
type = BottomGhost;
},
{
horizontal = 1;
place = "{400, 164}";
type = Stem;
},
{
place = "{20, 624}";
type = Stem;
},
{
place = "{428, 216}";
type = Stem;
}
);
layerId = "FA792B6B-505C-4DC3-9C40-F9BEDA01661E";
paths = (
{
closed = 1;
nodes = (
"20 0 LINE",
"232 0 LINE",
"292 312 LINE SMOOTH",
"297 340 OFFCURVE",
"301 368 OFFCURVE",
"302 392 CURVE",
"317 397 OFFCURVE",
"335 400 OFFCURVE",
"352 400 CURVE SMOOTH",
"412 400 OFFCURVE",
"428 368 OFFCURVE",
"428 332 CURVE SMOOTH",
"428 323 OFFCURVE",
"427 308 OFFCURVE",
"424 292 CURVE SMOOTH",
"368 0 LINE",
"580 0 LINE",
"636 292 LINE SMOOTH",
"642 322 OFFCURVE",
"644 348 OFFCURVE",
"644 372 CURVE SMOOTH",
"644 512 OFFCURVE",
"548 564 OFFCURVE",
"368 564 CURVE SMOOTH",
"276 564 OFFCURVE",
"176 544 OFFCURVE",
"116 524 CURVE",
"108 516 LINE",
"108 464 OFFCURVE",
"98 403 OFFCURVE",
"88 352 CURVE SMOOTH"
);
}
);
width = 692;
}
);
leftKerningGroup = m;
note = n;
rightKerningGroup = a;
unicode = 006E;
},
{
glyphname = o;
lastChange = "2018-11-26 15:58:55 +0000";
layers = (
{
hints = (
{
horizontal = 1;
place = "{-8, 80}";
type = Stem;
},
{
horizontal = 1;
place = "{476, 80}";
type = Stem;
},
{
place = "{48, 94}";
type = Stem;
},
{
place = "{470, 94}";
type = Stem;
}
);
layerId = "5B01CDE3-ACDA-4D2B-9E53-A993574CFD15";
paths = (
{
closed = 1;
nodes = (
"48 76 OFFCURVE",
"128 -8 OFFCURVE",
"264 -8 CURVE SMOOTH",
"464 -8 OFFCURVE",
"564 168 OFFCURVE",
"564 340 CURVE SMOOTH",
"564 472 OFFCURVE",
"484 556 OFFCURVE",
"348 556 CURVE SMOOTH",
"148 556 OFFCURVE",
"48 380 OFFCURVE",
"48 208 CURVE SMOOTH"
);
},
{
closed = 1;
nodes = (
"142 332 OFFCURVE",
"200 476 OFFCURVE",
"340 476 CURVE SMOOTH",
"420 476 OFFCURVE",
"470 432 OFFCURVE",
"470 340 CURVE SMOOTH",
"470 216 OFFCURVE",
"412 72 OFFCURVE",
"272 72 CURVE SMOOTH",
"192 72 OFFCURVE",
"142 116 OFFCURVE",
"142 208 CURVE SMOOTH"
);
}
);
width = 604;
},
{
hints = (
{
horizontal = 1;
place = "{-12, 148}";
type = Stem;
},
{
horizontal = 1;
place = "{416, 148}";
type = Stem;
},
{
place = "{40, 216}";
type = Stem;
},
{
place = "{424, 216}";
type = Stem;
}
);
layerId = "FA792B6B-505C-4DC3-9C40-F9BEDA01661E";
paths = (
{
closed = 1;
nodes = (
"40 68 OFFCURVE",
"136 -12 OFFCURVE",
"308 -12 CURVE SMOOTH",
"532 -12 OFFCURVE",
"640 148 OFFCURVE",
"640 328 CURVE SMOOTH",
"640 484 OFFCURVE",
"544 564 OFFCURVE",
"372 564 CURVE SMOOTH",
"148 564 OFFCURVE",
"40 404 OFFCURVE",
"40 224 CURVE SMOOTH"
);
},
{
closed = 1;
nodes = (
"256 284 OFFCURVE",
"284 416 OFFCURVE",
"364 416 CURVE SMOOTH",
"404 416 OFFCURVE",
"424 388 OFFCURVE",
"424 340 CURVE SMOOTH",
"424 268 OFFCURVE",
"396 136 OFFCURVE",
"316 136 CURVE SMOOTH",
"276 136 OFFCURVE",
"256 164 OFFCURVE",
"256 212 CURVE SMOOTH"
);
}
);
width = 672;
}
);
leftKerningGroup = c;
note = o;
rightKerningGroup = b;
unicode = 006F;
},
{
glyphname = p;
lastChange = "2018-11-26 15:58:55 +0000";
layers = (
{
hints = (
{
horizontal = 1;
place = "{-232, 21}";
target = up;
type = BottomGhost;
},
{
horizontal = 1;
place = "{-12, 80}";
type = Stem;
},
{
horizontal = 1;
place = "{476, 80}";
type = Stem;
},
{
place = "{484, 94}";
type = Stem;
}
);
layerId = "5B01CDE3-ACDA-4D2B-9E53-A993574CFD15";
paths = (
{
closed = 1;
nodes = (
"0 -232 LINE",
"92 -232 LINE",
"138 6 LINE",
"164 -3 OFFCURVE",
"207 -12 OFFCURVE",
"252 -12 CURVE SMOOTH",
"444 -12 OFFCURVE",
"578 120 OFFCURVE",
"578 320 CURVE SMOOTH",
"578 476 OFFCURVE",
"480 556 OFFCURVE",
"344 556 CURVE SMOOTH",
"272 556 OFFCURVE",
"200 540 OFFCURVE",
"142 520 CURVE",
"138 512 LINE",
"136 476 OFFCURVE",
"130 436 OFFCURVE",
"122 396 CURVE SMOOTH"
);
},
{
closed = 1;
nodes = (
"428 476 OFFCURVE",
"484 428 OFFCURVE",
"484 320 CURVE SMOOTH",
"484 160 OFFCURVE",
"392 68 OFFCURVE",
"256 68 CURVE SMOOTH",
"204 68 OFFCURVE",
"173 76 OFFCURVE",
"153 85 CURVE",
"214 396 LINE SMOOTH",
"218 418 OFFCURVE",
"220 440 OFFCURVE",
"221 459 CURVE",
"252 469 OFFCURVE",
"288 476 OFFCURVE",
"328 476 CURVE SMOOTH"
);
}
);
width = 618;
},
{
hints = (
{
horizontal = 1;
place = "{-232, 21}";
target = up;
type = BottomGhost;
},
{
horizontal = 1;
place = "{-12, 148}";
type = Stem;
},
{
horizontal = 1;
place = "{412, 152}";
type = Stem;
},
{
place = "{440, 216}";
type = Stem;
},
{
horizontal = 1;
place = "{-2, 21}";
target = up;
type = BottomGhost;
}
);
layerId = "FA792B6B-505C-4DC3-9C40-F9BEDA01661E";
paths = (
{
closed = 1;
nodes = (
"-24 -232 LINE",
"188 -232 LINE",
"232 -2 LINE",
"250 -8 OFFCURVE",
"275 -12 OFFCURVE",
"308 -12 CURVE SMOOTH",
"564 -12 OFFCURVE",
"656 168 OFFCURVE",
"656 312 CURVE SMOOTH",
"656 500 OFFCURVE",
"532 564 OFFCURVE",
"368 564 CURVE SMOOTH",
"256 564 OFFCURVE",
"180 544 OFFCURVE",
"116 524 CURVE",
"108 516 LINE",
"108 464 OFFCURVE",
"98 403 OFFCURVE",
"88 352 CURVE SMOOTH"
);
},
{
closed = 1;
nodes = (
"415 412 OFFCURVE",
"440 369 OFFCURVE",
"440 312 CURVE SMOOTH",
"440 212 OFFCURVE",
"388 136 OFFCURVE",
"300 136 CURVE SMOOTH",
"279 136 OFFCURVE",
"267 138 OFFCURVE",
"259 141 CURVE",
"292 312 LINE SMOOTH",
"298 345 OFFCURVE",
"302 377 OFFCURVE",
"302 404 CURVE",
"316 409 OFFCURVE",
"333 412 OFFCURVE",
"348 412 CURVE SMOOTH"
);
}
);
width = 688;
}
);
leftKerningGroup = m;
note = p;
rightKerningGroup = b;
unicode = 0070;
},
{
glyphname = q;
lastChange = "2018-11-26 15:58:55 +0000";
layers = (
{
hints = (
{
horizontal = 1;
place = "{-232, 21}";
target = up;
type = BottomGhost;
},
{
horizontal = 1;
place = "{-12, 80}";
type = Stem;
},
{
horizontal = 1;
place = "{476, 80}";
type = Stem;
},
{
place = "{48, 94}";
type = Stem;
}
);
layerId = "5B01CDE3-ACDA-4D2B-9E53-A993574CFD15";
paths = (
{
closed = 1;
nodes = (
"338 -232 LINE",
"430 -232 LINE",
"553 396 LINE SMOOTH",
"561 436 OFFCURVE",
"572 480 OFFCURVE",
"584 512 CURVE",
"580 520 LINE",
"524 544 OFFCURVE",
"452 556 OFFCURVE",
"380 556 CURVE SMOOTH",
"180 556 OFFCURVE",
"48 424 OFFCURVE",
"48 224 CURVE SMOOTH",
"48 68 OFFCURVE",
"146 -12 OFFCURVE",
"292 -12 CURVE SMOOTH",
"326 -12 OFFCURVE",
"358 -6 OFFCURVE",
"383 1 CURVE"
);
},
{
closed = 1;
nodes = (
"198 68 OFFCURVE",
"142 116 OFFCURVE",
"142 224 CURVE SMOOTH",
"142 384 OFFCURVE",
"232 476 OFFCURVE",
"372 476 CURVE SMOOTH",
"420 476 OFFCURVE",
"446 471 OFFCURVE",
"476 458 CURVE",
"470 442 OFFCURVE",
"465 421 OFFCURVE",
"460 396 CURVE SMOOTH",
"399 82 LINE",
"379 75 OFFCURVE",
"347 68 OFFCURVE",
"304 68 CURVE SMOOTH"
);
}
);
width = 618;
},
{
hints = (
{
horizontal = 1;
place = "{-232, 21}";
target = up;
type = BottomGhost;
},
{
horizontal = 1;
place = "{-3, 21}";
target = up;
type = BottomGhost;
},
{
horizontal = 1;
place = "{408, 148}";
type = Stem;
},
{
place = "{40, 216}";
type = Stem;
},
{
horizontal = 1;
place = "{-12, 152}";
type = Stem;
}
);
layerId = "FA792B6B-505C-4DC3-9C40-F9BEDA01661E";
paths = (
{
closed = 1;
nodes = (
"312 -232 LINE",
"526 -232 LINE",
"641 360 LINE SMOOTH",
"649 400 OFFCURVE",
"664 468 OFFCURVE",
"680 504 CURVE",
"672 516 LINE",
"599 540 OFFCURVE",
"518 556 OFFCURVE",
"420 556 CURVE SMOOTH",
"184 556 OFFCURVE",
"40 436 OFFCURVE",
"40 224 CURVE SMOOTH",
"40 64 OFFCURVE",
"136 -12 OFFCURVE",
"292 -12 CURVE SMOOTH",
"320 -12 OFFCURVE",
"340 -9 OFFCURVE",
"357 -3 CURVE"
);
},
{
closed = 1;
nodes = (
"281 140 OFFCURVE",
"256 183 OFFCURVE",
"256 240 CURVE SMOOTH",
"256 332 OFFCURVE",
"304 408 OFFCURVE",
"392 408 CURVE SMOOTH",
"414 408 OFFCURVE",
"426 406 OFFCURVE",
"440 401 CURVE",
"433 381 OFFCURVE",
"428 357 OFFCURVE",
"423 330 CURVE SMOOTH",
"387 146 LINE",
"376 142 OFFCURVE",
"363 140 OFFCURVE",
"348 140 CURVE SMOOTH"
);
}
);
width = 684;
}
);
leftKerningGroup = c;
note = q;
rightKerningGroup = g;
unicode = 0071;
},
{
glyphname = r;
lastChange = "2018-11-26 15:58:55 +0000";
layers = (
{
hints = (
{
horizontal = 1;
place = "{0, 21}";
target = up;
type = BottomGhost;
},
{
horizontal = 1;
place = "{468, 80}";
type = Stem;
},
{
place = "{44, 368}";
type = Stem;
},
{
horizontal = 1;
place = "{544, -20}";
target = down;
type = TopGhost;
}
);
layerId = "5B01CDE3-ACDA-4D2B-9E53-A993574CFD15";
paths = (
{
closed = 1;
nodes = (
"44 0 LINE",
"136 0 LINE",
"212 392 LINE SMOOTH",
"216 414 OFFCURVE",
"218 437 OFFCURVE",
"219 457 CURVE",
"252 463 OFFCURVE",
"293 468 OFFCURVE",
"328 468 CURVE SMOOTH",
"348 468 OFFCURVE",
"372 466 OFFCURVE",
"388 464 CURVE",
"396 464 LINE",
"412 544 LINE",
"398 546 OFFCURVE",
"368 548 OFFCURVE",
"336 548 CURVE SMOOTH",
"284 548 OFFCURVE",
"195 536 OFFCURVE",
"140 516 CURVE",
"136 508 LINE",
"134 472 OFFCURVE",
"128 432 OFFCURVE",
"120 392 CURVE SMOOTH"
);
}
);
width = 384;
},
{
hints = (
{
horizontal = 1;
place = "{0, 21}";
target = up;
type = BottomGhost;
},
{
horizontal = 1;
place = "{556, -20}";
target = down;
type = TopGhost;
},
{
place = "{16, 468}";
type = Stem;
},
{
horizontal = 1;
place = "{404, 160}";
type = Stem;
}
);
layerId = "FA792B6B-505C-4DC3-9C40-F9BEDA01661E";
paths = (
{
closed = 1;
nodes = (
"16 0 LINE",
"228 0 LINE",
"288 312 LINE SMOOTH",
"294 343 OFFCURVE",
"297 372 OFFCURVE",
"298 398 CURVE",
"315 402 OFFCURVE",
"336 404 OFFCURVE",
"364 404 CURVE SMOOTH",
"392 404 OFFCURVE",
"416 400 OFFCURVE",
"440 392 CURVE",
"452 392 LINE",
"484 556 LINE",
"435 563 OFFCURVE",
"391 564 OFFCURVE",
"376 564 CURVE SMOOTH",
"248 564 OFFCURVE",
"175 544 OFFCURVE",
"112 524 CURVE",
"104 516 LINE",
"104 464 OFFCURVE",
"94 403 OFFCURVE",
"84 352 CURVE SMOOTH"
);
}
);
width = 444;
}
);
leftKerningGroup = m;
note = r;
rightKerningGroup = r;
unicode = 0072;
},
{
glyphname = s;
lastChange = "2018-11-26 15:58:55 +0000";
layers = (
{
hints = (
{
horizontal = 1;
place = "{-8, 80}";
type = Stem;
},
{
horizontal = 1;
place = "{472, 80}";
type = Stem;
},
{
place = "{70, 90}";
type = Stem;
},
{
place = "{352, 90}";
type = Stem;
}
);
layerId = "5B01CDE3-ACDA-4D2B-9E53-A993574CFD15";
paths = (
{
closed = 1;
nodes = (
"12 20 LINE",
"60 0 OFFCURVE",
"136 -8 OFFCURVE",
"200 -8 CURVE SMOOTH",
"344 -8 OFFCURVE",
"442 44 OFFCURVE",
"442 156 CURVE SMOOTH",
"442 240 OFFCURVE",
"374 280 OFFCURVE",
"296 300 CURVE SMOOTH",
"264 308 LINE SMOOTH",
"205 323 OFFCURVE",
"160 332 OFFCURVE",
"160 384 CURVE SMOOTH",
"160 444 OFFCURVE",
"224 472 OFFCURVE",
"316 472 CURVE SMOOTH",
"376 472 OFFCURVE",
"407 462 OFFCURVE",
"448 446 CURVE",
"456 446 LINE",
"472 528 LINE",
"432 544 OFFCURVE",
"388 552 OFFCURVE",
"324 552 CURVE SMOOTH",
"152 552 OFFCURVE",
"70 472 OFFCURVE",
"70 376 CURVE SMOOTH",
"70 296 OFFCURVE",
"126 260 OFFCURVE",
"220 236 CURVE SMOOTH",
"252 228 LINE SMOOTH",
"310 214 OFFCURVE",
"352 200 OFFCURVE",
"352 152 CURVE SMOOTH",
"352 80 OFFCURVE",
"268 72 OFFCURVE",
"204 72 CURVE SMOOTH",
"140 72 OFFCURVE",
"80 84 OFFCURVE",
"36 106 CURVE",
"28 106 LINE"
);
}
);
width = 500;
},
{
hints = (
{
horizontal = 1;
place = "{-8, 152}";
type = Stem;
},
{
horizontal = 1;
place = "{408, 152}";
type = Stem;
},
{
place = "{62, 210}";
type = Stem;
},
{
place = "{308, 212}";
type = Stem;
},
{
horizontal = 1;
place = "{540, 20}";
type = Stem;
}
);
layerId = "FA792B6B-505C-4DC3-9C40-F9BEDA01661E";
paths = (
{
closed = 1;
nodes = (
"4 20 LINE",
"64 0 OFFCURVE",
"136 -8 OFFCURVE",
"212 -8 CURVE SMOOTH",
"412 -8 OFFCURVE",
"520 60 OFFCURVE",
"520 180 CURVE SMOOTH",
"520 276 OFFCURVE",
"452 314 OFFCURVE",
"372 332 CURVE SMOOTH",
"336 340 LINE SMOOTH",
"295 349 OFFCURVE",
"272 356 OFFCURVE",
"272 376 CURVE SMOOTH",
"272 400 OFFCURVE",
"300 408 OFFCURVE",
"352 408 CURVE SMOOTH",
"396 408 OFFCURVE",
"453 401 OFFCURVE",
"508 376 CURVE",
"520 376 LINE",
"552 540 LINE",
"495 556 OFFCURVE",
"427 560 OFFCURVE",
"363 560 CURVE SMOOTH",
"151 560 OFFCURVE",
"62 476 OFFCURVE",
"62 364 CURVE SMOOTH",
"62 268 OFFCURVE",
"126 234 OFFCURVE",
"208 216 CURVE SMOOTH",
"244 208 LINE SMOOTH",
"285 199 OFFCURVE",
"308 194 OFFCURVE",
"308 172 CURVE SMOOTH",
"308 152 OFFCURVE",
"280 144 OFFCURVE",
"216 144 CURVE SMOOTH",
"156 144 OFFCURVE",
"92 160 OFFCURVE",
"48 184 CURVE",
"36 184 LINE"
);
}
);
width = 568;
}
);
leftKerningGroup = s;
note = s;
rightKerningGroup = s;
unicode = 0073;
},
{
glyphname = t;
lastChange = "2018-11-26 15:58:55 +0000";
layers = (
{
hints = (
{
horizontal = 1;
place = "{-8, 80}";
type = Stem;
},
{
horizontal = 1;
place = "{464, 80}";
type = Stem;
},
{
place = "{88, 92}";
type = Stem;
}
);
layerId = "5B01CDE3-ACDA-4D2B-9E53-A993574CFD15";
paths = (
{
closed = 1;
nodes = (
"64 464 LINE",
"147 464 LINE",
"92 180 LINE SMOOTH",
"89 165 OFFCURVE",
"88 148 OFFCURVE",
"88 136 CURVE SMOOTH",
"88 44 OFFCURVE",
"147 -8 OFFCURVE",
"248 -8 CURVE SMOOTH",
"284 -8 OFFCURVE",
"318 -2 OFFCURVE",
"340 8 CURVE",
"352 88 LINE",
"344 88 LINE",
"322 78 OFFCURVE",
"296 72 OFFCURVE",
"268 72 CURVE SMOOTH",
"204 72 OFFCURVE",
"180 100 OFFCURVE",
"180 144 CURVE SMOOTH",
"180 152 OFFCURVE",
"181 167 OFFCURVE",
"184 180 CURVE",
"239 464 LINE",
"396 464 LINE",
"412 544 LINE",
"255 544 LINE",
"284 692 LINE",
"192 692 LINE",
"163 544 LINE",
"80 544 LINE"
);
}
);
width = 404;
},
{
hints = (
{
horizontal = 1;
place = "{-8, 21}";
target = up;
type = BottomGhost;
},
{
horizontal = 1;
place = "{388, 160}";
type = Stem;
},
{
place = "{90, 215}";
type = Stem;
},
{
horizontal = 1;
place = "{-8, 164}";
type = Stem;
}
);
layerId = "FA792B6B-505C-4DC3-9C40-F9BEDA01661E";
paths = (
{
closed = 1;
nodes = (
"32 388 LINE",
"125 388 LINE",
"98 248 LINE SMOOTH",
"93 222 OFFCURVE",
"90 198 OFFCURVE",
"90 176 CURVE SMOOTH",
"89 42 OFFCURVE",
"178 -8 OFFCURVE",
"312 -8 CURVE SMOOTH",
"360 -8 OFFCURVE",
"392 -2 OFFCURVE",
"428 8 CURVE",
"460 172 LINE",
"448 172 LINE",
"428 162 OFFCURVE",
"404 156 OFFCURVE",
"380 156 CURVE SMOOTH",
"329 156 OFFCURVE",
"305 180 OFFCURVE",
"305 216 CURVE SMOOTH",
"305 223 OFFCURVE",
"306 235 OFFCURVE",
"308 244 CURVE SMOOTH",
"335 388 LINE",
"476 388 LINE",
"508 548 LINE",
"366 548 LINE",
"392 680 LINE",
"182 680 LINE",
"156 548 LINE",
"64 548 LINE"
);
}
);
width = 500;
}
);
leftKerningGroup = t;
note = t;
rightKerningGroup = t;
unicode = 0074;
},
{
glyphname = u;
lastChange = "2018-11-26 15:58:55 +0000";
layers = (
{
hints = (
{
horizontal = 1;
place = "{-12, 80}";
type = Stem;
},
{
horizontal = 1;
place = "{544, -20}";
target = down;
type = TopGhost;
},
{
place = "{76, 94}";
type = Stem;
}
);
layerId = "5B01CDE3-ACDA-4D2B-9E53-A993574CFD15";
paths = (
{
closed = 1;
nodes = (
"76 32 OFFCURVE",
"164 -12 OFFCURVE",
"288 -12 CURVE SMOOTH",
"340 -12 OFFCURVE",
"440 4 OFFCURVE",
"500 28 CURVE",
"504 36 LINE",
"506 72 OFFCURVE",
"512 112 OFFCURVE",
"520 152 CURVE SMOOTH",
"596 544 LINE",
"498 544 LINE",
"494 536 LINE",
"495 500 OFFCURVE",
"480 420 OFFCURVE",
"472 380 CURVE SMOOTH",
"428 152 LINE SMOOTH",
"423 129 OFFCURVE",
"421 105 OFFCURVE",
"420 85 CURVE",
"384 75 OFFCURVE",
"341 68 OFFCURVE",
"304 68 CURVE SMOOTH",
"220 68 OFFCURVE",
"170 92 OFFCURVE",
"170 174 CURVE SMOOTH",
"170 191 OFFCURVE",
"172 210 OFFCURVE",
"176 232 CURVE SMOOTH",
"236 544 LINE",
"138 544 LINE",
"134 536 LINE",
"135 500 OFFCURVE",
"120 420 OFFCURVE",
"112 380 CURVE SMOOTH",
"84 232 LINE SMOOTH",
"79 205 OFFCURVE",
"76 180 OFFCURVE",
"76 160 CURVE SMOOTH"
);
}
);
width = 632;
},
{
hints = (
{
horizontal = 1;
place = "{-12, 164}";
type = Stem;
},
{
horizontal = 1;
place = "{536, 12}";
type = Stem;
},
{
place = "{56, 216}";
type = Stem;
}
);
layerId = "FA792B6B-505C-4DC3-9C40-F9BEDA01661E";
paths = (
{
closed = 1;
nodes = (
"56 40 OFFCURVE",
"152 -12 OFFCURVE",
"332 -12 CURVE SMOOTH",
"424 -12 OFFCURVE",
"524 8 OFFCURVE",
"584 28 CURVE",
"592 36 LINE",
"592 88 OFFCURVE",
"602 149 OFFCURVE",
"612 200 CURVE SMOOTH",
"680 548 LINE",
"458 548 LINE",
"450 536 LINE",
"452 484 OFFCURVE",
"445 432 OFFCURVE",
"436 384 CURVE SMOOTH",
"408 240 LINE SMOOTH",
"402 211 OFFCURVE",
"399 184 OFFCURVE",
"398 159 CURVE",
"382 155 OFFCURVE",
"365 152 OFFCURVE",
"348 152 CURVE SMOOTH",
"288 152 OFFCURVE",
"272 184 OFFCURVE",
"272 220 CURVE SMOOTH",
"272 229 OFFCURVE",
"273 244 OFFCURVE",
"276 260 CURVE SMOOTH",
"332 548 LINE",
"110 548 LINE",
"102 536 LINE",
"104 484 OFFCURVE",
"97 432 OFFCURVE",
"88 384 CURVE SMOOTH",
"64 260 LINE SMOOTH",
"58 230 OFFCURVE",
"56 204 OFFCURVE",
"56 180 CURVE SMOOTH"
);
}
);
width = 692;
}
);
leftKerningGroup = u;
note = u;
rightKerningGroup = g;
unicode = 0075;
},
{
glyphname = v;
lastChange = "2018-11-26 15:58:55 +0000";
layers = (
{
hints = (
{
horizontal = 1;
place = "{0, 21}";
target = up;
type = BottomGhost;
},
{
horizontal = 1;
place = "{544, -20}";
target = down;
type = TopGhost;
},
{
place = "{68, 512}";
type = Stem;
},
{
horizontal = 1;
place = "{0, 83}";
type = Stem;
}
);
layerId = "5B01CDE3-ACDA-4D2B-9E53-A993574CFD15";
paths = (
{
closed = 1;
nodes = (
"160 0 LINE",
"280 0 LINE",
"580 532 LINE",
"580 544 LINE",
"488 544 LINE",
"235 83 LINE",
"164 544 LINE",
"68 544 LINE",
"68 532 LINE"
);
}
);
width = 536;
},
{
hints = (
{
horizontal = 1;
place = "{0, 21}";
target = up;
type = BottomGhost;
},
{
horizontal = 1;
place = "{548, -20}";
target = down;
type = TopGhost;
},
{
place = "{60, 632}";
type = Stem;
}
);
layerId = "FA792B6B-505C-4DC3-9C40-F9BEDA01661E";
paths = (
{
closed = 1;
nodes = (
"132 0 LINE",
"396 0 LINE",
"692 536 LINE",
"692 548 LINE",
"468 548 LINE",
"310 207 LINE",
"280 548 LINE",
"60 548 LINE",
"60 536 LINE"
);
}
);
width = 640;
}
);
leftKerningGroup = v;
note = v;
rightKerningGroup = v;
unicode = 0076;
},
{
glyphname = w;
lastChange = "2018-11-26 15:58:55 +0000";
layers = (
{
hints = (
{
horizontal = 1;
place = "{0, 21}";
target = up;
type = BottomGhost;
},
{
horizontal = 1;
place = "{544, -20}";
target = down;
type = TopGhost;
},
{
place = "{68, 748}";
type = Stem;
},
{
horizontal = 1;
place = "{0, 104}";
type = Stem;
}
);
layerId = "5B01CDE3-ACDA-4D2B-9E53-A993574CFD15";
paths = (
{
closed = 1;
nodes = (
"112 0 LINE",
"220 0 LINE",
"413 379 LINE",
"456 0 LINE",
"564 0 LINE",
"816 532 LINE",
"816 544 LINE",
"724 544 LINE",
"525 104 LINE",
"480 544 LINE",
"412 544 LINE",
"189 108 LINE",
"164 544 LINE",
"68 544 LINE",
"68 532 LINE"
);
}
);
width = 772;
},
{
hints = (
{
horizontal = 1;
place = "{0, 21}";
target = up;
type = BottomGhost;
},
{
horizontal = 1;
place = "{548, -20}";
target = down;
type = TopGhost;
},
{
place = "{60, 952}";
type = Stem;
}
);
layerId = "FA792B6B-505C-4DC3-9C40-F9BEDA01661E";
paths = (
{
closed = 1;
nodes = (
"112 0 LINE",
"344 0 LINE",
"483 277 LINE",
"512 0 LINE",
"740 0 LINE",
"1012 536 LINE",
"1012 548 LINE",
"788 548 LINE",
"647 211 LINE",
"612 548 LINE",
"460 548 LINE",
"299 226 LINE",
"280 548 LINE",
"60 548 LINE",
"60 536 LINE"
);
}
);
width = 964;
}
);
leftKerningGroup = w;
note = w;
rightKerningGroup = w;
unicode = 0077;
},
{
glyphname = x;
lastChange = "2018-11-26 15:58:55 +0000";
layers = (
{
hints = (
{
horizontal = 1;
place = "{0, 21}";
target = up;
type = BottomGhost;
},
{
horizontal = 1;
place = "{544, -20}";
target = down;
type = TopGhost;
},
{
place = "{-20, 584}";
type = Stem;
}
);
layerId = "5B01CDE3-ACDA-4D2B-9E53-A993574CFD15";
paths = (
{
closed = 1;
nodes = (
"360 0 LINE",
"452 0 LINE",
"452 8 LINE",
"315 265 LINE",
"564 536 LINE",
"564 544 LINE",
"468 544 LINE",
"279 334 LINE",
"168 544 LINE",
"76 544 LINE",
"76 536 LINE",
"218 267 LINE",
"-20 8 LINE",
"-20 0 LINE",
"76 0 LINE",
"255 198 LINE"
);
}
);
width = 532;
},
{
hints = (
{
horizontal = 1;
place = "{0, 21}";
target = up;
type = BottomGhost;
},
{
horizontal = 1;
place = "{548, -20}";
target = down;
type = TopGhost;
},
{
place = "{-28, 736}";
type = Stem;
}
);
layerId = "FA792B6B-505C-4DC3-9C40-F9BEDA01661E";
paths = (
{
closed = 1;
nodes = (
"368 0 LINE",
"600 0 LINE",
"600 12 LINE",
"444 269 LINE",
"708 536 LINE",
"708 548 LINE",
"484 548 LINE",
"364 416 LINE",
"296 548 LINE",
"64 548 LINE",
"64 536 LINE",
"225 269 LINE",
"-28 12 LINE",
"-28 0 LINE",
"196 0 LINE",
"306 120 LINE"
);
}
);
width = 660;
}
);
leftKerningGroup = x;
note = x;
rightKerningGroup = x;
unicode = 0078;
},
{
glyphname = y;
lastChange = "2018-11-26 15:58:55 +0000";
layers = (
{
hints = (
{
horizontal = 1;
place = "{-232, 21}";
target = up;
type = BottomGhost;
},
{
horizontal = 1;
place = "{0, 21}";
target = up;
type = BottomGhost;
},
{
horizontal = 1;
place = "{544, -20}";
target = down;
type = TopGhost;
},
{
place = "{34, 544}";
type = Stem;
}
);
layerId = "5B01CDE3-ACDA-4D2B-9E53-A993574CFD15";
paths = (
{
closed = 1;
nodes = (
"34 -220 LINE",
"34 -232 LINE",
"126 -232 LINE",
"578 532 LINE",
"578 544 LINE",
"486 544 LINE",
"238 115 LINE",
"162 544 LINE",
"66 544 LINE",
"66 532 LINE",
"170 0 LINE"
);
}
);
width = 536;
},
{
hints = (
{
horizontal = 1;
place = "{-232, 21}";
target = up;
type = BottomGhost;
},
{
horizontal = 1;
place = "{548, -20}";
target = down;
type = TopGhost;
},
{
place = "{24, 656}";
type = Stem;
}
);
layerId = "FA792B6B-505C-4DC3-9C40-F9BEDA01661E";
paths = (
{
closed = 1;
nodes = (
"24 -220 LINE",
"24 -232 LINE",
"244 -232 LINE",
"680 536 LINE",
"680 548 LINE",
"464 548 LINE",
"307 231 LINE",
"276 548 LINE",
"56 548 LINE",
"56 536 LINE",
"144 -37 LINE"
);
}
);
width = 624;
}
);
leftKerningGroup = v;
note = y;
rightKerningGroup = v;
unicode = 0079;
},
{
glyphname = z;
lastChange = "2018-11-26 15:58:55 +0000";
layers = (
{
hints = (
{
horizontal = 1;
place = "{0, 78}";
type = Stem;
},
{
horizontal = 1;
place = "{462, 82}";
type = Stem;
},
{
place = "{-4, 520}";
type = Stem;
}
);
layerId = "5B01CDE3-ACDA-4D2B-9E53-A993574CFD15";
paths = (
{
closed = 1;
nodes = (
"396 462 LINE",
"380 438 OFFCURVE",
"356 417 OFFCURVE",
"336 400 CURVE",
"104 188 LINE SMOOTH",
"63 150 OFFCURVE",
"-4 100 OFFCURVE",
"-4 8 CURVE",
"4 0 LINE",
"432 0 LINE",
"446 78 LINE",
"113 78 LINE",
"128 103 OFFCURVE",
"155 125 OFFCURVE",
"176 144 CURVE SMOOTH",
"408 356 LINE SMOOTH",
"449 394 OFFCURVE",
"516 444 OFFCURVE",
"516 536 CURVE",
"508 544 LINE",
"108 544 LINE",
"92 462 LINE"
);
}
);
width = 520;
},
{
hints = (
{
horizontal = 1;
place = "{0, 160}";
type = Stem;
},
{
horizontal = 1;
place = "{388, 160}";
type = Stem;
},
{
place = "{0, 604}";
type = Stem;
}
);
layerId = "FA792B6B-505C-4DC3-9C40-F9BEDA01661E";
paths = (
{
closed = 1;
nodes = (
"298 388 LINE",
"286 373 OFFCURVE",
"271 358 OFFCURVE",
"256 344 CURVE SMOOTH",
"72 172 LINE SMOOTH",
"20 124 OFFCURVE",
"-4 80 OFFCURVE",
"0 12 CURVE",
"8 0 LINE",
"512 0 LINE",
"544 160 LINE",
"306 160 LINE",
"318 174 OFFCURVE",
"333 190 OFFCURVE",
"348 204 CURVE SMOOTH",
"532 376 LINE SMOOTH",
"584 424 OFFCURVE",
"608 468 OFFCURVE",
"604 536 CURVE",
"596 548 LINE",
"104 548 LINE",
"72 388 LINE"
);
}
);
width = 592;
}
);
leftKerningGroup = z;
note = z;
rightKerningGroup = z;
unicode = 007A;
},
{
glyphname = germandbls;
lastChange = "2018-11-26 15:58:55 +0000";
layers = (
{
hints = (
{
horizontal = 1;
place = "{-8, 76}";
type = Stem;
},
{
horizontal = 1;
place = "{464, 80}";
type = Stem;
},
{
horizontal = 1;
place = "{680, 80}";
type = Stem;
},
{
place = "{444, 88}";
type = Stem;
},
{
horizontal = 1;
place = "{0, 21}";
target = up;
type = BottomGhost;
},
{
place = "{332, 88}";
type = Stem;
},
{
place = "{460, 86}";
type = Stem;
}
);
layerId = "5B01CDE3-ACDA-4D2B-9E53-A993574CFD15";
paths = (
{
closed = 1;
nodes = (
"56 464 LINE",
"138 464 LINE",
"48 0 LINE",
"140 0 LINE",
"248 556 LINE SMOOTH",
"264 640 OFFCURVE",
"304 680 OFFCURVE",
"376 680 CURVE SMOOTH",
"436 680 OFFCURVE",
"460 652 OFFCURVE",
"460 608 CURVE SMOOTH",
"460 562 OFFCURVE",
"430 530 OFFCURVE",
"400 496 CURVE SMOOTH",
"367 459 OFFCURVE",
"332 421 OFFCURVE",
"332 360 CURVE SMOOTH",
"332 304 OFFCURVE",
"363 273 OFFCURVE",
"388 248 CURVE SMOOTH",
"400 236 LINE SMOOTH",
"422 214 OFFCURVE",
"444 196 OFFCURVE",
"444 156 CURVE SMOOTH",
"444 96 OFFCURVE",
"408 68 OFFCURVE",
"340 68 CURVE SMOOTH",
"300 68 OFFCURVE",
"274 78 OFFCURVE",
"256 88 CURVE",
"248 88 LINE",
"232 8 LINE",
"264 -1 OFFCURVE",
"292 -8 OFFCURVE",
"340 -8 CURVE SMOOTH",
"452 -8 OFFCURVE",
"532 48 OFFCURVE",
"532 160 CURVE SMOOTH",
"532 214 OFFCURVE",
"500 256 OFFCURVE",
"472 284 CURVE SMOOTH",
"460 296 LINE SMOOTH",
"440 316 OFFCURVE",
"420 332 OFFCURVE",
"420 368 CURVE SMOOTH",
"420 408 OFFCURVE",
"452 437 OFFCURVE",
"484 472 CURVE SMOOTH",
"515 506 OFFCURVE",
"546 547 OFFCURVE",
"546 612 CURVE SMOOTH",
"546 696 OFFCURVE",
"488 760 OFFCURVE",
"384 760 CURVE SMOOTH",
"232 760 OFFCURVE",
"175 656 OFFCURVE",
"156 556 CURVE",
"153 544 LINE",
"72 544 LINE"
);
}
);
width = 584;
},
{
hints = (
{
horizontal = 1;
place = "{0, 21}";
target = up;
type = BottomGhost;
},
{
horizontal = 1;
place = "{388, 160}";
type = Stem;
},
{
horizontal = 1;
place = "{624, 152}";
type = Stem;
},
{
place = "{492, 200}";
type = Stem;
},
{
place = "{504, 200}";
type = Stem;
},
{
place = "{420, 194}";
type = Stem;
},
{
horizontal = 1;
place = "{-8, 156}";
type = Stem;
}
);
layerId = "FA792B6B-505C-4DC3-9C40-F9BEDA01661E";
paths = (
{
closed = 1;
nodes = (
"32 388 LINE",
"126 388 LINE",
"52 0 LINE",
"264 0 LINE",
"368 536 LINE SMOOTH",
"380 596 OFFCURVE",
"400 624 OFFCURVE",
"448 624 CURVE SMOOTH",
"496 624 OFFCURVE",
"504 596 OFFCURVE",
"504 568 CURVE SMOOTH",
"504 536 OFFCURVE",
"488 502 OFFCURVE",
"468 476 CURVE SMOOTH",
"440 440 OFFCURVE",
"420 404 OFFCURVE",
"420 364 CURVE SMOOTH",
"420 324 OFFCURVE",
"438 294 OFFCURVE",
"458 268 CURVE SMOOTH",
"470 252 LINE SMOOTH",
"480 239 OFFCURVE",
"492 228 OFFCURVE",
"492 200 CURVE SMOOTH",
"492 172 OFFCURVE",
"476 148 OFFCURVE",
"432 148 CURVE SMOOTH",
"404 148 OFFCURVE",
"392 156 OFFCURVE",
"376 164 CURVE",
"364 164 LINE",
"332 8 LINE",
"364 -1 OFFCURVE",
"398 -8 OFFCURVE",
"450 -8 CURVE SMOOTH",
"576 -8 OFFCURVE",
"692 48 OFFCURVE",
"692 188 CURVE SMOOTH",
"692 244 OFFCURVE",
"673 272 OFFCURVE",
"652 300 CURVE SMOOTH",
"640 316 LINE SMOOTH",
"623 339 OFFCURVE",
"614 352 OFFCURVE",
"614 376 CURVE SMOOTH",
"614 412 OFFCURVE",
"635 436 OFFCURVE",
"656 468 CURVE SMOOTH",
"681 507 OFFCURVE",
"704 549 OFFCURVE",
"704 604 CURVE SMOOTH",
"704 728 OFFCURVE",
"610 776 OFFCURVE",
"472 776 CURVE SMOOTH",
"306 776 OFFCURVE",
"195 721 OFFCURVE",
"158 548 CURVE",
"64 548 LINE"
);
}
);
width = 732;
}
);
leftKerningGroup = f;
note = germandbls;
rightKerningGroup = b;
unicode = 00DF;
},
{
glyphname = f_b;
lastChange = "2018-11-26 15:58:55 +0000";
layers = (
{
hints = (
{
horizontal = 1;
place = "{-12, 80}";
type = Stem;
},
{
horizontal = 1;
place = "{464, 80}";
type = Stem;
},
{
horizontal = 1;
place = "{680, 80}";
type = Stem;
},
{
place = "{822, 94}";
type = Stem;
},
{
horizontal = 1;
place = "{476, 80}";
type = Stem;
},
{
horizontal = 1;
place = "{0, 21}";
target = up;
type = BottomGhost;
}
);
layerId = "5B01CDE3-ACDA-4D2B-9E53-A993574CFD15";
paths = (
{
closed = 1;
nodes = (
"384 24 LINE",
"436 0 OFFCURVE",
"512 -12 OFFCURVE",
"584 -12 CURVE SMOOTH",
"776 -12 OFFCURVE",
"916 120 OFFCURVE",
"916 320 CURVE SMOOTH",
"916 472 OFFCURVE",
"820 556 OFFCURVE",
"684 556 CURVE SMOOTH",
"644 556 OFFCURVE",
"608 548 OFFCURVE",
"580 538 CURVE",
"624 760 LINE",
"526 760 LINE",
"522 752 LINE",
"523 716 OFFCURVE",
"506 628 OFFCURVE",
"498 588 CURVE SMOOTH",
"411 148 LINE SMOOTH",
"403 108 OFFCURVE",
"392 64 OFFCURVE",
"380 32 CURVE"
);
},
{
closed = 1;
nodes = (
"565 461 LINE",
"586 468 OFFCURVE",
"619 476 OFFCURVE",
"664 476 CURVE SMOOTH",
"764 476 OFFCURVE",
"822 428 OFFCURVE",
"822 320 CURVE SMOOTH",
"822 160 OFFCURVE",
"724 68 OFFCURVE",
"588 68 CURVE SMOOTH",
"550 68 OFFCURVE",
"515 73 OFFCURVE",
"485 80 CURVE",
"492 98 OFFCURVE",
"498 120 OFFCURVE",
"504 148 CURVE SMOOTH"
);
},
{
closed = 1;
nodes = (
"60 464 LINE",
"142 464 LINE",
"52 0 LINE",
"144 0 LINE",
"234 464 LINE",
"388 464 LINE",
"404 544 LINE",
"249 544 LINE",
"252 556 LINE",
"268 640 OFFCURVE",
"308 680 OFFCURVE",
"380 680 CURVE SMOOTH",
"412 680 OFFCURVE",
"428 676 OFFCURVE",
"448 668 CURVE",
"456 668 LINE",
"472 748 LINE",
"454 756 OFFCURVE",
"420 760 OFFCURVE",
"388 760 CURVE SMOOTH",
"240 760 OFFCURVE",
"181 664 OFFCURVE",
"160 556 CURVE",
"157 544 LINE",
"76 544 LINE"
);
}
);
width = 954;
},
{
hints = (
{
horizontal = 1;
place = "{-12, 148}";
type = Stem;
},
{
horizontal = 1;
place = "{388, 160}";
type = Stem;
},
{
horizontal = 1;
place = "{748, 12}";
type = Stem;
},
{
place = "{900, 216}";
type = Stem;
},
{
horizontal = 1;
place = "{556, -20}";
target = down;
type = TopGhost;
},
{
horizontal = 1;
place = "{0, 21}";
target = up;
type = BottomGhost;
},
{
horizontal = 1;
place = "{624, 152}";
type = Stem;
},
{
horizontal = 1;
place = "{404, 152}";
type = Stem;
}
);
layerId = "FA792B6B-505C-4DC3-9C40-F9BEDA01661E";
paths = (
{
closed = 1;
nodes = (
"484 16 LINE",
"536 0 OFFCURVE",
"644 -12 OFFCURVE",
"724 -12 CURVE SMOOTH",
"960 -12 OFFCURVE",
"1116 96 OFFCURVE",
"1116 320 CURVE SMOOTH",
"1116 470 OFFCURVE",
"1031 556 OFFCURVE",
"896 556 CURVE SMOOTH",
"859 556 OFFCURVE",
"828 550 OFFCURVE",
"801 540 CURVE",
"844 760 LINE",
"621 760 LINE",
"613 748 LINE",
"615 696 OFFCURVE",
"608 644 OFFCURVE",
"599 596 CURVE SMOOTH",
"518 176 LINE SMOOTH",
"506 116 OFFCURVE",
"498 80 OFFCURVE",
"480 24 CURVE"
);
},
{
closed = 1;
nodes = (
"32 388 LINE",
"126 388 LINE",
"52 0 LINE",
"264 0 LINE",
"339 388 LINE",
"456 388 LINE",
"488 548 LINE",
"370 548 LINE",
"384 600 OFFCURVE",
"412 624 OFFCURVE",
"468 624 CURVE SMOOTH",
"496 624 OFFCURVE",
"517 618 OFFCURVE",
"528 612 CURVE",
"540 612 LINE",
"570 764 LINE",
"551 770 OFFCURVE",
"508 776 OFFCURVE",
"468 776 CURVE SMOOTH",
"302 776 OFFCURVE",
"194 721 OFFCURVE",
"158 548 CURVE",
"64 548 LINE"
);
},
{
closed = 1;
nodes = (
"774 399 LINE",
"784 402 OFFCURVE",
"795 404 OFFCURVE",
"808 404 CURVE SMOOTH",
"868 404 OFFCURVE",
"900 368 OFFCURVE",
"900 300 CURVE SMOOTH",
"900 208 OFFCURVE",
"852 136 OFFCURVE",
"764 136 CURVE SMOOTH",
"744 136 OFFCURVE",
"732 138 OFFCURVE",
"719 142 CURVE",
"726 162 OFFCURVE",
"732 183 OFFCURVE",
"736 204 CURVE SMOOTH"
);
}
);
width = 1148;
}
);
leftKerningGroup = f;
note = f_b;
rightKerningGroup = b;
},
{
glyphname = ff;
lastChange = "2018-11-26 15:58:55 +0000";
layers = (
{
hints = (
{
horizontal = 1;
place = "{0, 21}";
target = up;
type = BottomGhost;
},
{
horizontal = 1;
place = "{464, 80}";
type = Stem;
},
{
horizontal = 1;
place = "{680, 80}";
type = Stem;
},
{
place = "{52, 756}";
type = Stem;
}
);
layerId = "5B01CDE3-ACDA-4D2B-9E53-A993574CFD15";
paths = (
{
closed = 1;
nodes = (
"60 464 LINE",
"142 464 LINE",
"52 0 LINE",
"144 0 LINE",
"234 464 LINE",
"388 464 LINE",
"404 544 LINE",
"249 544 LINE",
"252 556 LINE",
"268 640 OFFCURVE",
"308 680 OFFCURVE",
"380 680 CURVE SMOOTH",
"412 680 OFFCURVE",
"428 676 OFFCURVE",
"448 668 CURVE",
"456 668 LINE",
"472 748 LINE",
"454 756 OFFCURVE",
"420 760 OFFCURVE",
"388 760 CURVE SMOOTH",
"240 760 OFFCURVE",
"181 664 OFFCURVE",
"160 556 CURVE",
"157 544 LINE",
"76 544 LINE"
);
},
{
closed = 1;
nodes = (
"396 464 LINE",
"478 464 LINE",
"388 0 LINE",
"480 0 LINE",
"570 464 LINE",
"724 464 LINE",
"740 544 LINE",
"585 544 LINE",
"588 556 LINE",
"604 640 OFFCURVE",
"644 680 OFFCURVE",
"716 680 CURVE SMOOTH",
"748 680 OFFCURVE",
"764 676 OFFCURVE",
"784 668 CURVE",
"792 668 LINE",
"808 748 LINE",
"790 756 OFFCURVE",
"756 760 OFFCURVE",
"724 760 CURVE SMOOTH",
"576 760 OFFCURVE",
"517 664 OFFCURVE",
"496 556 CURVE",
"493 544 LINE",
"412 544 LINE"
);
}
);
width = 672;
},
{
hints = (
{
horizontal = 1;
place = "{0, 21}";
target = up;
type = BottomGhost;
},
{
horizontal = 1;
place = "{388, 160}";
type = Stem;
},
{
horizontal = 1;
place = "{624, 152}";
type = Stem;
},
{
place = "{32, 1002}";
type = Stem;
}
);
layerId = "FA792B6B-505C-4DC3-9C40-F9BEDA01661E";
paths = (
{
closed = 1;
nodes = (
"32 388 LINE",
"126 388 LINE",
"52 0 LINE",
"264 0 LINE",
"339 388 LINE",
"456 388 LINE",
"488 548 LINE",
"370 548 LINE",
"384 600 OFFCURVE",
"412 624 OFFCURVE",
"468 624 CURVE SMOOTH",
"496 624 OFFCURVE",
"517 618 OFFCURVE",
"528 612 CURVE",
"540 612 LINE",
"570 764 LINE",
"551 770 OFFCURVE",
"508 776 OFFCURVE",
"468 776 CURVE SMOOTH",
"302 776 OFFCURVE",
"194 721 OFFCURVE",
"158 548 CURVE",
"64 548 LINE"
);
},
{
closed = 1;
nodes = (
"496 388 LINE",
"590 388 LINE",
"516 0 LINE",
"728 0 LINE",
"803 388 LINE",
"920 388 LINE",
"952 548 LINE",
"834 548 LINE",
"848 600 OFFCURVE",
"876 624 OFFCURVE",
"932 624 CURVE SMOOTH",
"960 624 OFFCURVE",
"981 618 OFFCURVE",
"992 612 CURVE",
"1004 612 LINE",
"1034 764 LINE",
"1015 770 OFFCURVE",
"972 776 OFFCURVE",
"932 776 CURVE SMOOTH",
"766 776 OFFCURVE",
"658 721 OFFCURVE",
"622 548 CURVE",
"528 548 LINE"
);
}
);
width = 928;
}
);
leftKerningGroup = f;
note = ff;
rightKerningGroup = f;
unicode = FB00;
},
{
glyphname = f_h;
lastChange = "2018-11-26 15:58:55 +0000";
layers = (
{
hints = (
{
horizontal = 1;
place = "{0, 21}";
target = up;
type = BottomGhost;
},
{
horizontal = 1;
place = "{464, 80}";
type = Stem;
},
{
horizontal = 1;
place = "{680, 80}";
type = Stem;
},
{
place = "{806, 94}";
type = Stem;
},
{
horizontal = 1;
place = "{476, 80}";
type = Stem;
}
);
layerId = "5B01CDE3-ACDA-4D2B-9E53-A993574CFD15";
paths = (
{
closed = 1;
nodes = (
"740 0 LINE",
"832 0 LINE",
"892 312 LINE SMOOTH",
"897 339 OFFCURVE",
"900 364 OFFCURVE",
"900 384 CURVE SMOOTH",
"900 512 OFFCURVE",
"812 556 OFFCURVE",
"698 556 CURVE SMOOTH",
"660 556 OFFCURVE",
"617 548 OFFCURVE",
"576 536 CURVE",
"620 760 LINE",
"522 760 LINE",
"518 752 LINE",
"519 716 OFFCURVE",
"502 628 OFFCURVE",
"494 588 CURVE SMOOTH",
"380 0 LINE",
"472 0 LINE",
"560 452 LINE",
"597 466 OFFCURVE",
"638 476 OFFCURVE",
"678 476 CURVE SMOOTH",
"756 476 OFFCURVE",
"806 452 OFFCURVE",
"806 370 CURVE SMOOTH",
"806 353 OFFCURVE",
"804 334 OFFCURVE",
"800 312 CURVE SMOOTH"
);
},
{
closed = 1;
nodes = (
"60 464 LINE",
"142 464 LINE",
"52 0 LINE",
"144 0 LINE",
"234 464 LINE",
"388 464 LINE",
"404 544 LINE",
"249 544 LINE",
"252 556 LINE",
"268 640 OFFCURVE",
"308 680 OFFCURVE",
"380 680 CURVE SMOOTH",
"412 680 OFFCURVE",
"428 676 OFFCURVE",
"448 668 CURVE",
"456 668 LINE",
"472 748 LINE",
"454 756 OFFCURVE",
"420 760 OFFCURVE",
"388 760 CURVE SMOOTH",
"240 760 OFFCURVE",
"181 664 OFFCURVE",
"160 556 CURVE",
"157 544 LINE",
"76 544 LINE"
);
}
);
width = 976;
},
{
hints = (
{
horizontal = 1;
place = "{0, 21}";
target = up;
type = BottomGhost;
},
{
horizontal = 1;
place = "{388, 160}";
type = Stem;
},
{
horizontal = 1;
place = "{748, 12}";
type = Stem;
},
{
place = "{32, 1076}";
type = Stem;
},
{
horizontal = 1;
place = "{400, 164}";
type = Stem;
},
{
place = "{892, 216}";
type = Stem;
},
{
horizontal = 1;
place = "{624, 152}";
type = Stem;
}
);
layerId = "FA792B6B-505C-4DC3-9C40-F9BEDA01661E";
paths = (
{
closed = 1;
nodes = (
"832 0 LINE",
"1044 0 LINE",
"1100 292 LINE SMOOTH",
"1106 322 OFFCURVE",
"1108 348 OFFCURVE",
"1108 372 CURVE SMOOTH",
"1108 472 OFFCURVE",
"1044 564 OFFCURVE",
"884 564 CURVE SMOOTH",
"854 564 OFFCURVE",
"828 561 OFFCURVE",
"804 556 CURVE",
"844 760 LINE",
"621 760 LINE",
"613 748 LINE",
"615 696 OFFCURVE",
"608 644 OFFCURVE",
"599 596 CURVE SMOOTH",
"484 0 LINE",
"696 0 LINE",
"773 396 LINE",
"788 398 OFFCURVE",
"804 400 OFFCURVE",
"816 400 CURVE SMOOTH",
"876 400 OFFCURVE",
"892 368 OFFCURVE",
"892 332 CURVE SMOOTH",
"892 323 OFFCURVE",
"891 308 OFFCURVE",
"888 292 CURVE SMOOTH"
);
},
{
closed = 1;
nodes = (
"32 388 LINE",
"126 388 LINE",
"52 0 LINE",
"264 0 LINE",
"339 388 LINE",
"456 388 LINE",
"488 548 LINE",
"370 548 LINE",
"384 600 OFFCURVE",
"412 624 OFFCURVE",
"468 624 CURVE SMOOTH",
"496 624 OFFCURVE",
"517 618 OFFCURVE",
"528 612 CURVE",
"540 612 LINE",
"570 764 LINE",
"551 770 OFFCURVE",
"508 776 OFFCURVE",
"468 776 CURVE SMOOTH",
"302 776 OFFCURVE",
"194 721 OFFCURVE",
"158 548 CURVE",
"64 548 LINE"
);
}
);
width = 1156;
}
);
leftKerningGroup = f;
note = f_h;
rightKerningGroup = a;
},
{
glyphname = fi;
lastChange = "2018-11-26 15:58:55 +0000";
layers = (
{
hints = (
{
horizontal = 1;
place = "{0, 21}";
target = up;
type = BottomGhost;
},
{
horizontal = 1;
place = "{464, 80}";
type = Stem;
},
{
horizontal = 1;
place = "{680, 80}";
type = Stem;
},
{
place = "{498, 124}";
type = Stem;
}
);
layerId = "5B01CDE3-ACDA-4D2B-9E53-A993574CFD15";
paths = (
{
closed = 1;
nodes = (
"60 464 LINE",
"142 464 LINE",
"52 0 LINE",
"144 0 LINE",
"234 464 LINE",
"388 464 LINE",
"404 544 LINE",
"249 544 LINE",
"252 556 LINE",
"268 640 OFFCURVE",
"308 680 OFFCURVE",
"380 680 CURVE SMOOTH",
"412 680 OFFCURVE",
"428 676 OFFCURVE",
"448 668 CURVE",
"456 668 LINE",
"472 748 LINE",
"454 756 OFFCURVE",
"420 760 OFFCURVE",
"388 760 CURVE SMOOTH",
"240 760 OFFCURVE",
"181 664 OFFCURVE",
"160 556 CURVE",
"157 544 LINE",
"76 544 LINE"
);
},
{
closed = 1;
nodes = (
"380 0 LINE",
"472 0 LINE",
"578 544 LINE",
"480 544 LINE",
"476 536 LINE",
"477 500 OFFCURVE",
"460 412 OFFCURVE",
"452 372 CURVE SMOOTH"
);
},
{
closed = 1;
nodes = (
"584 640 OFFCURVE",
"622 668 OFFCURVE",
"622 712 CURVE SMOOTH",
"622 742 OFFCURVE",
"602 760 OFFCURVE",
"572 760 CURVE SMOOTH",
"536 760 OFFCURVE",
"498 732 OFFCURVE",
"498 688 CURVE SMOOTH",
"498 658 OFFCURVE",
"518 640 OFFCURVE",
"548 640 CURVE SMOOTH"
);
}
);
width = 620;
},
{
hints = (
{
horizontal = 1;
place = "{0, 21}";
target = up;
type = BottomGhost;
},
{
horizontal = 1;
place = "{388, 160}";
type = Stem;
},
{
horizontal = 1;
place = "{624, 152}";
type = Stem;
},
{
place = "{616, 220}";
type = Stem;
},
{
horizontal = 1;
place = "{536, 12}";
type = Stem;
}
);
layerId = "FA792B6B-505C-4DC3-9C40-F9BEDA01661E";
paths = (
{
closed = 1;
nodes = (
"32 388 LINE",
"126 388 LINE",
"52 0 LINE",
"264 0 LINE",
"339 388 LINE",
"456 388 LINE",
"488 548 LINE",
"370 548 LINE",
"384 600 OFFCURVE",
"412 624 OFFCURVE",
"468 624 CURVE SMOOTH",
"496 624 OFFCURVE",
"517 618 OFFCURVE",
"528 612 CURVE",
"540 612 LINE",
"570 764 LINE",
"551 770 OFFCURVE",
"508 776 OFFCURVE",
"468 776 CURVE SMOOTH",
"302 776 OFFCURVE",
"194 721 OFFCURVE",
"158 548 CURVE",
"64 548 LINE"
);
},
{
closed = 1;
nodes = (
"480 0 LINE",
"692 0 LINE",
"798 548 LINE",
"576 548 LINE",
"568 536 LINE",
"570 484 OFFCURVE",
"563 432 OFFCURVE",
"554 384 CURVE SMOOTH"
);
},
{
closed = 1;
nodes = (
"780 620 OFFCURVE",
"836 668 OFFCURVE",
"836 740 CURVE SMOOTH",
"836 788 OFFCURVE",
"804 828 OFFCURVE",
"740 828 CURVE SMOOTH",
"672 828 OFFCURVE",
"616 780 OFFCURVE",
"616 708 CURVE SMOOTH",
"616 660 OFFCURVE",
"648 620 OFFCURVE",
"712 620 CURVE SMOOTH"
);
}
);
width = 808;
}
);
leftKerningGroup = f;
note = fi;
rightKerningGroup = d;
unicode = FB01;
},
{
glyphname = f_j;
lastChange = "2018-11-26 15:58:55 +0000";
layers = (
{
hints = (
{
horizontal = 1;
place = "{-240, 80}";
type = Stem;
},
{
horizontal = 1;
place = "{0, 21}";
target = up;
type = BottomGhost;
},
{
horizontal = 1;
place = "{464, 80}";
type = Stem;
},
{
horizontal = 1;
place = "{680, 80}";
type = Stem;
},
{
place = "{500, 124}";
type = Stem;
}
);
layerId = "5B01CDE3-ACDA-4D2B-9E53-A993574CFD15";
paths = (
{
closed = 1;
nodes = (
"60 464 LINE",
"142 464 LINE",
"52 0 LINE",
"144 0 LINE",
"234 464 LINE",
"388 464 LINE",
"404 544 LINE",
"249 544 LINE",
"252 556 LINE",
"268 640 OFFCURVE",
"308 680 OFFCURVE",
"380 680 CURVE SMOOTH",
"412 680 OFFCURVE",
"428 676 OFFCURVE",
"448 668 CURVE",
"456 668 LINE",
"472 748 LINE",
"454 756 OFFCURVE",
"420 760 OFFCURVE",
"388 760 CURVE SMOOTH",
"240 760 OFFCURVE",
"181 664 OFFCURVE",
"160 556 CURVE",
"157 544 LINE",
"76 544 LINE"
);
},
{
closed = 1;
nodes = (
"372 -52 LINE SMOOTH",
"358 -124 OFFCURVE",
"324 -160 OFFCURVE",
"252 -160 CURVE SMOOTH",
"228 -160 OFFCURVE",
"206 -156 OFFCURVE",
"184 -148 CURVE",
"176 -148 LINE",
"160 -228 LINE",
"174 -234 OFFCURVE",
"208 -240 OFFCURVE",
"244 -240 CURVE SMOOTH",
"388 -240 OFFCURVE",
"445 -152 OFFCURVE",
"464 -52 CURVE SMOOTH",
"580 544 LINE",
"482 544 LINE",
"478 536 LINE",
"479 500 OFFCURVE",
"462 412 OFFCURVE",
"454 372 CURVE SMOOTH"
);
},
{
closed = 1;
nodes = (
"586 640 OFFCURVE",
"624 668 OFFCURVE",
"624 712 CURVE SMOOTH",
"624 742 OFFCURVE",
"604 760 OFFCURVE",
"574 760 CURVE SMOOTH",
"538 760 OFFCURVE",
"500 732 OFFCURVE",
"500 688 CURVE SMOOTH",
"500 658 OFFCURVE",
"520 640 OFFCURVE",
"550 640 CURVE SMOOTH"
);
}
);
width = 620;
},
{
hints = (
{
horizontal = 1;
place = "{-240, 164}";
type = Stem;
},
{
horizontal = 1;
place = "{0, 21}";
target = up;
type = BottomGhost;
},
{
horizontal = 1;
place = "{388, 160}";
type = Stem;
},
{
horizontal = 1;
place = "{624, 152}";
type = Stem;
},
{
place = "{620, 220}";
type = Stem;
},
{
horizontal = 1;
place = "{536, 12}";
type = Stem;
}
);
layerId = "FA792B6B-505C-4DC3-9C40-F9BEDA01661E";
paths = (
{
closed = 1;
nodes = (
"32 388 LINE",
"126 388 LINE",
"52 0 LINE",
"264 0 LINE",
"339 388 LINE",
"456 388 LINE",
"488 548 LINE",
"370 548 LINE",
"384 600 OFFCURVE",
"412 624 OFFCURVE",
"468 624 CURVE SMOOTH",
"496 624 OFFCURVE",
"517 618 OFFCURVE",
"528 612 CURVE",
"540 612 LINE",
"570 764 LINE",
"551 770 OFFCURVE",
"508 776 OFFCURVE",
"468 776 CURVE SMOOTH",
"302 776 OFFCURVE",
"194 721 OFFCURVE",
"158 548 CURVE",
"64 548 LINE"
);
},
{
closed = 1;
nodes = (
"484 0 LINE SMOOTH",
"474 -54 OFFCURVE",
"440 -76 OFFCURVE",
"384 -76 CURVE SMOOTH",
"356 -76 OFFCURVE",
"344 -72 OFFCURVE",
"324 -64 CURVE",
"312 -64 LINE",
"280 -228 LINE",
"306 -236 OFFCURVE",
"340 -240 OFFCURVE",
"384 -240 CURVE SMOOTH",
"542 -240 OFFCURVE",
"663 -171 OFFCURVE",
"698 12 CURVE SMOOTH",
"802 548 LINE",
"580 548 LINE",
"572 536 LINE",
"574 484 OFFCURVE",
"567 432 OFFCURVE",
"558 384 CURVE SMOOTH"
);
},
{
closed = 1;
nodes = (
"784 620 OFFCURVE",
"840 668 OFFCURVE",
"840 740 CURVE SMOOTH",
"840 788 OFFCURVE",
"808 828 OFFCURVE",
"744 828 CURVE SMOOTH",
"676 828 OFFCURVE",
"620 780 OFFCURVE",
"620 708 CURVE SMOOTH",
"620 660 OFFCURVE",
"652 620 OFFCURVE",
"716 620 CURVE SMOOTH"
);
}
);
width = 812;
}
);
leftKerningGroup = f;
note = f_j;
rightKerningGroup = d;
},
{
glyphname = f_k;
lastChange = "2018-11-26 15:58:55 +0000";
layers = (
{
hints = (
{
horizontal = 1;
place = "{0, 21}";
target = up;
type = BottomGhost;
},
{
horizontal = 1;
place = "{464, 80}";
type = Stem;
},
{
horizontal = 1;
place = "{680, 80}";
type = Stem;
},
{
place = "{52, 868}";
type = Stem;
},
{
horizontal = 1;
place = "{532, 12}";
type = Stem;
}
);
layerId = "5B01CDE3-ACDA-4D2B-9E53-A993574CFD15";
paths = (
{
closed = 1;
nodes = (
"380 0 LINE",
"472 0 LINE",
"524 266 LINE",
"706 0 LINE",
"814 0 LINE",
"814 12 LINE",
"792 36 OFFCURVE",
"765 79 OFFCURVE",
"744 108 CURVE SMOOTH",
"620 280 LINE",
"828 460 LINE SMOOTH",
"862 488 OFFCURVE",
"897 516 OFFCURVE",
"920 532 CURVE",
"920 544 LINE",
"810 544 LINE",
"530 300 LINE",
"620 760 LINE",
"522 760 LINE",
"518 752 LINE",
"519 716 OFFCURVE",
"502 628 OFFCURVE",
"494 588 CURVE SMOOTH"
);
},
{
closed = 1;
nodes = (
"60 464 LINE",
"142 464 LINE",
"52 0 LINE",
"144 0 LINE",
"234 464 LINE",
"388 464 LINE",
"404 544 LINE",
"249 544 LINE",
"252 556 LINE",
"268 640 OFFCURVE",
"308 680 OFFCURVE",
"380 680 CURVE SMOOTH",
"412 680 OFFCURVE",
"428 676 OFFCURVE",
"448 668 CURVE",
"456 668 LINE",
"472 748 LINE",
"454 756 OFFCURVE",
"420 760 OFFCURVE",
"388 760 CURVE SMOOTH",
"240 760 OFFCURVE",
"181 664 OFFCURVE",
"160 556 CURVE",
"157 544 LINE",
"76 544 LINE"
);
}
);
width = 876;
},
{
hints = (
{
horizontal = 1;
place = "{0, 21}";
target = up;
type = BottomGhost;
},
{
horizontal = 1;
place = "{536, 12}";
type = Stem;
},
{
horizontal = 1;
place = "{748, 12}";
type = Stem;
},
{
place = "{32, 1164}";
type = Stem;
},
{
horizontal = 1;
place = "{388, 160}";
type = Stem;
},
{
horizontal = 1;
place = "{624, 152}";
type = Stem;
}
);
layerId = "FA792B6B-505C-4DC3-9C40-F9BEDA01661E";
paths = (
{
closed = 1;
nodes = (
"480 0 LINE",
"692 0 LINE",
"736 229 LINE",
"848 0 LINE",
"1076 0 LINE",
"1076 12 LINE",
"1056 40 OFFCURVE",
"1042 63 OFFCURVE",
"1024 96 CURVE SMOOTH",
"924 284 LINE",
"1076 432 LINE SMOOTH",
"1108 463 OFFCURVE",
"1168 516 OFFCURVE",
"1196 536 CURVE",
"1196 548 LINE",
"964 548 LINE",
"758 338 LINE",
"840 760 LINE",
"617 760 LINE",
"609 748 LINE",
"611 696 OFFCURVE",
"604 644 OFFCURVE",
"595 596 CURVE SMOOTH"
);
},
{
closed = 1;
nodes = (
"32 388 LINE",
"126 388 LINE",
"52 0 LINE",
"264 0 LINE",
"339 388 LINE",
"456 388 LINE",
"488 548 LINE",
"370 548 LINE",
"384 600 OFFCURVE",
"412 624 OFFCURVE",
"468 624 CURVE SMOOTH",
"496 624 OFFCURVE",
"517 618 OFFCURVE",
"528 612 CURVE",
"540 612 LINE",
"570 764 LINE",
"551 770 OFFCURVE",
"508 776 OFFCURVE",
"468 776 CURVE SMOOTH",
"302 776 OFFCURVE",
"194 721 OFFCURVE",
"158 548 CURVE",
"64 548 LINE"
);
}
);
width = 1144;
}
);
leftKerningGroup = f;
note = f_k;
rightKerningGroup = k;
},
{
glyphname = fl;
lastChange = "2018-11-26 15:58:55 +0000";
layers = (
{
hints = (
{
horizontal = 1;
place = "{0, 21}";
target = up;
type = BottomGhost;
},
{
horizontal = 1;
place = "{464, 80}";
type = Stem;
},
{
horizontal = 1;
place = "{680, 80}";
type = Stem;
},
{
place = "{52, 568}";
type = Stem;
}
);
layerId = "5B01CDE3-ACDA-4D2B-9E53-A993574CFD15";
paths = (
{
closed = 1;
nodes = (
"60 464 LINE",
"142 464 LINE",
"52 0 LINE",
"144 0 LINE",
"234 464 LINE",
"388 464 LINE",
"404 544 LINE",
"249 544 LINE",
"252 556 LINE",
"268 640 OFFCURVE",
"308 680 OFFCURVE",
"380 680 CURVE SMOOTH",
"412 680 OFFCURVE",
"428 676 OFFCURVE",
"448 668 CURVE",
"456 668 LINE",
"472 748 LINE",
"454 756 OFFCURVE",
"420 760 OFFCURVE",
"388 760 CURVE SMOOTH",
"240 760 OFFCURVE",
"181 664 OFFCURVE",
"160 556 CURVE",
"157 544 LINE",
"76 544 LINE"
);
},
{
closed = 1;
nodes = (
"380 0 LINE",
"472 0 LINE",
"620 760 LINE",
"522 760 LINE",
"518 752 LINE",
"519 716 OFFCURVE",
"502 628 OFFCURVE",
"494 588 CURVE SMOOTH"
);
}
);
width = 620;
},
{
hints = (
{
horizontal = 1;
place = "{0, 21}";
target = up;
type = BottomGhost;
},
{
horizontal = 1;
place = "{388, 160}";
type = Stem;
},
{
horizontal = 1;
place = "{748, 12}";
type = Stem;
},
{
place = "{32, 812}";
type = Stem;
},
{
horizontal = 1;
place = "{624, 152}";
type = Stem;
}
);
layerId = "FA792B6B-505C-4DC3-9C40-F9BEDA01661E";
paths = (
{
closed = 1;
nodes = (
"32 388 LINE",
"126 388 LINE",
"52 0 LINE",
"264 0 LINE",
"339 388 LINE",
"456 388 LINE",
"488 548 LINE",
"370 548 LINE",
"384 600 OFFCURVE",
"412 624 OFFCURVE",
"468 624 CURVE SMOOTH",
"496 624 OFFCURVE",
"517 618 OFFCURVE",
"528 612 CURVE",
"540 612 LINE",
"570 764 LINE",
"551 770 OFFCURVE",
"508 776 OFFCURVE",
"468 776 CURVE SMOOTH",
"302 776 OFFCURVE",
"194 721 OFFCURVE",
"158 548 CURVE",
"64 548 LINE"
);
},
{
closed = 1;
nodes = (
"484 0 LINE",
"696 0 LINE",
"844 760 LINE",
"621 760 LINE",
"613 748 LINE",
"615 696 OFFCURVE",
"608 644 OFFCURVE",
"599 596 CURVE SMOOTH"
);
}
);
width = 812;
}
);
leftKerningGroup = f;
note = fl;
rightKerningGroup = d;
unicode = FB02;
},
{
glyphname = f_t;
lastChange = "2018-11-26 15:58:55 +0000";
layers = (
{
hints = (
{
horizontal = 1;
place = "{-8, 80}";
type = Stem;
},
{
horizontal = 1;
place = "{464, 80}";
type = Stem;
},
{
horizontal = 1;
place = "{680, 80}";
type = Stem;
},
{
place = "{424, 92}";
type = Stem;
},
{
horizontal = 1;
place = "{0, 21}";
target = up;
type = BottomGhost;
}
);
layerId = "5B01CDE3-ACDA-4D2B-9E53-A993574CFD15";
paths = (
{
closed = 1;
nodes = (
"60 464 LINE",
"142 464 LINE",
"52 0 LINE",
"144 0 LINE",
"234 464 LINE",
"388 464 LINE",
"404 544 LINE",
"249 544 LINE",
"252 556 LINE",
"268 640 OFFCURVE",
"308 680 OFFCURVE",
"380 680 CURVE SMOOTH",
"412 680 OFFCURVE",
"428 676 OFFCURVE",
"448 668 CURVE",
"456 668 LINE",
"472 748 LINE",
"454 756 OFFCURVE",
"420 760 OFFCURVE",
"388 760 CURVE SMOOTH",
"240 760 OFFCURVE",
"181 664 OFFCURVE",
"160 556 CURVE",
"157 544 LINE",
"76 544 LINE"
);
},
{
closed = 1;
nodes = (
"400 464 LINE",
"483 464 LINE",
"428 180 LINE SMOOTH",
"425 165 OFFCURVE",
"424 148 OFFCURVE",
"424 136 CURVE SMOOTH",
"424 44 OFFCURVE",
"483 -8 OFFCURVE",
"584 -8 CURVE SMOOTH",
"620 -8 OFFCURVE",
"654 -2 OFFCURVE",
"676 8 CURVE",
"688 88 LINE",
"680 88 LINE",
"658 78 OFFCURVE",
"632 72 OFFCURVE",
"604 72 CURVE SMOOTH",
"540 72 OFFCURVE",
"516 100 OFFCURVE",
"516 144 CURVE SMOOTH",
"516 152 OFFCURVE",
"517 167 OFFCURVE",
"520 180 CURVE",
"575 464 LINE",
"732 464 LINE",
"748 544 LINE",
"591 544 LINE",
"620 692 LINE",
"528 692 LINE",
"499 544 LINE",
"416 544 LINE"
);
}
);
width = 740;
},
{
hints = (
{
horizontal = 1;
place = "{0, 21}";
target = up;
type = BottomGhost;
},
{
horizontal = 1;
place = "{388, 160}";
type = Stem;
},
{
horizontal = 1;
place = "{624, 152}";
type = Stem;
},
{
place = "{32, 940}";
type = Stem;
},
{
horizontal = 1;
place = "{-8, 21}";
target = up;
type = BottomGhost;
},
{
place = "{554, 215}";
type = Stem;
},
{
horizontal = 1;
place = "{-8, 164}";
type = Stem;
}
);
layerId = "FA792B6B-505C-4DC3-9C40-F9BEDA01661E";
paths = (
{
closed = 1;
nodes = (
"32 388 LINE",
"126 388 LINE",
"52 0 LINE",
"264 0 LINE",
"339 388 LINE",
"456 388 LINE",
"488 548 LINE",
"370 548 LINE",
"384 600 OFFCURVE",
"412 624 OFFCURVE",
"468 624 CURVE SMOOTH",
"496 624 OFFCURVE",
"517 618 OFFCURVE",
"528 612 CURVE",
"540 612 LINE",
"570 764 LINE",
"551 770 OFFCURVE",
"508 776 OFFCURVE",
"468 776 CURVE SMOOTH",
"302 776 OFFCURVE",
"194 721 OFFCURVE",
"158 548 CURVE",
"64 548 LINE"
);
},
{
closed = 1;
nodes = (
"496 388 LINE",
"589 388 LINE",
"562 248 LINE SMOOTH",
"557 222 OFFCURVE",
"554 198 OFFCURVE",
"554 176 CURVE SMOOTH",
"553 42 OFFCURVE",
"642 -8 OFFCURVE",
"776 -8 CURVE SMOOTH",
"824 -8 OFFCURVE",
"856 -2 OFFCURVE",
"892 8 CURVE",
"924 172 LINE",
"912 172 LINE",
"892 162 OFFCURVE",
"868 156 OFFCURVE",
"844 156 CURVE SMOOTH",
"793 156 OFFCURVE",
"769 180 OFFCURVE",
"769 216 CURVE SMOOTH",
"769 223 OFFCURVE",
"770 235 OFFCURVE",
"772 244 CURVE SMOOTH",
"799 388 LINE",
"940 388 LINE",
"972 548 LINE",
"830 548 LINE",
"856 680 LINE",
"646 680 LINE",
"620 548 LINE",
"528 548 LINE"
);
}
);
width = 964;
}
);
leftKerningGroup = f;
note = f_t;
rightKerningGroup = t;
},
{
glyphname = t_f;
lastChange = "2018-11-26 15:58:55 +0000";
layers = (
{
hints = (
{
horizontal = 1;
place = "{-8, 80}";
type = Stem;
},
{
horizontal = 1;
place = "{464, 80}";
type = Stem;
},
{
horizontal = 1;
place = "{680, 80}";
type = Stem;
},
{
place = "{88, 92}";
type = Stem;
},
{
horizontal = 1;
place = "{0, 21}";
target = up;
type = BottomGhost;
}
);
layerId = "5B01CDE3-ACDA-4D2B-9E53-A993574CFD15";
paths = (
{
closed = 1;
nodes = (
"464 464 LINE",
"546 464 LINE",
"456 0 LINE",
"548 0 LINE",
"638 464 LINE",
"792 464 LINE",
"808 544 LINE",
"653 544 LINE",
"656 556 LINE",
"672 640 OFFCURVE",
"712 680 OFFCURVE",
"784 680 CURVE SMOOTH",
"816 680 OFFCURVE",
"832 676 OFFCURVE",
"852 668 CURVE",
"860 668 LINE",
"876 748 LINE",
"858 756 OFFCURVE",
"824 760 OFFCURVE",
"792 760 CURVE SMOOTH",
"644 760 OFFCURVE",
"585 664 OFFCURVE",
"564 556 CURVE",
"561 544 LINE",
"480 544 LINE"
);
},
{
closed = 1;
nodes = (
"64 464 LINE",
"147 464 LINE",
"92 180 LINE SMOOTH",
"89 165 OFFCURVE",
"88 148 OFFCURVE",
"88 136 CURVE SMOOTH",
"88 44 OFFCURVE",
"147 -8 OFFCURVE",
"248 -8 CURVE SMOOTH",
"284 -8 OFFCURVE",
"318 -2 OFFCURVE",
"340 8 CURVE",
"352 88 LINE",
"344 88 LINE",
"322 78 OFFCURVE",
"296 72 OFFCURVE",
"268 72 CURVE SMOOTH",
"204 72 OFFCURVE",
"180 100 OFFCURVE",
"180 144 CURVE SMOOTH",
"180 152 OFFCURVE",
"181 167 OFFCURVE",
"184 180 CURVE",
"239 464 LINE",
"396 464 LINE",
"412 544 LINE",
"255 544 LINE",
"284 692 LINE",
"192 692 LINE",
"163 544 LINE",
"80 544 LINE"
);
}
);
width = 740;
},
{
hints = (
{
horizontal = 1;
place = "{0, 21}";
target = up;
type = BottomGhost;
},
{
horizontal = 1;
place = "{388, 160}";
type = Stem;
},
{
horizontal = 1;
place = "{624, 152}";
type = Stem;
},
{
place = "{32, 1038}";
type = Stem;
},
{
horizontal = 1;
place = "{-8, 21}";
target = up;
type = BottomGhost;
},
{
place = "{90, 215}";
type = Stem;
},
{
horizontal = 1;
place = "{-8, 164}";
type = Stem;
}
);
layerId = "FA792B6B-505C-4DC3-9C40-F9BEDA01661E";
paths = (
{
closed = 1;
nodes = (
"532 388 LINE",
"626 388 LINE",
"552 0 LINE",
"764 0 LINE",
"839 388 LINE",
"956 388 LINE",
"988 548 LINE",
"870 548 LINE",
"884 600 OFFCURVE",
"912 624 OFFCURVE",
"968 624 CURVE SMOOTH",
"996 624 OFFCURVE",
"1017 618 OFFCURVE",
"1028 612 CURVE",
"1040 612 LINE",
"1070 764 LINE",
"1051 770 OFFCURVE",
"1008 776 OFFCURVE",
"968 776 CURVE SMOOTH",
"802 776 OFFCURVE",
"694 721 OFFCURVE",
"658 548 CURVE",
"564 548 LINE"
);
},
{
closed = 1;
nodes = (
"32 388 LINE",
"125 388 LINE",
"98 248 LINE SMOOTH",
"93 222 OFFCURVE",
"90 198 OFFCURVE",
"90 176 CURVE SMOOTH",
"89 42 OFFCURVE",
"178 -8 OFFCURVE",
"312 -8 CURVE SMOOTH",
"360 -8 OFFCURVE",
"392 -2 OFFCURVE",
"428 8 CURVE",
"460 172 LINE",
"448 172 LINE",
"428 162 OFFCURVE",
"404 156 OFFCURVE",
"380 156 CURVE SMOOTH",
"329 156 OFFCURVE",
"305 180 OFFCURVE",
"305 216 CURVE SMOOTH",
"305 223 OFFCURVE",
"306 235 OFFCURVE",
"308 244 CURVE SMOOTH",
"335 388 LINE",
"476 388 LINE",
"508 548 LINE",
"366 548 LINE",
"392 680 LINE",
"182 680 LINE",
"156 548 LINE",
"64 548 LINE"
);
}
);
width = 964;
}
);
leftKerningGroup = t;
note = t_f;
rightKerningGroup = f;
},
{
glyphname = t_t;
lastChange = "2018-11-26 15:58:55 +0000";
layers = (
{
hints = (
{
horizontal = 1;
place = "{-8, 80}";
type = Stem;
},
{
horizontal = 1;
place = "{464, 80}";
type = Stem;
},
{
place = "{88, 92}";
type = Stem;
},
{
place = "{492, 92}";
type = Stem;
}
);
layerId = "5B01CDE3-ACDA-4D2B-9E53-A993574CFD15";
paths = (
{
closed = 1;
nodes = (
"64 464 LINE",
"147 464 LINE",
"92 180 LINE SMOOTH",
"89 165 OFFCURVE",
"88 148 OFFCURVE",
"88 136 CURVE SMOOTH",
"88 44 OFFCURVE",
"147 -8 OFFCURVE",
"248 -8 CURVE SMOOTH",
"284 -8 OFFCURVE",
"318 -2 OFFCURVE",
"340 8 CURVE",
"352 88 LINE",
"344 88 LINE",
"322 78 OFFCURVE",
"296 72 OFFCURVE",
"268 72 CURVE SMOOTH",
"204 72 OFFCURVE",
"180 100 OFFCURVE",
"180 144 CURVE SMOOTH",
"180 152 OFFCURVE",
"181 167 OFFCURVE",
"184 180 CURVE",
"239 464 LINE",
"396 464 LINE",
"412 544 LINE",
"255 544 LINE",
"284 692 LINE",
"192 692 LINE",
"163 544 LINE",
"80 544 LINE"
);
},
{
closed = 1;
nodes = (
"468 464 LINE",
"551 464 LINE",
"496 180 LINE SMOOTH",
"493 165 OFFCURVE",
"492 148 OFFCURVE",
"492 136 CURVE SMOOTH",
"492 44 OFFCURVE",
"551 -8 OFFCURVE",
"652 -8 CURVE SMOOTH",
"688 -8 OFFCURVE",
"722 -2 OFFCURVE",
"744 8 CURVE",
"756 88 LINE",
"748 88 LINE",
"726 78 OFFCURVE",
"700 72 OFFCURVE",
"672 72 CURVE SMOOTH",
"608 72 OFFCURVE",
"584 100 OFFCURVE",
"584 144 CURVE SMOOTH",
"584 152 OFFCURVE",
"585 167 OFFCURVE",
"588 180 CURVE",
"643 464 LINE",
"800 464 LINE",
"816 544 LINE",
"659 544 LINE",
"688 692 LINE",
"596 692 LINE",
"567 544 LINE",
"484 544 LINE"
);
}
);
width = 808;
},
{
hints = (
{
horizontal = 1;
place = "{-8, 164}";
type = Stem;
},
{
horizontal = 1;
place = "{388, 160}";
type = Stem;
},
{
place = "{90, 215}";
type = Stem;
},
{
place = "{590, 215}";
type = Stem;
}
);
layerId = "FA792B6B-505C-4DC3-9C40-F9BEDA01661E";
paths = (
{
closed = 1;
nodes = (
"32 388 LINE",
"125 388 LINE",
"98 248 LINE SMOOTH",
"93 222 OFFCURVE",
"90 198 OFFCURVE",
"90 176 CURVE SMOOTH",
"89 42 OFFCURVE",
"178 -8 OFFCURVE",
"312 -8 CURVE SMOOTH",
"360 -8 OFFCURVE",
"392 -2 OFFCURVE",
"428 8 CURVE",
"460 172 LINE",
"448 172 LINE",
"428 162 OFFCURVE",
"404 156 OFFCURVE",
"380 156 CURVE SMOOTH",
"329 156 OFFCURVE",
"305 180 OFFCURVE",
"305 216 CURVE SMOOTH",
"305 223 OFFCURVE",
"306 235 OFFCURVE",
"308 244 CURVE SMOOTH",
"335 388 LINE",
"476 388 LINE",
"508 548 LINE",
"366 548 LINE",
"392 680 LINE",
"182 680 LINE",
"156 548 LINE",
"64 548 LINE"
);
},
{
closed = 1;
nodes = (
"532 388 LINE",
"625 388 LINE",
"598 248 LINE SMOOTH",
"593 222 OFFCURVE",
"590 198 OFFCURVE",
"590 176 CURVE SMOOTH",
"589 42 OFFCURVE",
"678 -8 OFFCURVE",
"812 -8 CURVE SMOOTH",
"860 -8 OFFCURVE",
"892 -2 OFFCURVE",
"928 8 CURVE",
"960 172 LINE",
"948 172 LINE",
"928 162 OFFCURVE",
"904 156 OFFCURVE",
"880 156 CURVE SMOOTH",
"829 156 OFFCURVE",
"805 180 OFFCURVE",
"805 216 CURVE SMOOTH",
"805 223 OFFCURVE",
"806 235 OFFCURVE",
"808 244 CURVE SMOOTH",
"835 388 LINE",
"976 388 LINE",
"1008 548 LINE",
"866 548 LINE",
"892 680 LINE",
"682 680 LINE",
"656 548 LINE",
"564 548 LINE"
);
}
);
width = 1000;
}
);
leftKerningGroup = t;
note = t_t;
rightKerningGroup = t;
},
{
glyphname = f_f_b;
lastChange = "2018-11-26 15:58:55 +0000";
layers = (
{
hints = (
{
horizontal = 1;
place = "{-12, 80}";
type = Stem;
},
{
horizontal = 1;
place = "{464, 80}";
type = Stem;
},
{
horizontal = 1;
place = "{680, 80}";
type = Stem;
},
{
place = "{1158, 94}";
type = Stem;
},
{
horizontal = 1;
place = "{476, 80}";
type = Stem;
},
{
horizontal = 1;
place = "{0, 21}";
target = up;
type = BottomGhost;
}
);
layerId = "5B01CDE3-ACDA-4D2B-9E53-A993574CFD15";
paths = (
{
closed = 1;
nodes = (
"720 24 LINE",
"772 0 OFFCURVE",
"848 -12 OFFCURVE",
"920 -12 CURVE SMOOTH",
"1112 -12 OFFCURVE",
"1252 120 OFFCURVE",
"1252 320 CURVE SMOOTH",
"1252 472 OFFCURVE",
"1156 556 OFFCURVE",
"1020 556 CURVE SMOOTH",
"980 556 OFFCURVE",
"944 548 OFFCURVE",
"916 538 CURVE",
"960 760 LINE",
"862 760 LINE",
"858 752 LINE",
"859 716 OFFCURVE",
"842 628 OFFCURVE",
"834 588 CURVE SMOOTH",
"747 148 LINE SMOOTH",
"739 108 OFFCURVE",
"728 64 OFFCURVE",
"716 32 CURVE"
);
},
{
closed = 1;
nodes = (
"901 461 LINE",
"922 468 OFFCURVE",
"955 476 OFFCURVE",
"1000 476 CURVE SMOOTH",
"1100 476 OFFCURVE",
"1158 428 OFFCURVE",
"1158 320 CURVE SMOOTH",
"1158 160 OFFCURVE",
"1060 68 OFFCURVE",
"924 68 CURVE SMOOTH",
"886 68 OFFCURVE",
"851 73 OFFCURVE",
"821 80 CURVE",
"828 98 OFFCURVE",
"834 120 OFFCURVE",
"840 148 CURVE SMOOTH"
);
},
{
closed = 1;
nodes = (
"396 464 LINE",
"478 464 LINE",
"388 0 LINE",
"480 0 LINE",
"570 464 LINE",
"724 464 LINE",
"740 544 LINE",
"585 544 LINE",
"588 556 LINE",
"604 640 OFFCURVE",
"644 680 OFFCURVE",
"716 680 CURVE SMOOTH",
"748 680 OFFCURVE",
"764 676 OFFCURVE",
"784 668 CURVE",
"792 668 LINE",
"808 748 LINE",
"790 756 OFFCURVE",
"756 760 OFFCURVE",
"724 760 CURVE SMOOTH",
"576 760 OFFCURVE",
"517 664 OFFCURVE",
"496 556 CURVE",
"493 544 LINE",
"412 544 LINE"
);
},
{
closed = 1;
nodes = (
"60 464 LINE",
"142 464 LINE",
"52 0 LINE",
"144 0 LINE",
"234 464 LINE",
"388 464 LINE",
"404 544 LINE",
"249 544 LINE",
"252 556 LINE",
"268 640 OFFCURVE",
"308 680 OFFCURVE",
"380 680 CURVE SMOOTH",
"412 680 OFFCURVE",
"428 676 OFFCURVE",
"448 668 CURVE",
"456 668 LINE",
"472 748 LINE",
"454 756 OFFCURVE",
"420 760 OFFCURVE",
"388 760 CURVE SMOOTH",
"240 760 OFFCURVE",
"181 664 OFFCURVE",
"160 556 CURVE",
"157 544 LINE",
"76 544 LINE"
);
}
);
width = 1290;
},
{
hints = (
{
horizontal = 1;
place = "{-12, 148}";
type = Stem;
},
{
horizontal = 1;
place = "{388, 160}";
type = Stem;
},
{
horizontal = 1;
place = "{748, 12}";
type = Stem;
},
{
place = "{1364, 216}";
type = Stem;
},
{
horizontal = 1;
place = "{556, -20}";
target = down;
type = TopGhost;
},
{
horizontal = 1;
place = "{0, 21}";
target = up;
type = BottomGhost;
},
{
horizontal = 1;
place = "{624, 152}";
type = Stem;
},
{
horizontal = 1;
place = "{404, 152}";
type = Stem;
}
);
layerId = "FA792B6B-505C-4DC3-9C40-F9BEDA01661E";
paths = (
{
closed = 1;
nodes = (
"948 16 LINE",
"1000 0 OFFCURVE",
"1108 -12 OFFCURVE",
"1188 -12 CURVE SMOOTH",
"1424 -12 OFFCURVE",
"1580 96 OFFCURVE",
"1580 320 CURVE SMOOTH",
"1580 470 OFFCURVE",
"1495 556 OFFCURVE",
"1360 556 CURVE SMOOTH",
"1323 556 OFFCURVE",
"1292 550 OFFCURVE",
"1265 540 CURVE",
"1308 760 LINE",
"1085 760 LINE",
"1077 748 LINE",
"1079 696 OFFCURVE",
"1072 644 OFFCURVE",
"1063 596 CURVE SMOOTH",
"982 176 LINE SMOOTH",
"970 116 OFFCURVE",
"962 80 OFFCURVE",
"944 24 CURVE"
);
},
{
closed = 1;
nodes = (
"32 388 LINE",
"126 388 LINE",
"52 0 LINE",
"264 0 LINE",
"339 388 LINE",
"456 388 LINE",
"488 548 LINE",
"370 548 LINE",
"384 600 OFFCURVE",
"412 624 OFFCURVE",
"468 624 CURVE SMOOTH",
"496 624 OFFCURVE",
"517 618 OFFCURVE",
"528 612 CURVE",
"540 612 LINE",
"570 764 LINE",
"551 770 OFFCURVE",
"508 776 OFFCURVE",
"468 776 CURVE SMOOTH",
"302 776 OFFCURVE",
"194 721 OFFCURVE",
"158 548 CURVE",
"64 548 LINE"
);
},
{
closed = 1;
nodes = (
"496 388 LINE",
"590 388 LINE",
"516 0 LINE",
"728 0 LINE",
"803 388 LINE",
"920 388 LINE",
"952 548 LINE",
"834 548 LINE",
"848 600 OFFCURVE",
"876 624 OFFCURVE",
"932 624 CURVE SMOOTH",
"960 624 OFFCURVE",
"981 618 OFFCURVE",
"992 612 CURVE",
"1004 612 LINE",
"1034 764 LINE",
"1015 770 OFFCURVE",
"972 776 OFFCURVE",
"932 776 CURVE SMOOTH",
"766 776 OFFCURVE",
"658 721 OFFCURVE",
"622 548 CURVE",
"528 548 LINE"
);
},
{
closed = 1;
nodes = (
"1238 399 LINE",
"1248 402 OFFCURVE",
"1259 404 OFFCURVE",
"1272 404 CURVE SMOOTH",
"1332 404 OFFCURVE",
"1364 368 OFFCURVE",
"1364 300 CURVE SMOOTH",
"1364 208 OFFCURVE",
"1316 136 OFFCURVE",
"1228 136 CURVE SMOOTH",
"1208 136 OFFCURVE",
"1196 138 OFFCURVE",
"1183 142 CURVE",
"1190 162 OFFCURVE",
"1196 183 OFFCURVE",
"1200 204 CURVE SMOOTH"
);
}
);
width = 1612;
}
);
leftKerningGroup = f;
note = f_f_b;
rightKerningGroup = b;
},
{
glyphname = f_f_h;
lastChange = "2018-11-26 15:58:55 +0000";
layers = (
{
hints = (
{
horizontal = 1;
place = "{0, 21}";
target = up;
type = BottomGhost;
},
{
horizontal = 1;
place = "{464, 80}";
type = Stem;
},
{
horizontal = 1;
place = "{680, 80}";
type = Stem;
},
{
place = "{1142, 94}";
type = Stem;
},
{
horizontal = 1;
place = "{476, 80}";
type = Stem;
}
);
layerId = "5B01CDE3-ACDA-4D2B-9E53-A993574CFD15";
paths = (
{
closed = 1;
nodes = (
"1076 0 LINE",
"1168 0 LINE",
"1228 312 LINE SMOOTH",
"1233 339 OFFCURVE",
"1236 364 OFFCURVE",
"1236 384 CURVE SMOOTH",
"1236 512 OFFCURVE",
"1148 556 OFFCURVE",
"1034 556 CURVE SMOOTH",
"996 556 OFFCURVE",
"953 548 OFFCURVE",
"912 536 CURVE",
"956 760 LINE",
"858 760 LINE",
"854 752 LINE",
"855 716 OFFCURVE",
"838 628 OFFCURVE",
"830 588 CURVE SMOOTH",
"716 0 LINE",
"808 0 LINE",
"896 452 LINE",
"933 466 OFFCURVE",
"974 476 OFFCURVE",
"1014 476 CURVE SMOOTH",
"1092 476 OFFCURVE",
"1142 452 OFFCURVE",
"1142 370 CURVE SMOOTH",
"1142 353 OFFCURVE",
"1140 334 OFFCURVE",
"1136 312 CURVE SMOOTH"
);
},
{
closed = 1;
nodes = (
"396 464 LINE",
"478 464 LINE",
"388 0 LINE",
"480 0 LINE",
"570 464 LINE",
"724 464 LINE",
"740 544 LINE",
"585 544 LINE",
"588 556 LINE",
"604 640 OFFCURVE",
"644 680 OFFCURVE",
"716 680 CURVE SMOOTH",
"748 680 OFFCURVE",
"764 676 OFFCURVE",
"784 668 CURVE",
"792 668 LINE",
"808 748 LINE",
"790 756 OFFCURVE",
"756 760 OFFCURVE",
"724 760 CURVE SMOOTH",
"576 760 OFFCURVE",
"517 664 OFFCURVE",
"496 556 CURVE",
"493 544 LINE",
"412 544 LINE"
);
},
{
closed = 1;
nodes = (
"60 464 LINE",
"142 464 LINE",
"52 0 LINE",
"144 0 LINE",
"234 464 LINE",
"388 464 LINE",
"404 544 LINE",
"249 544 LINE",
"252 556 LINE",
"268 640 OFFCURVE",
"308 680 OFFCURVE",
"380 680 CURVE SMOOTH",
"412 680 OFFCURVE",
"428 676 OFFCURVE",
"448 668 CURVE",
"456 668 LINE",
"472 748 LINE",
"454 756 OFFCURVE",
"420 760 OFFCURVE",
"388 760 CURVE SMOOTH",
"240 760 OFFCURVE",
"181 664 OFFCURVE",
"160 556 CURVE",
"157 544 LINE",
"76 544 LINE"
);
}
);
width = 1312;
},
{
hints = (
{
horizontal = 1;
place = "{0, 21}";
target = up;
type = BottomGhost;
},
{
horizontal = 1;
place = "{388, 160}";
type = Stem;
},
{
horizontal = 1;
place = "{748, 12}";
type = Stem;
},
{
place = "{32, 1540}";
type = Stem;
},
{
horizontal = 1;
place = "{400, 164}";
type = Stem;
},
{
place = "{1356, 216}";
type = Stem;
},
{
horizontal = 1;
place = "{624, 152}";
type = Stem;
}
);
layerId = "FA792B6B-505C-4DC3-9C40-F9BEDA01661E";
paths = (
{
closed = 1;
nodes = (
"1296 0 LINE",
"1508 0 LINE",
"1564 292 LINE SMOOTH",
"1570 322 OFFCURVE",
"1572 348 OFFCURVE",
"1572 372 CURVE SMOOTH",
"1572 472 OFFCURVE",
"1508 564 OFFCURVE",
"1348 564 CURVE SMOOTH",
"1318 564 OFFCURVE",
"1292 561 OFFCURVE",
"1268 556 CURVE",
"1308 760 LINE",
"1085 760 LINE",
"1077 748 LINE",
"1079 696 OFFCURVE",
"1072 644 OFFCURVE",
"1063 596 CURVE SMOOTH",
"948 0 LINE",
"1160 0 LINE",
"1237 396 LINE",
"1252 398 OFFCURVE",
"1268 400 OFFCURVE",
"1280 400 CURVE SMOOTH",
"1340 400 OFFCURVE",
"1356 368 OFFCURVE",
"1356 332 CURVE SMOOTH",
"1356 323 OFFCURVE",
"1355 308 OFFCURVE",
"1352 292 CURVE SMOOTH"
);
},
{
closed = 1;
nodes = (
"32 388 LINE",
"126 388 LINE",
"52 0 LINE",
"264 0 LINE",
"339 388 LINE",
"456 388 LINE",
"488 548 LINE",
"370 548 LINE",
"384 600 OFFCURVE",
"412 624 OFFCURVE",
"468 624 CURVE SMOOTH",
"496 624 OFFCURVE",
"517 618 OFFCURVE",
"528 612 CURVE",
"540 612 LINE",
"570 764 LINE",
"551 770 OFFCURVE",
"508 776 OFFCURVE",
"468 776 CURVE SMOOTH",
"302 776 OFFCURVE",
"194 721 OFFCURVE",
"158 548 CURVE",
"64 548 LINE"
);
},
{
closed = 1;
nodes = (
"496 388 LINE",
"590 388 LINE",
"516 0 LINE",
"728 0 LINE",
"803 388 LINE",
"920 388 LINE",
"952 548 LINE",
"834 548 LINE",
"848 600 OFFCURVE",
"876 624 OFFCURVE",
"932 624 CURVE SMOOTH",
"960 624 OFFCURVE",
"981 618 OFFCURVE",
"992 612 CURVE",
"1004 612 LINE",
"1034 764 LINE",
"1015 770 OFFCURVE",
"972 776 OFFCURVE",
"932 776 CURVE SMOOTH",
"766 776 OFFCURVE",
"658 721 OFFCURVE",
"622 548 CURVE",
"528 548 LINE"
);
}
);
width = 1620;
}
);
leftKerningGroup = f;
note = f_f_h;
rightKerningGroup = a;
},
